<svg id="SvgjsSvg4591" width="360" height="360" xmlns="http://www.w3.org/2000/svg" version="1.1" xmlns:xlink="http://www.w3.org/1999/xlink" xmlns:svgjs="http://svgjs.com/svgjs"><defs id="SvgjsDefs4592"></defs><g id="SvgjsG4593"><svg xmlns="http://www.w3.org/2000/svg" enable-background="new 0 0 1280 1024" viewBox="0 0 1280 1024" width="360" height="360"><path fill="#f2ecd3" d="M457.8,849.2c82.8,7,166.7,1.7,247.9-15.7c73.6-15.7,146.1-41.8,207.2-85.7
				c55.8-40.1,101.9-96.3,120.6-162.4c11-38.7,12.3-79.6,9-119.7c-2.9-35.6-9.6-71.3-23.8-104.1C981.7,276,898.2,219.8,813.4,180.8
				c-36-16.6-73.6-31-112.9-36.1c-85-11.1-175.7,26.4-224.4,97c-35.9,51.9-50.6,120-100.3,158.9c-32.6,25.5-75.1,33.9-112.2,52.4
				c-46.8,23.3-87,68-88.3,120.2c-1.3,52.6,35.4,97.6,71.1,136.3c55,59.6,101.7,111.4,182,133.4L457.8,849.2z" class="colordaf2d3 svgShape"></path><ellipse cx="618.2" cy="826.9" fill="#cead2b" rx="576.4" ry="38.6" class="colorcecd2b svgShape"></ellipse><path fill="#5a93cc" d="M1143.7,354.7c0,0,8.2,17.5-8.7,22.4c0,0-14.2,5.5-31.1-20.2c0,0-9.3,41.5-46.4,37.1c0,0-31.1,19.1-44.8-12.6
			c0,0-7.1,15.5-15.3-4.2c0,0-19.7,42.3-30.6,22.5c0,0-23.5,32.5-37.7,17.2c0,0-12.5-12.3,2.7-44.2c0,0-37.1,34.4-55.2,22.9
			c0,0-12-4.9,7.6-31.7c0,0-20.8,31.4-41,23.9c0,0-19.7-0.4-3.8-33.2c0,0-15.8,25.1-31.1,0c0,0-12.6,32.8-44.8,17.5
			c0,0-19.7-13.7,3.8-38.2c0,0-24,7.1-27.3-7.1c0,0-8.7-15.3,11.5-25.7c0,0-24,7.6-27.3-10.9c0,0-2.7-24,21.3-42.1
			c0,0-9.8,2.2-14.2-6.6c0,0,0.5-60.6,154.5-95c0,0,130-10.9,148,18.6c0,0,69.4-14.7,120.1,0.5c0,0,39.9,12.7,16.9,30.7
			c0,0,30.6-3.9,51.9,28.9c0,0,13.1,22.4-12.6,13.7c0,0,28.4,30,8.7,38.8c0,0-14.7,8.7-46.4-24c0,0,10.9,47,6,62.8
			c0,0-3.3,26.8-22.9,14.7C1155.7,331.2,1162.3,361.3,1143.7,354.7z" class="color82cc5a svgShape"></path><path fill="#f36301" d="M936.7,816.2c0,0,55.7,0,55.7-77V578.6c0,0-26.2-52.4-27.9-106.5c0,0-1.6-145.8-47.5-190l-18-21.3
			c0,0-29.5-8.2-60.6-8.2c0,0-27.9,18-31.1,32.8c0,0-6.9-10,23.7-35.9c0,0-20.8-5.5-36.4,2.5c0,0,2.5-15.7,53.9-8.4l39.3,5.1
			c0,0-19.7-21.1-32.4-26.2c0,0,22.6-2.5,53.2,33.5l37.9,47l39.3-56.1c0,0,18.6-22.7,38.6-24.4c0,0-22.2,15.7-30.6,29.2l-6.6,10.2
			c0,0,25.8-14.9,42.2-8.7c0,0-29.5,2.2-52.1,27.3l-20.4,27.7c0,0,18.6,79.7,17.8,103.8c0,0,7.3,113.6,43,113.6c0,0,27.7,1.1,39-63
			c0,0,11.3-55.7,18.9-84.8c0,0,8.7-18.2-6.9-40c0,0-32-42.2-41.5-47.3c0,0,28.2,8.7,50.9,46.6c0,0,4.9,4.7,9.2,16.4
			c0,0,24-78.3,18.6-111.4c0,0,13.1,21.1,5.5,46.2l33.1-31.7c0,0,18.6-16,34.2-12.7c0,0-22.9,10.6-28.8,18.6l-10.2,12.7
			c0,0,20-2.9,31.3,1.5c0,0-18.6-4-55.3,18.6c0,0-25.5,77.2-36,129.6c0,0-15.3,104.9-51,127.1l-2.5,1.5l4.7,180.2
			c0,0-0.4,76.5,55.9,82.8H936.7z" class="colorba784a svgShape"></path><path fill="#f4df89" d="M678.7,672.7l-4.5-18.4l-17.1,1.7c1.7,14.6-8.4,17.9-8.4,17.9l0,0l-5.1,1.6l-7.4,2.2l0-0.1
			c0,0-0.3,0.1-0.9,0.3l-4.6,1.4c0,0-12.5,7.6-2.3,15.4c0,0,2.6,3.4,12.6-0.4l24-5.5c13.8-4.7,14.3-12.1,13.9-15.1h0l-0.1-0.2
			C678.9,673.1,678.7,672.7,678.7,672.7z" class="colorf4a289 svgShape"></path><path fill="#3f4124" d="M665.3,555.6c-4.3,40.5,19.5,104.9,19.5,104.9c-17.9,10.4-35.5,6.6-35.5,6.6c-4.5-26.8-35.8-108.1-22.1-130.3
			C639.4,530.9,651.2,541,665.3,555.6z" class="color282441 svgShape"></path><path fill="#3f4124" d="M737.9,528.9l29.9,37.2c-25.6,14.5-100,1-100,1c-2.9,0.2-24.3-9-29-12.6c-8.7-6.6-20.8-19.3-1.9-25.1
			c7.4-4.4,67.1-4.3,67.1-4.3C719.6,524.1,737.9,528.9,737.9,528.9z" class="color282441 svgShape"></path><path fill="#f3d971" d="M696.4,409c0,0,10.3,3.7,5.9,23.7l12.4-2.5l13.1-11.8c0,0-17.7-11-14.8-26.4L696.4,409z" class="colorf39571 svgShape"></path><path fill="#ffeb9d" d="M730.9,390.9c0,0,1.1-1.2,2.7-4.1c1-1.7,1.9-3.5,2.5-5.3c0,0,0,0,0-0.1l0,0
			c3.1-9,1.7-19.5-4.6-27.6c-9.5-12.3-26.5-14.4-37.9-4.8c-5.2,4.4-8.4,10.5-9.4,17l0,0c0,0,0,0.1-0.1,0.4c0,0.1,0,0.2,0,0.2
			c-0.7,4.8-5.1,35.9-3.9,41.4c0,0,0.9,4.8,10,4.3C690.2,412.4,725.1,402.9,730.9,390.9z" class="colorffc59d svgShape"></path><path fill="#f3d973" d="M697.4,384.8c-0.4,2-3.2,3-6.4,2.3c-3.2-0.7-5.4-2.9-5-4.9c0.4-2,3.2-3,6.4-2.3
			C695.5,380.6,697.8,382.8,697.4,384.8z" opacity=".31" class="colorf39473 svgShape"></path><path fill="#181814" d="M698.4,371.1c0,0,0.8-1.8-1.2-2.9c0,0-2.5-1.4-5,0.2c0,0-1.5,0.9-1,2c0,0,0.5,1.1,1.8,0.9
			c0,0,2.1-0.6,3.1,0.2C696.1,371.4,697.4,372.7,698.4,371.1z" class="color151418 svgShape"></path><polygon fill="#f3d971" points="683.8 368.3 671.6 386.1 681.3 387.8" class="colorf39571 svgShape"></polygon><path fill="#181814" d="M680.2 397.1c3.7 2.8 8.6 2.6 12.1-.5 1-.9-.5-2.3-1.4-1.4-2.8 2.5-6.7 2.4-9.6.2C680.2 394.6 679.2 396.3 680.2 397.1L680.2 397.1zM693.4 377.7c-.8.6-1.9.5-2.5-.3-.6-.8-.5-2 .2-2.6.8-.6 1.9-.5 2.5.3C694.2 375.9 694.1 377.1 693.4 377.7zM691 345.7c0 0-3-1.8-5.9 1.1 0 0-1.8 3 1.2 4.8 0 0-4.7 4.8 3.5 7.4 0 0 2.8 7.2 12.6 4.3 0 0-.9 8.4 7.9 11.2 0 0 6.9 8 .6 16.2l4.7 1.1 4.2-8.4 1 9.1-5.2 5.3c0 0-2.9 5-.2 7.3 0 0 5 .3 5.3-2.5 0 0 4.1.8 7.1-5.4 0 0 8.9-2.6 10.2-7.9 0 0 8.4-8.2 1.2-13.4 0 0 7.8-9.5-2.8-16.3 0 0-4.8-21.7-14.2-15.7 0 0-3.5-6.4-8.1-2.6 0 0-1.6-3.5-7.5-2.4 0 0-5.4.9-5.7 3.7C700.8 342.8 696.4 339 691 345.7z" class="color151418 svgShape"></path><path fill="#c6b058" d="M732.6,395.3c0,0-18.9-26.2-47.1-34.4c0,0-8.1-17.2,8.5-18c0,0,40.6,25.8,48.5,35.2c0,0,4.6,5.9-5.8,13.8
			C736.8,391.9,737.8,394.8,732.6,395.3z" class="colorc6b158 svgShape"></path><path fill="#f3d973" d="M717,384.4c0,0,1.6-4.7,6-3.2c0,0,5,2.2,2.4,9.2c0,0-6.4,9.6-11.1,7.3
			C714.3,397.6,713.1,395.9,717,384.4z" class="colorf39473 svgShape"></path><path fill="#517293" d="M726.4,415c0,0,10.3-6,32,23c0,0,15.6,26.3,22.1,54.5c0,0,11.3,50.1-10.9,76
			c0,0-39.3-1.7-48.3-45.7c0,0,5.7-27.9-9.2-53.7c0,0-13.4-23.1-10-36.4C702.2,432.7,727.1,421.1,726.4,415z" class="color938651 svgShape"></path><path fill="#525938" d="M718.7 410.1l2.8 3.1c0 0-11.3 15.6-16.7 18.3 0 0 8.1-2.1 6.4 11.4 0 0 18.7-19.3 17.9-30.2C729.1 412.7 725.9 406.2 718.7 410.1zM703.4 422.3l1.4 9.1c0 0-6.6 3.1-6.5 7.8 0 0-2.6-7.9 4.6-21.1L703.4 422.3z" class="color665d38 svgShape"></path><path fill="#181814" d="M714.8,391.7c0,0-0.5,10-6,14.2c0,0-13.8,7.9-16.6,10.5c0,0-11.7,5.9-13.5-2.8c0,0-2.4-5.7,1.3-11.5
			c0,0,2.4-2.6,6.1,0.4c0,0,4.3,6.3,8.7-0.4V395c0,0,0.1-3-6.4-1.2c0,0-3.1,1.8-7.7-0.1c0,0-2.6-2.1,0.4-4.2c0,0,4.5,0.5,7.7,0
			c0,0,9.1-1.3,9,6.5c0,0-1.3,6.6,5.4,4.3c0,0,5.2,0,7.7-9.4L714.8,391.7z" class="color151418 svgShape"></path><path fill="#353535" d="M788.3 554.5H788c-5.3 0-9.6-4.3-9.6-9.6V435.4c0-5.3 4.3-9.6 9.6-9.6h.3c5.3 0 9.6 4.3 9.6 9.6v109.5C797.9 550.2 793.6 554.5 788.3 554.5zM645.1 525.6l-.2.1c-3.1 1.6-7 .4-8.6-2.7l-30.1-57c-1.6-3.1-.4-7 2.7-8.6l.2-.1c3.1-1.6 7-.4 8.6 2.7l30.1 57C649.4 520.1 648.2 524 645.1 525.6z" class="color353535 svgShape"></path><path fill="#353535" d="M580.5,548.5l-0.1-0.1c-2.3-1.8-2.7-5.2-0.9-7.5l41.4-52.2c1.8-2.3,5.2-2.7,7.5-0.9l0.1,0.1
					c2.3,1.8,2.7,5.2,0.9,7.5l-41.4,52.2C586.1,549.9,582.8,550.3,580.5,548.5z" class="color353535 svgShape"></path><rect width="86.7" height="58.3" x="685.5" y="692.2" fill="#494949" class="color494949 svgShape"></rect><rect width="92.5" height="58.3" x="593.6" y="692.2" fill="#252617" class="color1e1c1c svgShape"></rect><path fill="#c76828" d="M593.6,716.2H358.4c-27.6,0-50-22.4-50-50v-98.1c0-27.6,22.4-50,50-50h235.2V716.2z" class="colorc72849 svgShape"></path><path fill="#494949" d="M593.6,725.9V617.5H477.7c0,0-24.9-4.6-24.2,35.5l-0.2,63.2H309.2v9.7H593.6z" class="color494949 svgShape"></path><path fill="#2b2b29" d="M309.7,556.4l93,0.2c0,0,27.4-4,23.7,25.8c0,0-3.1,82.5-64.5,93.5l-52.4-1.7v-96.6
					C309.5,577.5,308.8,572.8,309.7,556.4z" class="color2b2929 svgShape"></path><path fill="#94a5b7" d="M352.8,637.2h-33.2v-67.5H386c9.2,0,16.6,7.4,16.6,16.6v1.1C402.6,614.9,380.3,637.2,352.8,637.2z" class="colorb79498 svgShape"></path><path fill="#d3dce5" d="M361.5,615.4h-36.3v-36.2h36.3c8.2,0,14.8,6.6,14.8,14.8v6.7C376.3,608.8,369.7,615.4,361.5,615.4z" class="colore5d3d6 svgShape"></path><rect width="23.1" height="24.6" x="279.1" y="725.9" fill="#2b2b29" class="color2b2929 svgShape"></rect><rect width="285.2" height="24.6" x="308.4" y="725.9" fill="#2b2b29" class="color2b2929 svgShape"></rect><rect width="23.1" height="39.7" x="290.6" y="713.7" fill="#161615" class="color161515 svgShape"></rect><rect width="105.4" height="26.7" x="488.2" y="678.8" fill="#2b2b29" class="color2b2929 svgShape"></rect><path fill="#2b2b29" d="M593.6,661.2H488.2v-0.4c0-14.2,11.5-25.7,25.7-25.7h79.7V661.2z" class="color2b2929 svgShape"></path><rect width="20.4" height="237.6" x="486.8" y="423.6" fill="#252617" class="color1e1c1c svgShape"></rect><path fill="#252617" d="M502.4,431.6v-72c0,0,0.2-24.5-15.4-27.5c0,0-6.6,0.4-6.3,9.7c0,0,10.9,1.6,10.9,19v72.8L502.4,431.6z" class="color1e1c1c svgShape"></path><path fill="none" stroke="#494949" stroke-miterlimit="10" stroke-width="6" d="M937.9,541.1l8.2-37.3c0,0,10-20.9-28.2-21.9l-144.8,20c0,0-22.8,2.7-15.5,34.6l7.3,22.8L937.9,541.1z" class="colorStroke494949 svgStroke"></path><line x1="799.9" x2="810.5" y1="498.2" y2="554.5" fill="none" stroke="#494949" stroke-miterlimit="10" stroke-width="6" class="colorStroke494949 svgStroke"></line><line x1="899.7" x2="894.9" y1="484.4" y2="545.6" fill="none" stroke="#494949" stroke-miterlimit="10" stroke-width="6" class="colorStroke494949 svgStroke"></line><path fill="#7f9b18" d="M768.3,571.1L705,571c0,0-19.7,0.8-18.8,28.8l0.3,117.9h81.9V571.1z" class="color9b1837 svgShape"></path><polygon fill="#d36820" points="983.7 592.1 992.3 599.8 997.5 592.1 990.6 574 943.3 528.4 815.9 524.1 755.7 557.7 712.7 630.8 705.8 662.7 699.8 693.6 705.8 693.6 848.6 612.8 960.5 583.5" class="colord3204b svgShape"></polygon><polygon fill="#585d12" points="983.7 592.1 721.3 693.6 705.8 693.6 715.3 656.6 737.6 615.3 821.1 544.8 926.1 544.8 951.9 552.5" class="color5d1216 svgShape"></polygon><circle cx="870.8" cy="698.7" r="144" fill="#353535" class="color353535 svgShape"></circle><circle cx="870.8" cy="698.7" r="105.7" fill="#020202" transform="rotate(-45.001 870.8 698.675)" class="color020202 svgShape"></circle><circle cx="870.8" cy="698.7" r="86.6" fill="#797a7b" class="color797b7a svgShape"></circle><circle cx="870.8" cy="698.7" r="78.7" fill="#929ca6" class="color9f9f9f svgShape"></circle><circle cx="870.8" cy="698.7" r="61.1" fill="#414141" class="color414141 svgShape"></circle><circle cx="870.8" cy="698.7" r="49.1" fill="#848484" class="color848484 svgShape"></circle><circle cx="870.8" cy="698.7" r="19.1" fill="#343434" class="color343434 svgShape"></circle><circle cx="870.8" cy="698.7" r="14.1" fill="#636b73" class="color616363 svgShape"></circle><circle cx="440" cy="765.8" r="75.3" fill="#353535" class="color353535 svgShape"></circle><circle cx="440" cy="765.8" r="55.3" fill="#020202" transform="rotate(-45.001 439.96 765.76)" class="color020202 svgShape"></circle><circle cx="440" cy="765.8" r="45.3" fill="#797a7b" class="color797b7a svgShape"></circle><circle cx="440" cy="765.8" r="41.2" fill="#929ca6" class="color9f9f9f svgShape"></circle><circle cx="440" cy="765.8" r="32" fill="#414141" transform="rotate(-54.43 439.938 765.737)" class="color414141 svgShape"></circle><circle cx="440" cy="765.8" r="25.7" fill="#848484" class="color848484 svgShape"></circle><circle cx="440" cy="765.8" r="10" fill="#343434" class="color343434 svgShape"></circle><circle cx="440" cy="765.8" r="7.4" fill="#636b73" class="color616363 svgShape"></circle><path fill="#2b2b29" d="M431.1,672.8h-15c-3.3,0-5.3-2.7-4.4-6l15.1-56.5c0.9-3.3,4.3-6,7.6-6h15c3.3,0,5.3,2.7,4.4,6l-15.1,56.5
			C437.8,670.1,434.4,672.8,431.1,672.8z" class="color2b2929 svgShape"></path><path fill="#d3dce5" d="M443.3 623.2h-12c-2 0-3.6-1.6-3.6-3.6l0 0c0-2 1.6-3.6 3.6-3.6h12c2 0 3.6 1.6 3.6 3.6l0 0C446.8 621.6 445.2 623.2 443.3 623.2zM438.2 641.9h-12c-2 0-3.6-1.6-3.6-3.6l0 0c0-2 1.6-3.6 3.6-3.6h12c2 0 3.6 1.6 3.6 3.6l0 0C441.8 640.3 440.2 641.9 438.2 641.9zM433.4 660.6h-12c-2 0-3.6-1.6-3.6-3.6l0 0c0-2 1.6-3.6 3.6-3.6h12c2 0 3.6 1.6 3.6 3.6l0 0C437 658.9 435.4 660.6 433.4 660.6z" class="colore5d3d6 svgShape"></path><path fill="#ffeb9d" d="M635.1,478.6c0,0,9.6-1.4,17.9,0.9c0,0,5.5,9.7,2,13c0,0-4.7,4.5-18.3,4.9
			C636.8,497.5,631.8,482.7,635.1,478.6z" class="colorffc59d svgShape"></path><path fill="#ffeb9d" d="M618.1,492.7c0,0,8.6-7.9,17.1-14c0,0,7.2,12.5,5.8,17.1c0,0-9.7,8.4-14,8.6c0,0-3.1,1.2-6.9-3.1
			C620.1,501.3,614.4,497.7,618.1,492.7z" class="colorffc59d svgShape"></path><path fill="#f8da62" d="M633.7,485.4l-0.6-1.1c0,0-13.5,12.7-16.1,11.9c-0.5,2.5,2.6,5.9,2.6,5.9c2.6,2.3,6.3,3,7.5,2.4
			c0.1-1.3,0.3-4.7,12-11.7l-0.5-0.7c0,0-14.5,11.8-15.9,10.3c0,0-3.8-1,13.3-12.8l-0.5-0.9c0,0-13.3,12.3-15.5,10.8
			C619.8,499.5,616.8,499.4,633.7,485.4z" class="colorefab7d svgShape"></path><g><path fill="#ffeb9d" d="M716.7,488.6c0,0-0.5,7.6-22.6,7.1c0,0-35.1,0.4-42.1-1.3c0,0-2-9.6,1-14.9
			c0,0,32.1-5.1,40.3-6.5C693.3,473.1,719,468.2,716.7,488.6z" class="colorffc59d svgShape"></path></g><g><path fill="#525938" d="M739.5,426.5c0,0-9.1-7.2-21.2,14.1c0,0-15.7,22.6-19.5,31.9c0,0,6-0.9,13.4,7.2
			c0,0,5.6,6.6,6.9,13.1c0,0,16-21.7,22.2-41.2C741.2,451.6,751.2,431.2,739.5,426.5z" class="color665d38 svgShape"></path></g><g><path fill="#91ad27" d="M235.8,855.8c0,0-4.3-137.5-108-206.2c0,0,80.8,99.4,73.1,204L235.8,855.8z" class="color8cad27 svgShape"></path></g><g><path fill="#6a8212" d="M347.8,861c0,0-5.2-136.7-108.9-205.4c0,0,81.9,99.5,74.1,204.1L347.8,861z" class="color6d8212 svgShape"></path></g><g><path fill="#91ad27" d="M290.6,858.7c0,0,1.2-170.5,89.8-212.3c0,0-99.3,10.1-116.6,211L290.6,858.7z" class="color8cad27 svgShape"></path></g><g><path fill="#91ad27" d="M173.9,851.5c0,0-5-148.7-85-145.9c0,0,73.1,24,51.6,143L173.9,851.5z" class="color8cad27 svgShape"></path></g><g><path fill="#91ad27" d="M760.6,863.7c0,0-6.3-133-112.1-198.3c0,0,83,94.6,78.7,199.4L760.6,863.7z" class="color8cad27 svgShape"></path></g><g><path fill="#6a8212" d="M600.8,865.5c0,0,13.5-148.1,93.3-142.8c0,0-71.8,23.2-54.3,142.8H600.8z" class="color6d8212 svgShape"></path></g><g><path fill="#6a8212" d="M873.4,861.5c0,0-7.8-128.3-113.6-193.7c0,0,85.7,89.9,81.3,194.7L873.4,861.5z" class="color6d8212 svgShape"></path></g><g><path fill="#91ad27" d="M818,863.1c0,0-4.3-164.4,82.9-209c0,0-98.6,8.3-109.4,209.7L818,863.1z" class="color8cad27 svgShape"></path></g><g><path fill="#91ad27" d="M699.5,865.2c0,0-8.2-147.9-88-142.6c0,0,71.4,23.2,53.8,142.8L699.5,865.2z" class="color8cad27 svgShape"></path></g><g><path fill="#91ad27" d="M1011.9,854.7c0,0,5.2-123.3,98.9-183.9c0,0-72.6,88.2-66.7,182.1L1011.9,854.7z" class="color8cad27 svgShape"></path></g><g><path fill="#6a8212" d="M911.4,859.7c0,0,6.3-123.2,100.6-183c0,0-77.4,88.3-72.4,182.2L911.4,859.7z" class="color6d8212 svgShape"></path></g><g><path fill="#91ad27" d="M962.7,857.9c0,0,0.7-153-78.4-191.4c0,0,89,10.1,102.4,190.4L962.7,857.9z" class="color8cad27 svgShape"></path></g><g><path fill="#91ad27" d="M1066.1,850.9c0,0,7.4-133.9,79-130.6c0,0-65.8,20.8-47.8,127.7L1066.1,850.9z" class="color8cad27 svgShape"></path></g><g><path fill="#6a8212" d="M591.8,865.5c0,0-16.1-131.7-87.3-123.3c0,0,65.4,15.1,55.1,123.1L591.8,865.5z" class="color6d8212 svgShape"></path></g><g><path fill="#91ad27" d="M480.4,864.4c0,0,15.1-124.1,112.9-177.7c0,0-81.8,84.1-82.7,178.2L480.4,864.4z" class="color8cad27 svgShape"></path></g><g><path fill="#6a8212" d="M379.8,862c0,0,16.2-123.9,114.5-176.7c0,0-82.7,83.5-84.4,177.6L379.8,862z" class="color6d8212 svgShape"></path></g><g><path fill="#91ad27" d="M429.8,863.4c0,0,13.9-153.4-62.2-197.4c0,0,89.4,17.1,89.8,198L429.8,863.4z" class="color8cad27 svgShape"></path></g></svg></g></svg>