<svg id="SvgjsSvg1001" width="360" height="360" xmlns="http://www.w3.org/2000/svg" version="1.1" xmlns:xlink="http://www.w3.org/1999/xlink" xmlns:svgjs="http://svgjs.com/svgjs"><defs id="SvgjsDefs1002"></defs><g id="SvgjsG1008"><svg xmlns="http://www.w3.org/2000/svg" enable-background="new 0 0 5000 4000" viewBox="0 0 5000 4000" width="360" height="360"><path fill="#525938" d="M4644.922,2520.542c0,145.089-200.449,262.707-447.715,262.707s-447.715-117.618-447.715-262.707
					c0-604.428,200.449-816.823,447.715-816.823S4644.922,1919.491,4644.922,2520.542z" class="color49ada5 svgShape"></path><path fill="#252617" d="M4197.207,2784.749c-119.853,0-232.553-27.399-317.342-77.151
					c-41.298-24.232-73.734-52.468-96.406-83.921c-23.534-32.648-35.467-67.348-35.467-103.135
					c0-283.522,44.197-497.46,131.363-635.871c39.143-62.156,87.208-109.136,142.859-139.637
					c51.838-28.41,110.714-42.815,174.992-42.815c64.17,0,123.048,14.566,174.997,43.293
					c55.603,30.748,103.666,77.994,142.855,140.427c87.166,138.864,131.362,352.376,131.362,634.604
					c0,35.787-11.933,70.486-35.467,103.135c-22.672,31.453-55.108,59.688-96.406,83.921
					C4429.76,2757.35,4317.06,2784.749,4197.207,2784.749z M4197.207,1705.219c-133.569,0-239.656,60.914-315.313,181.051
					c-86.859,137.925-130.901,351.325-130.901,634.272c0,69.618,46.308,135.13,130.392,184.469
					c84.335,49.485,196.497,76.738,315.823,76.738s231.488-27.253,315.823-76.738c84.084-49.339,130.392-114.851,130.392-184.469
					c0-281.654-44.042-494.63-130.903-633.008C4436.582,1766.559,4330.496,1705.219,4197.207,1705.219z" class="color381f31 svgShape"></path><path fill="#252617" d="M4197.207,3081.479c-0.828,0-1.5-0.672-1.5-1.5V2019.061c0-0.828,0.672-1.5,1.5-1.5
				s1.5,0.672,1.5,1.5V3079.98C4198.707,3080.808,4198.035,3081.479,4197.207,3081.479z" class="color381f31 svgShape"></path><path fill="#252617" d="M4197.206,2150.481c-0.278,0-0.56-0.077-0.811-0.238c-0.696-0.448-0.898-1.376-0.45-2.073
					l70.794-110.138c0.447-0.696,1.378-0.897,2.073-0.45c0.696,0.448,0.898,1.376,0.45,2.073l-70.794,110.138
					C4198.183,2150.238,4197.699,2150.481,4197.206,2150.481z" class="color381f31 svgShape"></path><path fill="#252617" d="M4230.733 2098.321c-.644 0-1.238-.417-1.435-1.065-.24-.793.208-1.63 1.001-1.87l44.265-13.409c.786-.241 1.63.207 1.87 1.001.24.793-.208 1.63-1.001 1.87l-44.265 13.409C4231.024 2098.301 4230.878 2098.321 4230.733 2098.321zM4197.208 2473.035c-.455 0-.905-.206-1.2-.599l-145.796-193.861c-.497-.662-.364-1.603.298-2.101.659-.498 1.601-.366 2.101.298l145.796 193.861c.497.662.364 1.603-.298 2.101C4197.839 2472.938 4197.522 2473.035 4197.208 2473.035z" class="color381f31 svgShape"></path><path fill="#252617" d="M4113.297 2361.462c-.828 0-1.5-.672-1.5-1.5v-66.926c0-.828.672-1.5 1.5-1.5s1.5.672 1.5 1.5v66.926C4114.797 2360.79 4114.125 2361.462 4113.297 2361.462zM4197.206 2650.035c-.309 0-.62-.095-.888-.291-.667-.491-.811-1.43-.32-2.098l172.522-234.697c.491-.667 1.43-.811 2.098-.32.667.491.811 1.43.32 2.098l-172.522 234.697C4198.122 2649.823 4197.667 2650.035 4197.206 2650.035z" class="color381f31 svgShape"></path><path fill="#252617" d="M4314.857 2489.983c-.809 0-1.475-.644-1.498-1.457l-1.986-69.061c-.024-.828.628-1.519 1.456-1.542.813-.061 1.519.628 1.542 1.456l1.986 69.061c.024.828-.628 1.519-1.456 1.542C4314.887 2489.983 4314.872 2489.983 4314.857 2489.983zM4197.206 2323.343c-.355 0-.713-.126-.999-.382-.617-.552-.671-1.5-.118-2.118l86.261-96.523c.551-.615 1.498-.672 2.118-.118.617.552.671 1.5.118 2.118l-86.261 96.523C4198.029 2323.174 4197.619 2323.343 4197.206 2323.343z" class="color381f31 svgShape"></path><path fill="#252617" d="M4248.636,2265.796c-0.828,0-1.5-0.672-1.5-1.5v-38.977c0-0.828,0.672-1.5,1.5-1.5
					s1.5,0.672,1.5,1.5v38.977C4250.136,2265.124,4249.464,2265.796,4248.636,2265.796z" class="color381f31 svgShape"></path><path fill="#f36301" d="M1457.834,682.798c0,0,56.99-80.998-76.346-46.648c0,0,32.442-89.493-146.169-34.35
					c0,0,38.324-80.998-108.437-80.998c-143.26,0-324.396,115.348-324.396,115.348s-93.201-39.501-199.37,46.648L1457.834,682.798
					L1457.834,682.798z" class="colord6ecff svgShape"></path><path fill="#252617" d="M1457.833,684.298H603.116c-0.635,0-1.202-0.4-1.414-0.999s-0.025-1.266,0.468-1.666
					c55.172-44.768,106.806-55.144,140.407-55.965c32.906-0.791,55.463,7.162,59.752,8.807
					c5.792-3.629,49.501-30.664,108.008-57.364c57.791-26.372,142.27-57.809,216.543-57.809c56.444,0,92.556,11.833,107.331,35.169
					c11.505,18.172,6.339,37.633,3.678,44.973c72.394-21.989,118.876-22.868,138.182-2.606c12.4,13.014,9.363,30.601,7.619,37.204
					c46.134-11.582,74.421-10.356,84.103,3.648c11.569,16.735-7.898,44.785-8.732,45.971
					C1458.779,684.061,1458.322,684.298,1457.833,684.298z M607.393,681.298h849.643c2.782-4.208,17.786-28.172,8.287-41.905
					c-6.239-9.019-25.784-16.65-83.461-1.791c-0.537,0.137-1.109-0.032-1.483-0.443c-0.375-0.411-0.49-0.996-0.302-1.52
					c0.079-0.219,7.759-22.13-6.194-36.75c-12.88-13.496-47.298-23.697-138.122,4.344c-0.57,0.176-1.186-0.002-1.575-0.45
					c-0.39-0.449-0.478-1.086-0.224-1.624c0.112-0.238,11.061-24.042-2.303-45.112c-14.201-22.392-49.454-33.746-104.778-33.746
					c-73.722,0-157.75,31.28-215.258,57.521c-62.382,28.464-107.879,57.304-108.332,57.592c-0.416,0.265-0.937,0.308-1.39,0.116
					c-0.231-0.098-23.547-9.768-59.411-8.859C710.071,629.492,660.582,639.367,607.393,681.298z" class="color381f31 svgShape"></path><path fill="#f36301" d="M4204.487,442.493c0,0,70.814-100.645-94.866-57.963c0,0,40.311-111.202-181.625-42.682
					c0,0,47.62-100.646-134.741-100.646c-178.011,0-403.085,143.328-403.085,143.328s-115.809-49.083-247.731,57.963H4204.487z" class="colord6ecff svgShape"></path><path fill="#252617" d="M4204.487,443.993H3142.439c-0.635,0-1.201-0.4-1.414-0.999
					c-0.212-0.599-0.024-1.266,0.469-1.666c30.224-24.525,62.121-42.85,94.806-54.466c26.168-9.3,52.896-14.345,79.439-14.993
					c41.286-1,69.438,9.11,74.276,10.984c6.522-4.093,61.087-37.933,134.32-71.353c71.775-32.754,176.694-71.799,268.919-71.799
					c70.004,0,114.771,14.646,133.059,43.53c14.401,22.745,7.348,47.777,4.243,56.261c48.982-14.922,88.928-22.122,118.728-21.403
					c24.684,0.596,42.631,6.599,53.345,17.843c15.467,16.233,11.219,38.869,9.188,46.489c57.531-14.519,92.768-13.1,104.747,4.229
					c14.233,20.587-9.818,55.24-10.85,56.706C4205.433,443.755,4204.976,443.993,4204.487,443.993z M3146.707,440.993h1056.984
					c3.181-4.778,22.464-35.2,10.401-52.64c-11.208-16.208-47.205-17.027-104.097-2.371c-0.541,0.139-1.109-0.032-1.483-0.444
					c-0.374-0.411-0.49-0.996-0.301-1.519c0.099-0.275,9.721-27.7-7.771-46.035c-16.072-16.846-58.959-29.603-172.002,5.296
					c-0.567,0.174-1.186-0.002-1.575-0.45c-0.39-0.449-0.477-1.086-0.224-1.624c0.141-0.297,13.832-30.042-2.878-56.398
					c-17.715-27.94-61.623-42.107-130.507-42.107c-91.673,0-196.14,38.888-267.634,71.51
					c-77.536,35.379-134.083,71.225-134.646,71.583c-0.417,0.266-0.937,0.308-1.391,0.116c-0.288-0.122-29.308-12.156-73.934-11.039
					C3275.135,375.89,3213.205,388.264,3146.707,440.993z" class="color381f31 svgShape"></path><path fill="#f36301" d="M4610.14,907.18c0,0,48.724-69.249-65.272-39.882c0,0,27.736-76.513-124.968-29.368
					c0,0,32.766-69.25-92.709-69.25c-122.481,0-277.344,98.617-277.344,98.617s-79.683-33.772-170.452,39.882L4610.14,907.18
					L4610.14,907.18z" class="colord6ecff svgShape"></path><path fill="#252617" d="M4610.14,908.68h-730.746c-0.635,0-1.201-0.4-1.414-0.999c-0.212-0.599-0.024-1.266,0.469-1.667
					c47.217-38.313,91.412-47.193,120.174-47.896c28.291-0.684,47.145,5.975,51.072,7.501c5.333-3.337,42.557-26.31,92.271-48.996
					c49.428-22.556,121.687-49.444,185.226-49.444c48.337,0,79.272,10.15,91.946,30.169c9.68,15.288,5.631,31.634,3.311,38.233
					c61.74-18.702,101.418-19.394,117.947-2.044c10.459,10.976,8.166,25.72,6.658,31.658c39.328-9.83,63.473-8.724,71.781,3.295
					c9.977,14.431-6.751,38.533-7.468,39.552C4611.086,908.442,4610.628,908.68,4610.14,908.68z M3883.679,905.68h725.662
					c2.521-3.83,14.997-23.959,7.022-35.486c-5.294-7.653-21.934-14.116-71.122-1.443c-0.539,0.139-1.108-0.032-1.483-0.443
					c-0.374-0.411-0.49-0.996-0.302-1.519c0.067-0.187,6.586-18.8-5.25-31.199c-10.971-11.491-40.325-20.165-117.864,3.774
					c-0.568,0.175-1.186-0.002-1.574-0.45c-0.39-0.449-0.478-1.085-0.225-1.623c0.096-0.203,9.403-20.455-1.958-38.364
					c-12.102-19.074-42.178-28.746-89.395-28.746c-62.988,0-134.794,26.731-183.94,49.155
					c-53.322,24.33-92.212,48.981-92.599,49.227c-0.416,0.265-0.938,0.308-1.391,0.116c-0.198-0.083-20.105-8.342-50.727-7.557
					C3970.955,861.823,3928.909,870.2,3883.679,905.68z" class="color381f31 svgShape"></path><path fill="#f36301" d="M2821.128,1357.387c0,0,48.724-69.249-65.273-39.882c0,0,27.736-76.513-124.968-29.368
					c0,0,32.765-69.25-92.709-69.25c-122.481,0-277.344,98.617-277.344,98.617s-79.683-33.772-170.452,39.882h730.746V1357.387z" class="colord6ecff svgShape"></path><path fill="#252617" d="M2821.128,1358.887h-730.746c-0.635,0-1.202-0.4-1.414-0.999
					c-0.212-0.599-0.025-1.266,0.468-1.667c47.217-38.313,91.413-47.193,120.173-47.896c28.265-0.693,47.144,5.975,51.073,7.501
					c5.333-3.337,42.556-26.31,92.27-48.996c49.428-22.556,121.686-49.444,185.225-49.444c48.337,0,79.272,10.15,91.947,30.169
					c9.679,15.288,5.63,31.634,3.31,38.233c61.74-18.702,101.418-19.394,117.947-2.044c10.459,10.976,8.166,25.72,6.658,31.658
					c39.328-9.83,63.473-8.724,71.781,3.295c9.977,14.431-6.751,38.533-7.468,39.552
					C2822.074,1358.649,2821.616,1358.887,2821.128,1358.887z M2094.667,1355.887h725.662c2.521-3.83,14.997-23.959,7.022-35.486
					c-5.294-7.654-21.934-14.116-71.122-1.443c-0.54,0.14-1.108-0.033-1.483-0.443c-0.374-0.411-0.49-0.996-0.302-1.519
					c0.067-0.187,6.586-18.8-5.25-31.199c-10.971-11.491-40.324-20.165-117.864,3.774c-0.568,0.176-1.186-0.001-1.574-0.45
					c-0.39-0.449-0.478-1.085-0.225-1.623c0.096-0.203,9.403-20.455-1.958-38.364c-12.101-19.074-42.178-28.746-89.395-28.746
					c-62.988,0-134.794,26.731-183.94,49.155c-53.321,24.33-92.211,48.981-92.598,49.227c-0.416,0.266-0.937,0.307-1.39,0.116
					c-0.198-0.083-20.112-8.335-50.727-7.557C2181.944,1312.03,2139.898,1320.407,2094.667,1355.887z" class="color381f31 svgShape"></path><g><path fill="#f36301" d="M4478.555,1396.318c0,0,38.058-54.09-50.984-31.151c0,0,21.665-59.764-97.611-22.939
					c0,0,25.592-54.09-72.415-54.09c-95.669,0-216.631,77.029-216.631,77.029s-62.24-26.379-133.139,31.151L4478.555,1396.318
					L4478.555,1396.318z" class="colord6ecff svgShape"></path><path fill="#252617" d="M4478.555,1397.817h-570.779c-0.635,0-1.201-0.4-1.414-0.999
					c-0.212-0.599-0.024-1.266,0.469-1.666c36.953-29.985,71.55-36.934,94.065-37.484c21.773-0.534,36.459,4.517,39.865,5.822
					c4.645-2.9,33.531-20.662,71.971-38.204c38.637-17.632,95.125-38.65,144.814-38.65c37.875,0,62.132,7.979,72.097,23.717
					c7.35,11.609,4.667,23.988,2.824,29.54c48.009-14.467,78.899-14.914,91.849-1.325c7.979,8.375,6.588,19.506,5.41,24.504
					c30.561-7.571,49.354-6.619,55.891,2.837c7.921,11.458-5.27,30.465-5.835,31.269
					C4479.501,1397.58,4479.043,1397.817,4478.555,1397.817z M3912.077,1394.817h565.677c2.145-3.29,11.409-18.507,5.392-27.203
					c-4.076-5.891-16.963-10.846-55.2-0.996c-0.534,0.14-1.108-0.032-1.482-0.443s-0.49-0.996-0.303-1.519
					c0.052-0.144,5.072-14.502-4.033-24.035c-8.508-8.906-31.324-15.609-91.725,3.039c-0.567,0.175-1.184-0.002-1.574-0.45
					s-0.478-1.085-0.225-1.623c0.073-0.156,7.266-15.825-1.514-29.656c-9.391-14.793-32.788-22.294-69.544-22.294
					c-94.129,0-214.62,76.026-215.826,76.794c-0.417,0.266-0.936,0.307-1.39,0.116c-0.154-0.065-15.641-6.492-39.522-5.876
					C3979.478,1361.22,3947.035,1367.665,3912.077,1394.817z" class="color381f31 svgShape"></path></g><g><path fill="#f36301" d="M925.858,1227.113c0,0,38.058-54.09-50.984-31.151c0,0,21.665-59.763-97.611-22.939
					c0,0,25.593-54.09-72.414-54.09c-95.669,0-216.631,77.029-216.631,77.029s-62.239-26.379-133.139,31.151L925.858,1227.113
					L925.858,1227.113z" class="colord6ecff svgShape"></path><path fill="#252617" d="M925.857,1228.613H355.078c-0.635,0-1.201-0.4-1.414-0.999s-0.025-1.266,0.468-1.666
					c36.953-29.985,71.549-36.934,94.065-37.484c21.79-0.524,36.458,4.517,39.866,5.822c4.644-2.9,33.53-20.662,71.97-38.204
					c38.638-17.632,95.125-38.65,144.814-38.65c37.875,0,62.132,7.979,72.096,23.717c7.35,11.609,4.667,23.988,2.825,29.54
					c48.008-14.467,78.901-14.915,91.849-1.325c7.979,8.375,6.588,19.506,5.41,24.504c30.556-7.571,49.353-6.619,55.891,2.837
					c7.921,11.458-5.269,30.465-5.834,31.269C926.803,1228.375,926.346,1228.613,925.857,1228.613z M359.379,1225.613h565.677
					c2.145-3.29,11.409-18.507,5.392-27.203c-4.076-5.892-16.961-10.847-55.201-0.996c-0.539,0.139-1.109-0.033-1.482-0.443
					c-0.375-0.411-0.491-0.996-0.302-1.519c0.052-0.144,5.071-14.502-4.034-24.035c-8.507-8.906-31.325-15.608-91.725,3.039
					c-0.567,0.174-1.185-0.001-1.574-0.45c-0.39-0.448-0.478-1.085-0.225-1.623c0.073-0.157,7.266-15.825-1.514-29.656
					c-9.391-14.793-32.789-22.294-69.544-22.294c-94.128,0-214.62,76.026-215.826,76.794c-0.416,0.265-0.937,0.307-1.39,0.116
					c-0.154-0.065-15.673-6.506-39.521-5.875C426.78,1192.015,394.338,1198.46,359.379,1225.613z" class="color381f31 svgShape"></path></g><g><path fill="#f36301" d="M2423.409,341.847c0,0,38.058-54.09-50.984-31.151c0,0,21.665-59.763-97.611-22.939
					c0,0,25.593-54.09-72.414-54.09c-95.669,0-216.631,77.029-216.631,77.029s-62.239-26.379-133.139,31.151H2423.409z" class="colord6ecff svgShape"></path><path fill="#252617" d="M2423.409,343.347h-570.78c-0.635,0-1.201-0.4-1.414-0.999s-0.025-1.266,0.468-1.666
					c36.953-29.985,71.549-36.934,94.065-37.484c21.774-0.534,36.458,4.517,39.866,5.822c4.644-2.9,33.53-20.663,71.97-38.204
					c38.638-17.632,95.125-38.65,144.814-38.65c37.875,0,62.132,7.979,72.096,23.717c7.35,11.609,4.667,23.988,2.825,29.54
					c48.009-14.467,78.899-14.915,91.849-1.324c7.979,8.375,6.588,19.506,5.41,24.504c30.557-7.572,49.353-6.619,55.891,2.837
					c7.921,11.458-5.269,30.466-5.834,31.27C2424.355,343.109,2423.897,343.347,2423.409,343.347z M1856.931,340.347h565.677
					c2.145-3.29,11.409-18.507,5.392-27.204c-4.076-5.891-16.962-10.846-55.201-0.995c-0.539,0.138-1.108-0.033-1.482-0.443
					c-0.375-0.411-0.491-0.996-0.302-1.519c0.052-0.144,5.071-14.502-4.034-24.035c-8.507-8.906-31.327-15.608-91.725,3.039
					c-0.567,0.174-1.185-0.002-1.574-0.45c-0.39-0.448-0.478-1.085-0.225-1.623c0.074-0.156,7.266-15.825-1.514-29.656
					c-9.391-14.793-32.789-22.294-69.544-22.294c-94.128,0-214.62,76.026-215.826,76.794c-0.416,0.265-0.937,0.308-1.39,0.116
					c-0.154-0.065-15.655-6.499-39.522-5.875C1924.332,306.75,1891.889,313.195,1856.931,340.347z" class="color381f31 svgShape"></path></g><g><path fill="#636b73" d="M3703.855,2179.58c0,245.894-136.666,445.231-305.252,445.231s-305.252-199.337-305.252-445.231
					c0-1024.373,136.666-1384.336,305.252-1384.336S3703.855,1160.93,3703.855,2179.58z" class="color338780 svgShape"></path><path fill="#252617" d="M3398.604,2626.311c-41.491,0-81.732-11.847-119.605-35.212
					c-36.529-22.535-69.325-54.782-97.479-95.845c-57.824-84.34-89.669-196.448-89.669-315.674
					c0-480.145,30.096-842.392,89.452-1076.676c26.642-105.158,59.369-184.659,97.273-236.297
					c35.489-48.348,75.872-72.862,120.027-72.862c44.083,0,84.467,24.787,120.03,73.672c37.87,52.055,70.597,132.007,97.27,237.635
					c59.356,235.053,89.452,596.577,89.452,1074.529c0,119.226-31.845,231.334-89.669,315.674
					c-28.153,41.062-60.949,73.31-97.478,95.845C3480.336,2614.464,3440.095,2626.311,3398.604,2626.311z M3398.604,796.744
					c-43.147,0-82.717,24.102-117.609,71.638c-37.674,51.325-70.236,130.478-96.783,235.259
					c-59.295,234.044-89.36,596.042-89.36,1075.939c0,118.626,31.658,230.132,89.144,313.978
					c57.366,83.673,133.583,129.753,214.609,129.753s157.242-46.08,214.608-129.753c57.485-83.846,89.144-195.352,89.144-313.978
					c0-477.705-30.065-838.981-89.36-1073.794c-26.579-105.255-59.143-184.86-96.787-236.604
					C3481.241,821.116,3441.673,796.744,3398.604,796.744z" class="color381f31 svgShape"></path><path fill="#252617" d="M3398.604,3081.479c-0.828,0-1.5-0.672-1.5-1.5V1128.318c0-0.829,0.672-1.5,1.5-1.5
				s1.5,0.671,1.5,1.5v1951.661C3400.104,3080.808,3399.432,3081.479,3398.604,3081.479z" class="color381f31 svgShape"></path><g><path fill="#252617" d="M3398.604 1698.192c-.484 0-.96-.234-1.249-.668l-38.776-58.188c-.46-.689-.273-1.621.416-2.08.688-.459 1.62-.274 2.08.416l38.776 58.188c.46.689.273 1.621-.416 2.08C3399.18 1698.111 3398.891 1698.192 3398.604 1698.192zM3398.603 1817.86c-.278 0-.559-.077-.811-.238-.696-.448-.898-1.376-.45-2.073l114.32-177.856c.447-.698 1.375-.898 2.073-.451.696.448.898 1.376.45 2.073l-114.32 177.856C3399.579 1817.617 3399.096 1817.86 3398.603 1817.86z" class="color381f31 svgShape"></path><path fill="#252617" d="M3475.521 1698.193c-.644 0-1.238-.417-1.435-1.065-.24-.793.208-1.63 1.001-1.871l61.192-18.537c.788-.239 1.63.207 1.87 1 .24.793-.208 1.63-1.001 1.871l-61.192 18.537C3475.812 1698.172 3475.666 1698.193 3475.521 1698.193zM3398.603 1466.514c-.278 0-.56-.077-.811-.238-.696-.448-.898-1.376-.45-2.073l61.553-95.762c.448-.697 1.377-.898 2.073-.451s.898 1.376.45 2.073l-61.553 95.762C3399.579 1466.271 3399.096 1466.514 3398.603 1466.514z" class="color381f31 svgShape"></path><path fill="#252617" d="M3429.56 1418.633c-.623 0-1.206-.392-1.419-1.014-.269-.784.149-1.637.933-1.905l32.846-11.252c.784-.269 1.637.149 1.905.933s-.149 1.637-.933 1.905l-32.846 11.252C3429.885 1418.607 3429.721 1418.633 3429.56 1418.633zM3398.604 2138.625c-.455 0-.905-.206-1.2-.599l-144.987-192.786c-.497-.662-.364-1.602.298-2.1.659-.498 1.602-.366 2.101.297l144.987 192.786c.497.662.364 1.603-.298 2.101C3399.235 2138.527 3398.919 2138.625 3398.604 2138.625z" class="color381f31 svgShape"></path><path fill="#252617" d="M3315.158 2027.67c-.828 0-1.5-.672-1.5-1.5v-66.555c0-.829.672-1.5 1.5-1.5s1.5.671 1.5 1.5v66.555C3316.658 2026.998 3315.986 2027.67 3315.158 2027.67zM3398.603 2314.643c-.309 0-.62-.095-.888-.291-.667-.491-.811-1.43-.32-2.098l171.564-233.396c.49-.666 1.43-.811 2.098-.32.667.491.811 1.43.32 2.098l-171.564 233.396C3399.519 2314.431 3399.063 2314.643 3398.603 2314.643z" class="color381f31 svgShape"></path><path fill="#252617" d="M3515.602 2155.479c-.809 0-1.475-.644-1.498-1.457l-1.976-68.678c-.024-.828.628-1.519 1.456-1.542.801-.065 1.518.628 1.542 1.456l1.976 68.678c.024.828-.628 1.519-1.456 1.542C3515.631 2155.479 3515.616 2155.479 3515.602 2155.479zM3398.603 1989.762c-.355 0-.712-.126-.999-.381-.617-.552-.671-1.5-.118-2.118l85.782-95.987c.551-.616 1.499-.671 2.118-.119.617.552.671 1.5.118 2.118l-85.782 95.987C3399.426 1989.593 3399.016 1989.762 3398.603 1989.762z" class="color381f31 svgShape"></path><path fill="#252617" d="M3449.746 1932.535c-.828 0-1.5-.671-1.5-1.5v-38.759c0-.829.672-1.5 1.5-1.5s1.5.671 1.5 1.5v38.759C3451.246 1931.863 3450.574 1932.535 3449.746 1932.535zM3398.604 1234.969c-.416 0-.83-.172-1.127-.509l-35.181-39.946c-.547-.622-.487-1.569.135-2.117.623-.549 1.569-.487 2.117.134l35.181 39.946c.547.622.487 1.569-.135 2.117C3399.31 1234.846 3398.956 1234.969 3398.604 1234.969zM3398.604 1552.771c-.528 0-1.042-.281-1.315-.777l-83.445-151.558c-.399-.726-.135-1.638.591-2.038.724-.399 1.638-.136 2.038.59l83.445 151.558c.399.726.135 1.638-.591 2.038C3399.098 1552.711 3398.85 1552.771 3398.604 1552.771z" class="color381f31 svgShape"></path></g></g><g><path fill="#525938" d="M1365.815,2359.932c0,186.743-192.255,338.128-429.414,338.128s-429.413-151.385-429.413-338.128
					c0-777.955,192.255-894.317,429.413-894.317S1365.815,1586.324,1365.815,2359.932z" class="color49ada5 svgShape"></path><path fill="#252617" d="M936.401,2699.561c-115.036,0-223.2-35.286-304.569-99.357
					c-39.6-31.181-70.694-67.5-92.42-107.946c-22.51-41.907-33.924-86.427-33.924-132.324c0-359.894,41.213-601.844,125.995-739.678
					c36.649-59.582,81.514-100.689,137.157-125.67c46.302-20.787,99.609-30.469,167.762-30.469
					c67.909,0,121.219,9.877,167.769,31.083c55.587,25.323,100.449,66.763,137.152,126.688
					c84.78,138.425,125.993,379.841,125.993,738.045c0,45.897-11.414,90.417-33.924,132.324
					c-21.727,40.446-52.821,76.766-92.421,107.946C1159.602,2664.274,1051.437,2699.561,936.401,2699.561z M936.401,1467.116
					c-102.459,0-218.507,18.381-302.364,154.711c-84.482,137.347-125.55,378.783-125.55,738.105
					c0,89.848,44.463,174.34,125.2,237.914c80.842,63.656,188.348,98.714,302.713,98.714s221.871-35.058,302.713-98.714
					c80.737-63.574,125.201-148.066,125.201-237.914c0-357.635-41.068-598.539-125.552-736.479
					C1153.895,1484.886,1032.595,1467.116,936.401,1467.116z" class="color381f31 svgShape"></path><path fill="#252617" d="M936.401,3081.479c-0.828,0-1.5-0.672-1.5-1.5v-1365.5c0-0.829,0.672-1.5,1.5-1.5
				s1.5,0.671,1.5,1.5v1365.5C937.901,3080.808,937.229,3081.479,936.401,3081.479z" class="color381f31 svgShape"></path><g><path fill="#252617" d="M936.4,1883.199c-0.278,0-0.559-0.077-0.81-0.238c-0.697-0.448-0.899-1.376-0.451-2.073
					l91.118-141.758c0.448-0.696,1.376-0.899,2.073-0.451s0.899,1.376,0.451,2.073l-91.118,141.758
					C937.376,1882.956,936.894,1883.199,936.4,1883.199z" class="color381f31 svgShape"></path><path fill="#252617" d="M979.553 1816.065c-.644 0-1.239-.417-1.435-1.065-.24-.793.208-1.63 1-1.871l56.974-17.258c.794-.241 1.631.208 1.871 1 .24.793-.208 1.63-1 1.871L979.989 1816C979.844 1816.044 979.697 1816.065 979.553 1816.065zM936.402 2298.355c-.455 0-.905-.206-1.2-.599L747.55 2048.24c-.498-.662-.365-1.603.297-2.101.661-.498 1.602-.366 2.1.298L937.6 2295.954c.498.662.365 1.603-.297 2.101C937.033 2298.258 936.716 2298.355 936.402 2298.355z" class="color381f31 svgShape"></path><path fill="#252617" d="M828.401 2154.751c-.829 0-1.5-.672-1.5-1.5v-86.141c0-.828.671-1.5 1.5-1.5s1.5.672 1.5 1.5v86.141C829.901 2154.079 829.229 2154.751 828.401 2154.751zM936.4 2526.171c-.309 0-.62-.095-.887-.291-.668-.491-.811-1.43-.32-2.098l222.052-302.077c.491-.667 1.43-.811 2.097-.32.668.491.811 1.43.32 2.098L937.61 2525.56C937.316 2525.959 936.861 2526.171 936.4 2526.171z" class="color381f31 svgShape"></path><path fill="#252617" d="M1087.829 2320.169c-.808 0-1.475-.644-1.499-1.457l-2.557-88.887c-.024-.828.628-1.519 1.457-1.542.821-.043 1.519.628 1.542 1.456l2.557 88.887c.024.828-.628 1.519-1.457 1.542C1087.858 2320.169 1087.844 2320.169 1087.829 2320.169zM936.401 2105.688c-.356 0-.713-.126-.999-.382-.618-.552-.671-1.5-.119-2.118l111.026-124.233c.553-.618 1.501-.67 2.118-.119.618.552.671 1.5.119 2.118L937.52 2105.188C937.224 2105.519 936.813 2105.688 936.401 2105.688z" class="color381f31 svgShape"></path><path fill="#252617" d="M1002.595,2031.619c-0.829,0-1.5-0.672-1.5-1.5v-50.166c0-0.829,0.671-1.5,1.5-1.5
					s1.5,0.671,1.5,1.5v50.166C1004.095,2030.947,1003.423,2031.619,1002.595,2031.619z" class="color381f31 svgShape"></path></g></g><g><path fill="#636b73" d="M1754.935,2009.926c0,253.599-150.24,371.384-335.571,371.384s-335.571-117.786-335.571-371.384
					c0-1056.468,208.48-1565.146,335.571-1565.146C1561.803,444.78,1754.935,959.36,1754.935,2009.926z" class="color338780 svgShape"></path><path fill="#252617" d="M1419.364,2382.811c-96.782,0-179.202-31.479-238.349-91.036
					c-31.371-31.588-55.683-70.724-72.261-116.32c-17.558-48.293-26.461-103.985-26.461-165.528
					c0-249.038,11.631-481.327,34.57-690.415c20.32-185.217,49.122-349.644,85.605-488.714
					c32.094-122.335,69.976-222.886,109.55-290.784c36.885-63.283,74.004-96.733,107.345-96.733
					c36.815,0,76.173,33.734,113.816,97.556c39.734,67.365,77.369,168.401,108.837,292.185
					c52.196,205.322,114.417,576.173,114.417,1176.905c0,61.543-8.903,117.235-26.461,165.528
					c-16.578,45.597-40.89,84.732-72.261,116.32C1598.566,2351.331,1516.146,2382.811,1419.364,2382.811z M1419.364,446.28
					c-32.213,0-68.436,32.935-104.753,95.244c-39.44,67.666-77.214,167.958-109.24,290.034
					c-54.778,208.806-120.077,582.739-120.077,1178.368c0,272.716,172.571,369.885,334.071,369.885s334.07-97.169,334.07-369.885
					c0-600.421-62.17-971.009-114.324-1176.166c-31.399-123.512-68.922-224.276-108.514-291.4
					C1493.522,479.504,1455.059,446.28,1419.364,446.28z" class="color381f31 svgShape"></path><path fill="#252617" d="M1419.364,3081.479c-0.828,0-1.5-0.672-1.5-1.5V837.93c0-0.829,0.672-1.5,1.5-1.5
				s1.5,0.671,1.5,1.5v2242.049C1420.864,3080.808,1420.192,3081.479,1419.364,3081.479z" class="color381f31 svgShape"></path><g><path fill="#252617" d="M1419.365 1425.612c-.485 0-.96-.234-1.25-.668l-39.991-60.011c-.459-.689-.273-1.621.416-2.08.69-.46 1.621-.273 2.08.416l39.991 60.011c.459.689.273 1.621-.416 2.08C1419.94 1425.531 1419.651 1425.612 1419.365 1425.612zM1419.362 1549.029c-.278 0-.559-.077-.81-.238-.697-.448-.899-1.376-.451-2.073l117.903-183.428c.448-.696 1.376-.899 2.073-.451s.899 1.376.451 2.073l-117.903 183.428C1420.339 1548.786 1419.856 1549.029 1419.362 1549.029z" class="color381f31 svgShape"></path><path fill="#252617" d="M1498.693 1425.613c-.644 0-1.239-.417-1.435-1.065-.24-.793.208-1.63 1-1.871l63.11-19.117c.794-.239 1.63.208 1.871 1s-.208 1.63-1 1.871l-63.11 19.117C1498.983 1425.592 1498.837 1425.613 1498.693 1425.613zM1419.362 1186.675c-.278 0-.559-.077-.81-.238-.697-.448-.899-1.376-.451-2.073l63.482-98.762c.448-.696 1.376-.899 2.073-.451s.899 1.376.451 2.073l-63.482 98.762C1420.339 1186.432 1419.856 1186.675 1419.362 1186.675z" class="color381f31 svgShape"></path><path fill="#252617" d="M1451.291 1137.294c-.624 0-1.206-.392-1.419-1.014-.269-.784.149-1.637.933-1.905l33.875-11.604c.786-.267 1.637.149 1.905.933s-.149 1.637-.933 1.905l-33.875 11.604C1451.616 1137.268 1451.452 1137.294 1451.291 1137.294zM1419.365 1879.844c-.455 0-.905-.207-1.2-.599l-149.529-198.826c-.498-.662-.365-1.602.297-2.1.662-.498 1.602-.365 2.1.297l149.529 198.826c.498.662.365 1.602-.297 2.1C1419.995 1879.746 1419.679 1879.844 1419.365 1879.844z" class="color381f31 svgShape"></path><path fill="#252617" d="M1333.305 1765.413c-.829 0-1.5-.671-1.5-1.5v-68.64c0-.829.671-1.5 1.5-1.5s1.5.671 1.5 1.5v68.64C1334.805 1764.742 1334.133 1765.413 1333.305 1765.413zM1419.363 2061.377c-.309 0-.62-.095-.887-.291-.668-.491-.811-1.43-.32-2.098l176.94-240.708c.491-.667 1.43-.811 2.097-.32.668.491.811 1.429.32 2.097l-176.94 240.708C1420.278 2061.165 1419.824 2061.377 1419.363 2061.377z" class="color381f31 svgShape"></path><path fill="#252617" d="M1540.028 1897.226c-.808 0-1.475-.644-1.499-1.457l-2.037-70.829c-.024-.828.628-1.519 1.457-1.542.809-.034 1.519.628 1.542 1.457l2.037 70.829c.024.828-.628 1.519-1.457 1.542C1540.057 1897.226 1540.042 1897.226 1540.028 1897.226zM1419.363 1726.317c-.356 0-.713-.126-.999-.381-.618-.552-.671-1.5-.119-2.118l88.471-98.995c.553-.618 1.501-.669 2.118-.119.618.552.671 1.5.119 2.118l-88.471 98.995C1420.186 1726.148 1419.775 1726.317 1419.363 1726.317z" class="color381f31 svgShape"></path><path fill="#252617" d="M1472.11 1667.297c-.829 0-1.5-.671-1.5-1.5v-39.974c0-.829.671-1.5 1.5-1.5s1.5.671 1.5 1.5v39.974C1473.61 1666.625 1472.938 1667.297 1472.11 1667.297zM1419.364 947.875c-.416 0-.83-.172-1.126-.509l-36.283-41.197c-.548-.622-.488-1.569.134-2.117.622-.548 1.57-.487 2.117.134l36.283 41.197c.548.622.488 1.569-.134 2.117C1420.07 947.752 1419.716 947.875 1419.364 947.875zM1419.365 1275.634c-.529 0-1.042-.281-1.315-.777l-86.059-156.306c-.399-.726-.135-1.638.59-2.038.726-.4 1.637-.135 2.038.59l86.059 156.306c.399.726.135 1.638-.59 2.038C1419.858 1275.574 1419.61 1275.634 1419.365 1275.634z" class="color381f31 svgShape"></path></g></g><g><path fill="#929ca6" d="M413.889,3079.98h3958.667c0,0,362.933,571.628-455.556,571.628S3035.216,3625,2517.441,3697
				S413.889,4102.333,413.889,3079.98z" class="color77d4cc svgShape"></path><path fill="#252617" d="M4375.833 3081.479h-88.684c-.828 0-1.5-.672-1.5-1.5s.672-1.5 1.5-1.5h88.684c.828 0 1.5.672 1.5 1.5S4376.661 3081.479 4375.833 3081.479zM3741.026 3081.479H1948.111c-.829 0-1.5-.672-1.5-1.5s.671-1.5 1.5-1.5h1792.915c.828 0 1.5.672 1.5 1.5S3741.854 3081.479 3741.026 3081.479z" class="color381f31 svgShape"></path><path fill="#252617" d="M1948.111,3081.479H403.65c-0.828,0-1.5-0.672-1.5-1.5s0.672-1.5,1.5-1.5h1544.461
					c0.828,0,1.5,0.672,1.5,1.5S1948.939,3081.479,1948.111,3081.479z" class="color381f31 svgShape"></path></g><g><path fill="#525938" d="M772.449,3079.98H561.76c-62.885,0-113.863-50.978-113.863-113.863v-71.812
					c0-121.065,98.142-219.207,219.207-219.207s219.208,98.143,219.208,219.207v71.812
					C886.312,3029.002,835.333,3079.98,772.449,3079.98z" class="color49ada5 svgShape"></path><path fill="#252617" d="M772.449,3081.479H561.76c-63.611,0-115.363-51.752-115.363-115.363v-71.812
					c0-58.953,22.958-114.377,64.644-156.063c41.687-41.686,97.111-64.644,156.064-64.644s114.378,22.958,156.064,64.644
					c41.687,41.687,64.644,97.11,64.644,156.063v71.812C887.812,3029.728,836.06,3081.479,772.449,3081.479z M667.104,2676.598
					c-120.044,0-217.708,97.663-217.708,217.707v71.812c0,61.957,50.406,112.363,112.363,112.363h210.689
					c61.958,0,112.363-50.406,112.363-112.363v-71.812C884.812,2774.261,787.148,2676.598,667.104,2676.598z" class="color381f31 svgShape"></path><g><path fill="#636b73" d="M1124.039,3079.98H812.744c-92.913,0-168.234-75.321-168.234-168.234v-106.103
						c0-178.875,145.007-323.882,323.882-323.882c178.876,0,323.882,145.007,323.882,323.882v106.103
						C1292.273,3004.659,1216.952,3079.98,1124.039,3079.98z" class="color338780 svgShape"></path><path fill="#252617" d="M1124.039,3081.479H812.744c-93.592,0-169.734-76.143-169.734-169.734v-106.103
						c0-86.912,33.846-168.622,95.302-230.079c61.457-61.456,143.167-95.302,230.08-95.302s168.624,33.846,230.08,95.302
						c61.457,61.457,95.302,143.167,95.302,230.079v106.103C1293.773,3005.337,1217.631,3081.479,1124.039,3081.479z
						 M968.391,2483.262c-177.762,0-322.382,144.619-322.382,322.381v106.103c0,91.938,74.797,166.734,166.734,166.734h311.295
						c91.938,0,166.734-74.797,166.734-166.734v-106.103C1290.773,2627.881,1146.153,2483.262,968.391,2483.262z" class="color381f31 svgShape"></path><g><path fill="#252617" d="M968.392,3081.479c-0.829,0-1.5-0.672-1.5-1.5v-257.367c0-0.828,0.671-1.5,1.5-1.5
						s1.5,0.672,1.5,1.5v257.367C969.892,3080.808,969.22,3081.479,968.392,3081.479z" class="color381f31 svgShape"></path><path fill="#252617" d="M968.392 2900.608c-.409 0-.816-.166-1.112-.493l-47.156-52.053c-.556-.613-.509-1.562.104-2.118.615-.558 1.562-.511 2.119.104l47.156 52.053c.556.613.509 1.562-.105 2.118C969.111 2900.48 968.751 2900.608 968.392 2900.608zM968.392 2980.226c-.402 0-.802-.16-1.098-.478-.565-.605-.532-1.555.074-2.12l76.924-71.708c.606-.564 1.555-.531 2.12.075.565.605.532 1.555-.074 2.12l-76.924 71.708C969.125 2980.092 968.758 2980.226 968.392 2980.226z" class="color381f31 svgShape"></path><path fill="#252617" d="M936.401 2865.296c-.829 0-1.5-.672-1.5-1.5v-21.525c0-.828.671-1.5 1.5-1.5s1.5.672 1.5 1.5v21.525C937.901 2864.624 937.23 2865.296 936.401 2865.296zM1006.854 2944.371c-.829 0-1.5-.672-1.5-1.5v-35.854c0-.828.671-1.5 1.5-1.5s1.5.672 1.5 1.5v35.854C1008.354 2943.699 1007.682 2944.371 1006.854 2944.371zM968.391 3049.424c-.344 0-.69-.118-.973-.358l-67.835-57.819c-.63-.537-.706-1.484-.168-2.114.538-.632 1.484-.705 2.115-.169l67.835 57.819c.63.537.706 1.484.168 2.114C969.236 3049.245 968.815 3049.424 968.391 3049.424z" class="color381f31 svgShape"></path></g></g></g><g><path fill="#525938" d="M2876.649,3079.98h-151.952c-45.354,0-82.12-36.766-82.12-82.12v-51.792
					c0-87.314,70.782-158.096,158.096-158.096s158.096,70.782,158.096,158.096v51.792
					C2958.769,3043.214,2922.003,3079.98,2876.649,3079.98z" class="color49ada5 svgShape"></path><path fill="#252617" d="M2876.649,3081.479h-151.952c-46.108,0-83.62-37.512-83.62-83.619v-51.792
					c0-88.001,71.595-159.596,159.596-159.596c88.002,0,159.597,71.595,159.597,159.596v51.792
					C2960.27,3043.968,2922.758,3081.479,2876.649,3081.479z M2800.673,2789.473c-86.347,0-156.596,70.249-156.596,156.596v51.792
					c0,44.453,36.166,80.619,80.62,80.619h151.952c44.454,0,80.62-36.166,80.62-80.619v-51.792
					C2957.27,2859.722,2887.021,2789.473,2800.673,2789.473z" class="color381f31 svgShape"></path><g><path fill="#636b73" d="M3130.222,3079.98h-224.511c-67.01,0-121.333-54.323-121.333-121.333v-76.523
						c0-129.008,104.581-233.589,233.589-233.589s233.589,104.581,233.589,233.589v76.523
						C3251.555,3025.657,3197.232,3079.98,3130.222,3079.98z" class="color338780 svgShape"></path><path fill="#252617" d="M3130.222,3081.479h-224.511c-67.73,0-122.833-55.103-122.833-122.833v-76.522
						c0-62.795,24.453-121.831,68.855-166.233s103.438-68.855,166.232-68.855c62.795,0,121.831,24.453,166.233,68.855
						c44.403,44.402,68.856,103.438,68.856,166.233v76.522C3253.056,3026.377,3197.952,3081.479,3130.222,3081.479z
						 M3017.966,2650.035c-127.974,0-232.088,104.114-232.088,232.089v76.522c0,66.076,53.757,119.833,119.833,119.833h224.511
						c66.077,0,119.834-53.757,119.834-119.833v-76.522C3250.056,2754.149,3145.94,2650.035,3017.966,2650.035z" class="color381f31 svgShape"></path><g><path fill="#252617" d="M3017.967,3081.479c-0.828,0-1.5-0.672-1.5-1.5v-185.617c0-0.828,0.672-1.5,1.5-1.5
						s1.5,0.672,1.5,1.5v185.617C3019.467,3080.808,3018.795,3081.479,3017.967,3081.479z" class="color381f31 svgShape"></path><path fill="#252617" d="M3017.967 2951.032c-.408 0-.815-.166-1.111-.493l-34.01-37.541c-.557-.613-.51-1.562.104-2.118s1.562-.51 2.118.104l34.01 37.541c.557.613.51 1.562-.104 2.118C3018.687 2950.904 3018.326 2951.032 3017.967 2951.032zM3017.967 3008.453c-.401 0-.802-.16-1.098-.478-.564-.605-.531-1.555.075-2.12l55.479-51.717c.606-.562 1.555-.532 2.12.075.564.605.531 1.555-.075 2.12l-55.479 51.717C3018.7 3008.319 3018.333 3008.453 3017.967 3008.453z" class="color381f31 svgShape"></path><path fill="#252617" d="M2994.895 2925.564c-.828 0-1.5-.672-1.5-1.5v-15.524c0-.828.672-1.5 1.5-1.5s1.5.672 1.5 1.5v15.524C2996.395 2924.893 2995.723 2925.564 2994.895 2925.564zM3045.706 2982.595c-.828 0-1.5-.672-1.5-1.5v-25.858c0-.828.672-1.5 1.5-1.5s1.5.672 1.5 1.5v25.858C3047.206 2981.923 3046.534 2982.595 3045.706 2982.595zM3017.966 3058.36c-.344 0-.689-.118-.972-.358l-48.924-41.7c-.631-.537-.706-1.484-.169-2.114s1.484-.706 2.114-.169l48.924 41.7c.631.537.706 1.484.169 2.114C3018.812 3058.182 3018.391 3058.36 3017.966 3058.36z" class="color381f31 svgShape"></path></g></g></g><g><path fill="#525938" d="M3953.107,3253.636h-122.321c-36.51,0-66.106-29.597-66.106-66.106v-41.692
					c0-70.288,56.979-127.267,127.267-127.267s127.267,56.979,127.267,127.267v41.692
					C4019.213,3224.039,3989.616,3253.636,3953.107,3253.636z" class="color49ada5 svgShape"></path><path fill="#252617" d="M3953.106,3255.136h-122.321c-37.278,0-67.606-30.328-67.606-67.606v-41.692
					c0-71.002,57.765-128.767,128.768-128.767c71.002,0,128.767,57.765,128.767,128.767v41.692
					C4020.713,3224.808,3990.385,3255.136,3953.106,3255.136z M3891.946,3020.07c-69.349,0-125.768,56.419-125.768,125.767v41.692
					c0,35.624,28.982,64.606,64.606,64.606h122.321c35.624,0,64.606-28.982,64.606-64.606v-41.692
					C4017.713,3076.489,3961.294,3020.07,3891.946,3020.07z" class="color381f31 svgShape"></path><g><path fill="#636b73" d="M4157.232,3253.636h-180.731c-53.943,0-97.673-43.73-97.673-97.673v-61.601
						c0-103.851,84.188-188.038,188.038-188.038c103.851,0,188.039,84.188,188.039,188.038v61.601
						C4254.905,3209.906,4211.175,3253.636,4157.232,3253.636z" class="color338780 svgShape"></path><path fill="#252617" d="M4157.231,3255.136h-180.73c-54.685,0-99.173-44.489-99.173-99.173v-61.601
						c0-104.512,85.026-189.538,189.538-189.538s189.539,85.026,189.539,189.538v61.601
						C4256.405,3210.646,4211.916,3255.136,4157.231,3255.136z M4066.866,2907.824c-102.857,0-186.538,83.681-186.538,186.538
						v61.601c0,53.03,43.143,96.173,96.173,96.173h180.73c53.03,0,96.174-43.143,96.174-96.173v-61.601
						C4253.405,2991.505,4169.725,2907.824,4066.866,2907.824z" class="color381f31 svgShape"></path><g><path fill="#252617" d="M4066.866,3255.136c-0.828,0-1.5-0.672-1.5-1.5v-149.422c0-0.828,0.672-1.5,1.5-1.5
						s1.5,0.672,1.5,1.5v149.422C4068.366,3254.464,4067.694,3255.136,4066.866,3255.136z" class="color381f31 svgShape"></path><path fill="#252617" d="M4066.866 3150.126c-.408 0-.815-.166-1.111-.493l-27.377-30.221c-.557-.613-.51-1.562.104-2.118s1.562-.51 2.118.104l27.377 30.221c.557.613.51 1.562-.104 2.118C4067.586 3149.998 4067.226 3150.126 4066.866 3150.126zM4066.866 3196.35c-.401 0-.802-.16-1.098-.478-.564-.605-.531-1.555.075-2.12l44.661-41.632c.605-.562 1.554-.531 2.12.075.564.605.531 1.555-.075 2.12l-44.661 41.632C4067.6 3196.216 4067.232 3196.35 4066.866 3196.35z" class="color381f31 svgShape"></path><path fill="#252617" d="M4048.294 3129.625c-.828 0-1.5-.672-1.5-1.5v-12.498c0-.828.672-1.5 1.5-1.5s1.5.672 1.5 1.5v12.498C4049.794 3128.953 4049.122 3129.625 4048.294 3129.625zM4089.196 3175.534c-.828 0-1.5-.672-1.5-1.5v-20.816c0-.828.672-1.5 1.5-1.5s1.5.672 1.5 1.5v20.816C4090.696 3174.862 4090.024 3175.534 4089.196 3175.534zM4066.865 3236.525c-.344 0-.689-.118-.972-.358l-39.384-33.569c-.631-.537-.706-1.484-.169-2.114.538-.63 1.484-.706 2.114-.169l39.384 33.569c.631.537.706 1.484.169 2.114C4067.711 3236.347 4067.29 3236.525 4066.865 3236.525z" class="color381f31 svgShape"></path></g></g></g><g><path fill="#929ca6" d="M798.744,3083.635l6.033-39.699c0.938-6.171-6.699-9.809-10.9-5.192l-34.459,37.872
					l-15.579-38.331c-2.163-5.321-9.733-5.217-11.748,0.162l-14.299,38.169l-30.249-36.069c-4.096-4.884-12.025-1.302-11.067,5
					l5.789,38.088H798.744z" class="color77d4cc svgShape"></path><path fill="#252617" d="M798.746,3085.135c-0.075,0-0.151-0.006-0.228-0.017c-0.819-0.125-1.382-0.89-1.257-1.709
					l6.033-39.699c0.395-2.601-1.128-4.319-2.686-5.062c-1.556-0.741-3.851-0.84-5.622,1.105l-34.459,37.872
					c-0.346,0.381-0.866,0.557-1.372,0.467c-0.507-0.09-0.933-0.435-1.127-0.912l-15.58-38.331
					c-0.899-2.212-2.877-2.996-4.454-2.996c-0.022,0-0.044,0-0.065,0c-1.587,0.021-3.585,0.854-4.435,3.12l-14.299,38.169
					c-0.188,0.499-0.625,0.862-1.151,0.952c-0.526,0.092-1.06-0.106-1.403-0.515l-30.249-36.069
					c-1.727-2.059-4.057-2.018-5.662-1.291c-1.605,0.725-3.176,2.446-2.773,5.102l5.789,38.088c0.125,0.819-0.438,1.584-1.257,1.709
					c-0.817,0.121-1.584-0.438-1.708-1.258l-5.789-38.088c-0.54-3.555,1.228-6.807,4.504-8.287c3.275-1.48,6.886-0.658,9.196,2.098
					l28.596,34.1l13.397-35.762c1.154-3.08,3.914-5.021,7.203-5.067c3.268-0.015,6.102,1.818,7.34,4.867l14.683,36.125
					l32.856-36.111c2.369-2.604,5.954-3.308,9.131-1.794c3.178,1.514,4.89,4.74,4.361,8.221l-6.033,39.699
					C800.114,3084.603,799.475,3085.135,798.746,3085.135z" class="color381f31 svgShape"></path><path fill="#929ca6" d="M1477.482,3083.635l6.033-39.699c0.938-6.171-6.699-9.809-10.9-5.192l-34.459,37.872
					l-15.579-38.331c-2.163-5.321-9.733-5.217-11.748,0.162l-14.299,38.169l-30.249-36.069c-4.096-4.884-12.025-1.302-11.067,5
					l5.789,38.088H1477.482z" class="color77d4cc svgShape"></path><path fill="#252617" d="M1477.484,3085.135c-0.075,0-0.151-0.006-0.228-0.017c-0.819-0.125-1.382-0.89-1.257-1.709
					l6.033-39.699c0.395-2.601-1.128-4.319-2.686-5.062c-1.556-0.741-3.852-0.84-5.622,1.105l-34.459,37.872
					c-0.347,0.381-0.868,0.557-1.372,0.467c-0.507-0.09-0.933-0.435-1.127-0.912l-15.58-38.331
					c-0.911-2.242-2.961-2.997-4.519-2.996c-1.587,0.021-3.586,0.853-4.435,3.12l-14.299,38.169
					c-0.188,0.499-0.625,0.862-1.151,0.952c-0.527,0.092-1.06-0.106-1.403-0.515l-30.249-36.069
					c-1.726-2.059-4.057-2.018-5.662-1.291c-1.605,0.725-3.177,2.446-2.773,5.102l5.79,38.088c0.125,0.819-0.438,1.584-1.257,1.709
					c-0.817,0.121-1.584-0.438-1.708-1.258l-5.79-38.088c-0.54-3.555,1.228-6.807,4.504-8.287c3.276-1.48,6.886-0.658,9.196,2.098
					l28.596,34.1l13.397-35.762c1.154-3.08,3.914-5.021,7.203-5.067c3.297,0.002,6.102,1.819,7.34,4.867l14.683,36.125
					l32.856-36.111c2.369-2.604,5.954-3.308,9.131-1.794c3.178,1.514,4.89,4.74,4.361,8.221l-6.033,39.699
					C1478.852,3084.603,1478.212,3085.135,1477.484,3085.135z" class="color381f31 svgShape"></path><path fill="#929ca6" d="M2836.036,3083.635l6.033-39.699c0.938-6.171-6.699-9.809-10.9-5.192l-34.459,37.872
					l-15.58-38.331c-2.163-5.321-9.733-5.217-11.748,0.162l-14.299,38.169l-30.249-36.069c-4.096-4.884-12.025-1.302-11.067,5
					l5.789,38.088H2836.036z" class="color77d4cc svgShape"></path><path fill="#252617" d="M2836.038,3085.135c-0.075,0-0.151-0.006-0.228-0.017c-0.818-0.125-1.382-0.89-1.258-1.709
					l6.032-39.699c0.396-2.601-1.127-4.319-2.685-5.062s-3.853-0.841-5.622,1.105l-34.459,37.872
					c-0.347,0.381-0.863,0.557-1.372,0.467c-0.508-0.09-0.933-0.435-1.127-0.912l-15.58-38.331c-0.91-2.242-2.925-2.974-4.519-2.996
					c-1.588,0.021-3.586,0.853-4.436,3.12l-14.299,38.169c-0.187,0.499-0.625,0.862-1.151,0.952
					c-0.522,0.092-1.059-0.106-1.402-0.515l-30.249-36.069c-1.726-2.058-4.056-2.018-5.661-1.291
					c-1.605,0.725-3.177,2.446-2.772,5.102l5.789,38.088c0.124,0.819-0.439,1.584-1.258,1.709c-0.813,0.115-1.584-0.438-1.709-1.258
					l-5.789-38.088c-0.54-3.554,1.228-6.807,4.504-8.287c3.277-1.479,6.886-0.656,9.195,2.098l28.597,34.1l13.397-35.762
					c1.153-3.08,3.913-5.021,7.202-5.067c0.039,0,0.079-0.001,0.117-0.001c3.239,0,5.999,1.856,7.223,4.868l14.684,36.125
					l32.856-36.111c2.368-2.604,5.954-3.308,9.131-1.794c3.179,1.514,4.891,4.74,4.361,8.221l-6.032,39.699
					C2837.406,3084.603,2836.767,3085.135,2836.038,3085.135z" class="color381f31 svgShape"></path><path fill="#929ca6" d="M3456.721,3083.635l6.033-39.699c0.938-6.171-6.699-9.809-10.9-5.192l-34.459,37.872
					l-15.579-38.331c-2.163-5.321-9.733-5.217-11.748,0.162l-14.299,38.169l-30.249-36.069c-4.096-4.884-12.025-1.302-11.067,5
					l5.789,38.088H3456.721z" class="color77d4cc svgShape"></path><path fill="#252617" d="M3456.724,3085.135c-0.075,0-0.151-0.006-0.228-0.017c-0.818-0.125-1.382-0.89-1.258-1.709
					l6.032-39.699c0.396-2.601-1.127-4.319-2.685-5.062c-1.557-0.742-3.853-0.841-5.622,1.105l-34.459,37.872
					c-0.347,0.381-0.863,0.557-1.372,0.467c-0.508-0.09-0.933-0.435-1.127-0.912l-15.58-38.331c-0.91-2.242-2.904-2.974-4.519-2.996
					c-1.588,0.021-3.586,0.853-4.436,3.12l-14.299,38.169c-0.187,0.499-0.625,0.862-1.151,0.952
					c-0.524,0.092-1.06-0.106-1.402-0.515l-30.249-36.069c-1.727-2.06-4.058-2.018-5.661-1.292
					c-1.605,0.726-3.177,2.447-2.773,5.103l5.79,38.088c0.124,0.819-0.438,1.584-1.258,1.709c-0.815,0.115-1.584-0.438-1.709-1.258
					l-5.79-38.088c-0.539-3.555,1.229-6.808,4.505-8.287c3.277-1.479,6.886-0.656,9.195,2.098l28.597,34.1l13.397-35.762
					c1.153-3.08,3.913-5.021,7.202-5.067c0.039,0,0.079-0.001,0.117-0.001c3.239,0,5.999,1.856,7.223,4.868l14.684,36.125
					l32.856-36.111c2.368-2.604,5.955-3.308,9.131-1.794c3.179,1.514,4.891,4.74,4.361,8.221l-6.032,39.699
					C3458.092,3084.603,3457.452,3085.135,3456.724,3085.135z" class="color381f31 svgShape"></path><path fill="#929ca6" d="M1852.73,3242.979l6.033-39.699c0.938-6.171-6.699-9.809-10.9-5.192l-34.459,37.872
					l-15.579-38.331c-2.163-5.321-9.733-5.217-11.748,0.162l-14.299,38.169l-30.249-36.069c-4.096-4.884-12.025-1.302-11.067,5
					l5.789,38.088H1852.73z" class="color77d4cc svgShape"></path><path fill="#252617" d="M1852.732,3244.479c-0.075,0-0.151-0.006-0.228-0.017c-0.819-0.125-1.382-0.89-1.257-1.709
					l6.033-39.698c0.395-2.601-1.128-4.319-2.685-5.062s-3.852-0.842-5.623,1.104l-34.459,37.872
					c-0.346,0.381-0.867,0.556-1.372,0.467c-0.507-0.09-0.933-0.435-1.127-0.912l-15.58-38.33c-0.911-2.242-2.948-2.999-4.519-2.996
					c-1.587,0.021-3.586,0.853-4.435,3.12l-14.298,38.168c-0.188,0.499-0.625,0.862-1.151,0.952
					c-0.525,0.092-1.061-0.106-1.403-0.515l-30.249-36.069c-1.726-2.059-4.057-2.018-5.661-1.291
					c-1.605,0.725-3.177,2.446-2.774,5.103l5.79,38.087c0.125,0.819-0.438,1.584-1.257,1.709c-0.816,0.113-1.584-0.439-1.708-1.258
					l-5.79-38.087c-0.54-3.555,1.228-6.808,4.504-8.288c3.275-1.48,6.884-0.658,9.195,2.098l28.597,34.1l13.396-35.761
					c1.154-3.08,3.914-5.021,7.203-5.067c3.326-0.039,6.102,1.819,7.34,4.867l14.683,36.124l32.856-36.111
					c2.369-2.602,5.954-3.308,9.132-1.793c3.178,1.514,4.889,4.74,4.36,8.221l-6.033,39.698
					C1854.1,3243.946,1853.461,3244.479,1852.732,3244.479z" class="color381f31 svgShape"></path><path fill="#929ca6" d="M1327.953,3349.889l6.033-39.699c0.938-6.171-6.699-9.809-10.9-5.192l-34.459,37.872
					l-15.579-38.331c-2.163-5.321-9.733-5.217-11.748,0.162l-14.3,38.17l-30.249-36.069c-4.096-4.884-12.025-1.302-11.067,5
					l5.789,38.087H1327.953z" class="color77d4cc svgShape"></path><path fill="#252617" d="M1327.955,3351.39c-0.075,0-0.151-0.006-0.228-0.017c-0.819-0.125-1.382-0.89-1.257-1.709
					l6.033-39.699c0.396-2.601-1.128-4.319-2.685-5.062c-1.556-0.742-3.851-0.841-5.622,1.105l-34.459,37.872
					c-0.346,0.381-0.866,0.557-1.372,0.467c-0.507-0.09-0.933-0.435-1.127-0.912l-15.58-38.331
					c-0.911-2.242-2.931-3.017-4.519-2.996c-1.587,0.021-3.585,0.854-4.435,3.12l-14.299,38.169
					c-0.188,0.499-0.625,0.862-1.151,0.952c-0.524,0.093-1.061-0.106-1.403-0.515l-30.249-36.069
					c-1.726-2.06-4.057-2.016-5.662-1.292c-1.605,0.726-3.177,2.446-2.773,5.103l5.789,38.088c0.125,0.819-0.438,1.584-1.257,1.709
					c-0.821,0.119-1.584-0.438-1.708-1.258l-5.789-38.088c-0.541-3.555,1.228-6.808,4.504-8.287
					c3.275-1.482,6.885-0.658,9.196,2.098l28.596,34.1l13.397-35.762c1.154-3.08,3.914-5.021,7.203-5.067
					c0.039,0,0.078-0.001,0.117-0.001c3.239,0,5.999,1.856,7.223,4.868l14.683,36.125l32.857-36.111
					c2.369-2.604,5.955-3.308,9.131-1.794c3.178,1.514,4.89,4.74,4.361,8.221l-6.033,39.699
					C1329.323,3350.857,1328.684,3351.39,1327.955,3351.39z" class="color381f31 svgShape"></path><g><path fill="#929ca6" d="M862.974,3573.096l6.033-39.699c0.938-6.171-6.699-9.809-10.9-5.192l-34.459,37.872
					l-15.579-38.331c-2.163-5.321-9.733-5.217-11.748,0.162l-14.299,38.168l-30.249-36.069c-4.096-4.884-12.025-1.302-11.067,5
					l5.789,38.087L862.974,3573.096z" class="color77d4cc svgShape"></path><path fill="#252617" d="M862.977,3574.596c-0.075,0-0.151-0.006-0.228-0.017c-0.819-0.125-1.382-0.89-1.257-1.709
					l6.033-39.698c0.395-2.601-1.128-4.32-2.686-5.062c-1.557-0.741-3.852-0.841-5.622,1.104l-34.459,37.873
					c-0.347,0.381-0.866,0.558-1.372,0.467c-0.507-0.09-0.933-0.435-1.127-0.912l-15.58-38.331
					c-0.912-2.242-2.941-2.986-4.519-2.996c-1.587,0.021-3.586,0.853-4.435,3.12l-14.299,38.169
					c-0.188,0.499-0.625,0.862-1.151,0.952s-1.06-0.106-1.403-0.515l-30.249-36.069c-1.726-2.059-4.057-2.02-5.661-1.292
					c-1.605,0.726-3.177,2.446-2.774,5.103l5.79,38.087c0.125,0.819-0.438,1.584-1.257,1.709c-0.816,0.114-1.584-0.439-1.708-1.258
					l-5.79-38.087c-0.54-3.555,1.228-6.808,4.505-8.288c3.276-1.479,6.886-0.656,9.195,2.099l28.596,34.1l13.397-35.762
					c1.154-3.08,3.914-5.021,7.203-5.067c3.323-0.016,6.102,1.819,7.34,4.867l14.683,36.125l32.856-36.112
					c2.369-2.603,5.955-3.306,9.131-1.794c3.178,1.515,4.89,4.741,4.361,8.222l-6.033,39.698
					C864.345,3574.063,863.706,3574.596,862.977,3574.596z" class="color381f31 svgShape"></path></g><g><path fill="#929ca6" d="M614.159,3278.277l6.033-39.699c0.938-6.171-6.699-9.809-10.9-5.192l-34.459,37.872
					l-15.579-38.331c-2.163-5.321-9.733-5.217-11.748,0.162l-14.299,38.169l-30.249-36.069c-4.096-4.884-12.025-1.302-11.067,5
					l5.789,38.088H614.159z" class="color77d4cc svgShape"></path><path fill="#252617" d="M614.161,3279.776c-0.075,0-0.151-0.006-0.228-0.017c-0.819-0.125-1.382-0.89-1.257-1.709
					l6.033-39.698c0.395-2.601-1.128-4.32-2.686-5.062c-1.557-0.742-3.852-0.842-5.622,1.104l-34.459,37.872
					c-0.347,0.382-0.866,0.556-1.372,0.467c-0.507-0.09-0.933-0.435-1.127-0.912l-15.579-38.33c-0.912-2.242-2.976-3.011-4.52-2.996
					c-1.587,0.021-3.585,0.854-4.435,3.12l-14.299,38.168c-0.188,0.499-0.625,0.862-1.151,0.952
					c-0.526,0.093-1.06-0.106-1.403-0.515l-30.249-36.069c-1.727-2.06-4.057-2.018-5.662-1.291
					c-1.605,0.725-3.177,2.446-2.773,5.103l5.789,38.087c0.125,0.819-0.438,1.584-1.257,1.709c-0.817,0.117-1.584-0.438-1.708-1.258
					l-5.789-38.087c-0.541-3.555,1.228-6.808,4.503-8.288c3.277-1.479,6.886-0.658,9.196,2.098l28.596,34.1l13.397-35.761
					c1.154-3.08,3.914-5.021,7.203-5.067c0.039,0,0.079-0.001,0.118-0.001c3.238,0,5.999,1.856,7.223,4.868l14.683,36.124
					l32.857-36.111c2.369-2.602,5.954-3.305,9.131-1.794c3.178,1.515,4.89,4.741,4.361,8.222l-6.033,39.698
					C615.529,3279.244,614.89,3279.776,614.161,3279.776z" class="color381f31 svgShape"></path></g><g><path fill="#929ca6" d="M2887.18,3478.983l6.033-39.699c0.938-6.171-6.699-9.808-10.9-5.192l-34.459,37.872
					l-15.579-38.331c-2.163-5.321-9.733-5.217-11.749,0.162l-14.299,38.169l-30.249-36.069c-4.096-4.884-12.025-1.302-11.067,5
					l5.789,38.087L2887.18,3478.983z" class="color77d4cc svgShape"></path><path fill="#252617" d="M2887.182,3480.483c-0.075,0-0.151-0.006-0.228-0.017c-0.818-0.125-1.382-0.89-1.258-1.709
					l6.033-39.699c0.396-2.601-1.128-4.32-2.685-5.062c-1.559-0.744-3.854-0.84-5.622,1.105l-34.46,37.872
					c-0.347,0.381-0.863,0.558-1.372,0.467c-0.508-0.09-0.933-0.435-1.127-0.912l-15.579-38.331
					c-0.899-2.212-2.877-2.996-4.454-2.996c-0.021,0-0.044,0-0.065,0c-1.587,0.022-3.585,0.854-4.435,3.12l-14.299,38.169
					c-0.187,0.499-0.625,0.862-1.151,0.952c-0.522,0.094-1.06-0.106-1.402-0.515l-30.249-36.069
					c-1.727-2.06-4.057-2.017-5.662-1.291c-1.605,0.725-3.177,2.446-2.772,5.102l5.789,38.088c0.124,0.819-0.439,1.584-1.258,1.709
					c-0.812,0.119-1.584-0.438-1.709-1.258l-5.789-38.088c-0.54-3.554,1.228-6.807,4.504-8.287c3.277-1.479,6.886-0.658,9.196,2.098
					l28.597,34.1l13.397-35.762c1.153-3.08,3.913-5.021,7.201-5.067c0.039,0,0.079-0.001,0.118-0.001
					c3.238,0,5.999,1.856,7.223,4.868l14.683,36.125l32.857-36.111c2.368-2.604,5.953-3.306,9.13-1.795
					c3.179,1.514,4.891,4.741,4.362,8.222l-6.033,39.699C2888.55,3479.951,2887.91,3480.483,2887.182,3480.483z" class="color381f31 svgShape"></path></g><g><path fill="#929ca6" d="M2106.541,3478.983l6.033-39.699c0.938-6.171-6.699-9.808-10.9-5.192l-34.459,37.872
					l-15.579-38.331c-2.163-5.321-9.733-5.217-11.748,0.162l-14.299,38.169l-30.249-36.069c-4.096-4.884-12.025-1.302-11.067,5
					l5.789,38.087L2106.541,3478.983z" class="color77d4cc svgShape"></path><path fill="#252617" d="M2106.542,3480.483c-0.075,0-0.151-0.006-0.228-0.017c-0.819-0.125-1.382-0.89-1.257-1.709
					l6.033-39.699c0.395-2.601-1.128-4.319-2.686-5.062c-1.555-0.741-3.851-0.84-5.622,1.105l-34.459,37.872
					c-0.347,0.381-0.866,0.556-1.372,0.467c-0.507-0.09-0.933-0.435-1.127-0.912l-15.579-38.331c-0.912-2.242-2.945-3-4.52-2.996
					c-1.587,0.021-3.585,0.854-4.435,3.12l-14.299,38.169c-0.188,0.499-0.625,0.862-1.151,0.952
					c-0.526,0.094-1.06-0.106-1.403-0.515l-30.249-36.069c-1.726-2.06-4.056-2.019-5.663-1.291
					c-1.605,0.725-3.176,2.446-2.772,5.102l5.789,38.088c0.125,0.819-0.438,1.584-1.257,1.709c-0.819,0.115-1.584-0.439-1.708-1.258
					l-5.789-38.088c-0.541-3.554,1.228-6.807,4.503-8.287c3.275-1.479,6.886-0.657,9.196,2.098l28.596,34.1l13.397-35.762
					c1.154-3.08,3.914-5.021,7.203-5.067c0.039,0,0.079-0.001,0.118-0.001c3.238,0,5.999,1.856,7.223,4.868l14.683,36.125
					l32.857-36.111c2.37-2.604,5.955-3.308,9.131-1.794c3.178,1.514,4.89,4.74,4.361,8.221l-6.033,39.699
					C2107.911,3479.951,2107.271,3480.483,2106.542,3480.483z" class="color381f31 svgShape"></path></g><g><path fill="#929ca6" d="M4394.32,3454.343l6.033-39.699c0.938-6.171-6.699-9.808-10.9-5.192l-34.459,37.872
					l-15.58-38.331c-2.163-5.321-9.733-5.217-11.748,0.162l-14.299,38.169l-30.249-36.069c-4.096-4.884-12.025-1.302-11.067,5
					l5.789,38.087L4394.32,3454.343z" class="color77d4cc svgShape"></path><path fill="#252617" d="M4394.322,3455.843c-0.075,0-0.151-0.006-0.228-0.017c-0.818-0.125-1.382-0.89-1.258-1.709
					l6.033-39.699c0.396-2.601-1.128-4.319-2.685-5.062s-3.852-0.841-5.623,1.105l-34.459,37.872
					c-0.348,0.381-0.86,0.555-1.372,0.467c-0.508-0.09-0.933-0.435-1.127-0.912l-15.579-38.331
					c-0.899-2.212-2.878-2.996-4.454-2.996c-0.022,0-0.044,0-0.065,0c-1.587,0.021-3.586,0.853-4.436,3.12l-14.299,38.169
					c-0.187,0.499-0.625,0.862-1.151,0.952c-0.524,0.093-1.06-0.106-1.402-0.515l-30.248-36.069
					c-1.727-2.06-4.055-2.016-5.662-1.291c-1.605,0.725-3.177,2.446-2.772,5.102l5.789,38.088c0.124,0.819-0.439,1.584-1.258,1.709
					c-0.817,0.116-1.584-0.438-1.709-1.258l-5.789-38.088c-0.54-3.554,1.228-6.807,4.504-8.287c3.278-1.479,6.886-0.658,9.196,2.098
					l28.596,34.1l13.397-35.762c1.154-3.08,3.914-5.021,7.203-5.067c0.039,0,0.078-0.001,0.117-0.001
					c3.238,0,5.999,1.856,7.223,4.868l14.683,36.125l32.856-36.111c2.37-2.604,5.955-3.309,9.132-1.794
					c3.178,1.514,4.89,4.74,4.361,8.221l-6.033,39.699C4395.69,3455.311,4395.051,3455.843,4394.322,3455.843z" class="color381f31 svgShape"></path></g></g><g><path fill="#525938" d="M1705.418,3079.98h-112.496c-33.577,0-60.796-27.219-60.796-60.796v-38.343
					c0-64.642,52.402-117.044,117.044-117.044s117.044,52.402,117.044,117.044v38.343
					C1766.214,3052.76,1738.995,3079.98,1705.418,3079.98z" class="color49ada5 svgShape"></path><path fill="#252617" d="M1705.417,3081.479h-112.496c-34.351,0-62.296-27.946-62.296-62.296v-38.344
					c0-65.365,53.179-118.544,118.544-118.544c65.366,0,118.544,53.179,118.544,118.544v38.344
					C1767.714,3053.533,1739.768,3081.479,1705.417,3081.479z M1649.169,2865.296c-63.711,0-115.544,51.833-115.544,115.544v38.344
					c0,32.696,26.6,59.296,59.296,59.296h112.496c32.696,0,59.296-26.6,59.296-59.296v-38.344
					C1764.714,2917.129,1712.881,2865.296,1649.169,2865.296z" class="color381f31 svgShape"></path><g><path fill="#636b73" d="M1801.695,3079.98h-70.963c-21.181,0-38.351-17.17-38.351-38.351v-24.187
					c0-40.776,33.056-73.832,73.832-73.832s73.832,33.056,73.832,73.832v24.187C1840.046,3062.81,1822.876,3079.98,1801.695,3079.98
					z" class="color338780 svgShape"></path><path fill="#252617" d="M1801.695,3081.479h-70.963c-21.974,0-39.851-17.877-39.851-39.851v-24.187
					c0-41.538,33.794-75.332,75.332-75.332s75.332,33.794,75.332,75.332v24.187
					C1841.546,3063.603,1823.669,3081.479,1801.695,3081.479z M1766.214,2945.11c-39.884,0-72.332,32.448-72.332,72.332v24.187
					c0,20.319,16.531,36.851,36.851,36.851h70.963c20.319,0,36.851-16.531,36.851-36.851v-24.187
					C1838.546,2977.559,1806.098,2945.11,1766.214,2945.11z" class="color381f31 svgShape"></path></g></g><g><path fill="#252617" d="M2015.415 643.469c-.397 0-.784-.158-1.07-.449-28.47-28.974-73.315-14.131-73.765-13.978-.786.267-1.637-.151-1.904-.935s.15-1.636.934-1.904c.46-.156 45.348-15.052 75.191 13.066 3.246-8.01 16.974-34.455 57.941-38.96.825-.091 1.564.504 1.655 1.327.09.824-.504 1.564-1.327 1.655-46.159 5.077-56.116 38.743-56.211 39.083-.145.516-.553.915-1.071 1.048C2015.665 643.454 2015.54 643.469 2015.415 643.469zM1967.358 738.868c-.397 0-.784-.158-1.07-.449-19.166-19.505-49.423-9.502-49.726-9.399-.782.268-1.636-.15-1.904-.935-.267-.784.151-1.636.934-1.904.312-.107 30.65-10.169 51.172 8.534 2.684-6.189 12.454-23.204 39.571-26.187.823-.088 1.564.504 1.655 1.327.09.824-.504 1.564-1.327 1.655-31.109 3.421-37.798 26.034-37.862 26.262-.145.516-.553.915-1.071 1.048C1967.608 738.852 1967.483 738.868 1967.358 738.868zM2094.968 796.743c-.397 0-.783-.157-1.068-.447-14.321-14.574-36.979-7.092-37.206-7.014-.782.266-1.636-.152-1.903-.936-.268-.784.15-1.635.934-1.903.965-.33 23.029-7.642 38.643 6.164 2.267-5.111 9.735-17.292 30.023-19.524.822-.086 1.564.504 1.655 1.327.09.824-.504 1.564-1.327 1.655-23.175 2.549-28.107 18.894-28.306 19.589-.147.513-.556.912-1.073 1.043C2095.217 796.727 2095.092 796.743 2094.968 796.743zM2562.894 588.036c-.397 0-.784-.157-1.069-.448-19.193-19.534-49.423-9.503-49.725-9.399-.786.267-1.637-.15-1.904-.934-.269-.784.149-1.637.934-1.905.312-.106 30.65-10.169 51.173 8.534 2.684-6.189 12.454-23.204 39.571-26.187.82-.09 1.564.504 1.655 1.327.091.824-.504 1.564-1.327 1.655-31.014 3.411-37.598 25.333-37.863 26.265-.146.514-.555.913-1.072 1.044C2563.143 588.02 2563.018 588.036 2562.894 588.036zM2683.396 849.764c-.397 0-.784-.157-1.069-.447-14.319-14.572-36.978-7.093-37.204-7.014-.784.266-1.637-.152-1.903-.936-.268-.784.15-1.635.934-1.903.964-.33 23.028-7.642 38.642 6.164 2.267-5.111 9.735-17.292 30.024-19.523.822-.088 1.564.504 1.655 1.327.091.824-.504 1.564-1.327 1.655-23.176 2.549-28.108 18.894-28.307 19.588-.146.513-.556.912-1.073 1.043C2683.644 849.749 2683.519 849.764 2683.396 849.764z" class="color381f31 svgShape"></path></g><g><path fill="#525938" d="M2513.76,2571.144c0,117.142-110.938,212.105-247.788,212.105
						c-136.849,0-247.788-94.963-247.788-212.105c0-488.005,110.938-659.489,247.788-659.489
						C2402.822,1911.655,2513.76,2085.866,2513.76,2571.144z" class="color49ada5 svgShape"></path><path fill="#252617" d="M2265.973,2784.749c-66.544,0-129.116-22.19-176.188-62.484
						c-47.139-40.351-73.1-94.02-73.1-151.12c0-228.885,24.459-401.598,72.698-513.341c21.686-50.235,48.333-88.22,79.203-112.901
						c28.839-23.057,61.604-34.748,97.387-34.748c35.724,0,68.491,11.821,97.392,35.135c30.841,24.88,57.487,63.079,79.198,113.537
						c48.239,112.109,72.698,284.478,72.698,512.317c0,57.101-25.961,110.77-73.1,151.12
						C2395.088,2762.559,2332.517,2784.749,2265.973,2784.749z M2265.973,1913.155c-73.573,0-132.06,49.067-173.835,145.837
						c-48.076,111.366-72.453,283.679-72.453,512.152c0,116.128,110.484,210.604,246.288,210.604s246.288-94.477,246.288-210.604
						c0-227.43-24.377-399.399-72.454-511.132C2397.877,1962.565,2339.391,1913.155,2265.973,1913.155z" class="color381f31 svgShape"></path><path fill="#252617" d="M2265.973,3081.479c-0.829,0-1.5-0.672-1.5-1.5v-961.904c0-0.828,0.671-1.5,1.5-1.5
					s1.5,0.672,1.5,1.5v961.904C2267.473,3080.808,2266.801,3081.479,2265.973,3081.479z" class="color381f31 svgShape"></path><g><path fill="#252617" d="M2265.971,2249.496c-0.278,0-0.559-0.077-0.81-0.238c-0.697-0.448-0.899-1.376-0.451-2.073
						l70.793-110.138c0.448-0.696,1.376-0.896,2.073-0.45c0.697,0.448,0.899,1.376,0.451,2.073l-70.793,110.138
						C2266.948,2249.253,2266.465,2249.496,2265.971,2249.496z" class="color381f31 svgShape"></path><path fill="#252617" d="M2299.499 2197.336c-.644 0-1.239-.417-1.435-1.065-.24-.793.208-1.63 1-1.87l44.265-13.408c.792-.24 1.63.208 1.871 1.001s-.208 1.63-1 1.87l-44.265 13.408C2299.79 2197.315 2299.643 2197.336 2299.499 2197.336zM2265.974 2572.051c-.455 0-.905-.206-1.2-.599l-145.796-193.861c-.498-.662-.365-1.603.297-2.101.661-.497 1.602-.365 2.1.298l145.796 193.861c.498.662.365 1.603-.297 2.101C2266.604 2571.953 2266.288 2572.051 2265.974 2572.051z" class="color381f31 svgShape"></path><path fill="#252617" d="M2182.062 2460.477c-.829 0-1.5-.672-1.5-1.5v-66.926c0-.828.671-1.5 1.5-1.5s1.5.672 1.5 1.5v66.926C2183.562 2459.805 2182.891 2460.477 2182.062 2460.477zM2265.972 2695.174c-.309 0-.62-.095-.887-.291-.668-.491-.811-1.43-.32-2.098l172.522-234.697c.491-.667 1.428-.81 2.097-.32.667.491.811 1.43.32 2.098l-172.522 234.697C2266.887 2694.962 2266.433 2695.174 2265.972 2695.174z" class="color381f31 svgShape"></path><path fill="#252617" d="M2383.624 2535.122c-.808 0-1.475-.644-1.499-1.457l-1.987-69.061c-.024-.828.628-1.519 1.457-1.542.815-.063 1.519.628 1.542 1.456l1.987 69.061c.024.828-.628 1.519-1.457 1.542C2383.653 2535.122 2383.638 2535.122 2383.624 2535.122zM2265.972 2422.357c-.356 0-.713-.126-.999-.382-.618-.552-.671-1.5-.119-2.118l86.261-96.522c.553-.617 1.501-.67 2.118-.118.618.552.671 1.5.119 2.118l-86.261 96.522C2266.795 2422.188 2266.384 2422.357 2265.972 2422.357z" class="color381f31 svgShape"></path><path fill="#252617" d="M2317.401,2364.811c-0.829,0-1.5-0.672-1.5-1.5v-38.976c0-0.828,0.671-1.5,1.5-1.5
						s1.5,0.672,1.5,1.5v38.976C2318.901,2364.139,2318.23,2364.811,2317.401,2364.811z" class="color381f31 svgShape"></path></g><g><path fill="#929ca6" d="M2324.091,3083.635l6.033-39.699c0.938-6.171-6.699-9.809-10.9-5.192l-34.459,37.872
					l-15.579-38.331c-2.163-5.321-9.733-5.217-11.749,0.162l-14.299,38.169l-30.249-36.069c-4.096-4.884-12.025-1.302-11.067,5
					l5.789,38.088H2324.091z" class="color77d4cc svgShape"></path><path fill="#252617" d="M2324.092,3085.135c-0.075,0-0.151-0.006-0.228-0.017c-0.819-0.125-1.382-0.89-1.257-1.709
					l6.033-39.699c0.395-2.601-1.128-4.319-2.686-5.062c-1.556-0.741-3.852-0.84-5.622,1.105l-34.459,37.872
					c-0.347,0.381-0.868,0.557-1.372,0.467c-0.507-0.09-0.933-0.435-1.127-0.912l-15.58-38.331
					c-0.911-2.242-2.959-2.997-4.519-2.996c-1.587,0.021-3.586,0.853-4.435,3.12l-14.299,38.169
					c-0.188,0.499-0.625,0.862-1.151,0.952c-0.527,0.092-1.06-0.106-1.403-0.515l-30.249-36.069
					c-1.727-2.059-4.058-2.018-5.662-1.291c-1.605,0.725-3.176,2.446-2.773,5.102l5.789,38.088c0.125,0.819-0.438,1.584-1.257,1.709
					c-0.817,0.121-1.584-0.438-1.708-1.258l-5.789-38.088c-0.54-3.555,1.228-6.807,4.504-8.287c3.275-1.48,6.885-0.658,9.196,2.098
					l28.596,34.1l13.397-35.762c1.154-3.08,3.914-5.021,7.203-5.067c0.039,0,0.079-0.001,0.117-0.001
					c3.239,0,5.999,1.856,7.223,4.868l14.683,36.125l32.856-36.111c2.37-2.604,5.955-3.308,9.131-1.794
					c3.178,1.514,4.89,4.74,4.361,8.221l-6.033,39.699C2325.46,3084.603,2324.821,3085.135,2324.092,3085.135z" class="color381f31 svgShape"></path></g></g><g><path fill="#252617" d="M3733.723,3487.54v-48.311l20.624-59.413l55.749-98.502l-40.668,52.098l0.726-35.252
						l-10.745,40.786l-25.686,15.452v-84.258H3015.61v251.198c-0.009,71.806-149.256,105.598-149.256,105.598
						c63.363,19.714,149.256,0,149.256,0s12.673-8.446,21.12,0c8.448,8.449,101.381,32.037,101.381,32.037l-109.828,38.367h135.174
						c0,0,78.851-28.16,118.278-28.16c39.426,0,130.949,7.039,130.949,7.039l21.122,45.059l-21.122,45.056
						c0,0,76.035-49.28,81.668-66.178c5.632-16.896,57.73-25.345,87.3-28.161s105.605,16.896,105.605,16.896l53.506,45.059
						l2.815-57.732l-32.385-42.241l32.385-12.673h104.198l83.076-12.673C3795.682,3608.631,3733.727,3487.546,3733.723,3487.54z" class="color381f31 svgShape"></path><path fill="#252617" d="M3412.684,3767.833c-0.354,0-0.705-0.125-0.985-0.369c-0.505-0.44-0.657-1.161-0.373-1.768
						l20.824-44.419l-20.452-43.63c-9.475-0.718-93.094-6.969-129.963-6.969c-38.719,0-116.987,27.793-117.773,28.074
						c-0.162,0.058-0.333,0.087-0.505,0.087h-135.174c-0.731,0-1.356-0.527-1.479-1.249s0.293-1.426,0.983-1.667l105.147-36.732
						c-19.386-5.017-89.663-23.593-97.265-31.196c-7.468-7.466-18.752-0.127-19.229,0.188c-0.15,0.1-0.318,0.173-0.494,0.213
						c-0.864,0.198-87.019,19.578-150.037-0.029c-0.648-0.202-1.08-0.813-1.054-1.492c0.027-0.678,0.506-1.254,1.168-1.403
						c0.372-0.084,37.621-8.624,74.362-25.787c33.63-15.71,73.72-42.055,73.725-78.348v-251.198c0-0.828,0.672-1.5,1.5-1.5h718.112
						c0.828,0,1.5,0.672,1.5,1.5v81.604l22.891-13.771l10.59-40.195c0.193-0.734,0.905-1.203,1.658-1.104
						c0.753,0.105,1.308,0.757,1.292,1.517l-0.634,30.743l37.894-48.543c0.485-0.618,1.364-0.761,2.016-0.324
						c0.653,0.437,0.859,1.303,0.473,1.986l-55.682,98.382l-20.497,59.047v47.689c1.831,3.468,17.245,31.726,47.708,60.106
						c29.309,27.306,78.762,59.854,147.921,59.854c0.784,0,1.437,0.604,1.496,1.387c0.059,0.782-0.494,1.478-1.27,1.596
						l-83.076,12.672c-0.075,0.012-0.15,0.018-0.227,0.018h-103.914l-30.266,11.843l31.173,40.658
						c0.216,0.282,0.325,0.632,0.308,0.986l-2.815,57.731c-0.027,0.569-0.376,1.074-0.898,1.302
						c-0.521,0.228-1.129,0.14-1.565-0.228l-53.244-44.839c-5.474-1.399-76.774-19.431-104.759-16.771
						c-36.672,3.491-81.204,12.695-86.02,27.143c-5.732,17.199-79.152,64.938-82.275,66.962
						C3413.25,3767.754,3412.966,3767.833,3412.684,3767.833z M3281.734,3667.679c39.032,0,130.148,6.973,131.064,7.044
						c0.539,0.041,1.014,0.369,1.243,0.858l21.122,45.06c0.188,0.403,0.188,0.87,0,1.273l-18.867,40.244
						c16.273-10.799,71.998-48.578,76.632-62.478c6.626-19.881,69.476-27.36,88.58-29.18
						c29.512-2.799,103.009,16.129,106.124,16.937c0.218,0.057,0.419,0.16,0.59,0.305l51.189,43.108l2.641-54.156l-32.051-41.805
						c-0.287-0.375-0.381-0.861-0.255-1.315c0.127-0.454,0.46-0.822,0.898-0.994l32.386-12.673c0.175-0.068,0.36-0.104,0.547-0.104
						h104.084l67.183-10.248c-25.195-1.824-49.419-7.981-72.205-18.371c-22.07-10.063-42.847-24.097-61.754-41.712
						c-32.21-30.01-47.845-59.981-48.494-61.243c-0.11-0.212-0.169-0.451-0.169-0.69v-48.311c0-0.167,0.028-0.334,0.083-0.492
						l20.624-59.414c0.029-0.085,0.067-0.168,0.111-0.247l45.77-80.867l-28.201,36.126c-0.398,0.51-1.077,0.706-1.686,0.49
						s-1.01-0.798-0.997-1.444l0.468-22.655l-7.536,28.602c-0.1,0.378-0.342,0.702-0.677,0.903l-25.686,15.452
						c-0.465,0.281-1.04,0.287-1.512,0.021c-0.471-0.266-0.762-0.765-0.762-1.306v-82.758H3017.11v249.698
						c-0.002,16.807-8.008,32.916-23.793,47.882c-12.498,11.848-29.894,23.02-51.704,33.203
						c-28.72,13.411-57.735,21.594-69.487,24.63c59.99,16.29,137.945-0.428,142.906-1.524c1.915-1.175,14.239-8.17,22.759,0.347
						c6.691,6.692,74.952,25.111,100.689,31.644c0.642,0.163,1.101,0.728,1.13,1.389c0.028,0.661-0.379,1.263-1.004,1.481
						l-101.482,35.452h126.074C3168.115,3694.103,3243.599,3667.679,3281.734,3667.679z" class="color381f31 svgShape"></path><g><path fill="#ffffff" d="M3643.606 3528.464c-.828 0-1.5-.672-1.5-1.5v-120.156c0-.828.672-1.5 1.5-1.5s1.5.672 1.5 1.5v120.156C3645.106 3527.792 3644.435 3528.464 3643.606 3528.464zM3140.458 3594.173c-.828 0-1.5-.672-1.5-1.5v-202.762c0-.828.672-1.5 1.5-1.5s1.5.672 1.5 1.5v202.762C3141.958 3593.501 3141.286 3594.173 3140.458 3594.173zM3422.07 3614.825c-.828 0-1.5-.672-1.5-1.5v-194.149c0-.828.672-1.5 1.5-1.5s1.5.672 1.5 1.5v194.149C3423.57 3614.153 3422.898 3614.825 3422.07 3614.825zM3253.103 3560.38c-.828 0-1.5-.672-1.5-1.5v-168.969c0-.828.672-1.5 1.5-1.5s1.5.672 1.5 1.5v168.969C3254.603 3559.708 3253.931 3560.38 3253.103 3560.38zM3320.692 3614.825c-.045 0-.091-.002-.137-.006-.824-.074-1.434-.804-1.359-1.629l11.467-127.536-7.821-95.621c-.067-.825.547-1.55 1.373-1.617.817-.052 1.55.547 1.617 1.373l7.832 95.749c.007.085.007.171-.001.257l-11.479 127.665C3322.114 3614.239 3321.46 3614.825 3320.692 3614.825zM3078.923 3580.093c-.098 0-.197-.01-.297-.029-.812-.163-1.339-.953-1.176-1.766l20.572-102.632-41.172-120.001c-.269-.783.148-1.637.933-1.905.784-.271 1.636.148 1.905.933l41.304 120.385c.086.251.104.521.052.781l-20.652 103.029C3080.249 3579.601 3079.623 3580.093 3078.923 3580.093zM3562.875 3605.438c-.764 0-1.416-.58-1.491-1.356l-11.265-116.87c-.009-.095-.009-.189 0-.284l11.265-119.686c.078-.825.812-1.435 1.634-1.353.825.077 1.431.809 1.353 1.634l-11.251 119.543 11.251 116.729c.079.824-.524 1.558-1.35 1.637C3562.972 3605.436 3562.923 3605.438 3562.875 3605.438z" class="colorfff svgShape"></path></g><g><ellipse cx="3374.666" cy="3270.136" fill="#f8da62" rx="359.057" ry="78.503" class="colorefae75 svgShape"></ellipse><path fill="#252617" d="M3374.666,3350.14c-96.012,0-186.293-8.178-254.212-23.027
						c-68.577-14.994-106.345-35.229-106.345-56.976c0-21.748,37.768-41.982,106.345-56.976
						c67.919-14.85,158.199-23.027,254.212-23.027s186.293,8.178,254.212,23.027c68.577,14.993,106.345,35.228,106.345,56.976
						c0,21.747-37.768,41.981-106.345,56.976C3560.959,3341.962,3470.678,3350.14,3374.666,3350.14z M3374.666,3193.134
						c-95.804,0-185.856,8.153-253.571,22.958c-66.084,14.448-103.985,34.147-103.985,54.045s37.901,39.596,103.985,54.044
						c67.715,14.806,157.769,22.959,253.571,22.959s185.856-8.153,253.571-22.959c66.084-14.448,103.985-34.146,103.985-54.044
						s-37.901-39.597-103.985-54.045C3560.522,3201.287,3470.47,3193.134,3374.666,3193.134z" class="color381f31 svgShape"></path><g><ellipse cx="3374.666" cy="3270.136" fill="#dbc25c" rx="326.709" ry="63.274" class="colordb985c svgShape"></ellipse><path fill="#252617" d="M3374.666,3334.911c-87.36,0-169.505-6.592-231.304-18.561
							c-62.49-12.103-96.905-28.515-96.905-46.214s34.415-34.111,96.905-46.214c61.799-11.969,143.943-18.561,231.304-18.561
							s169.505,6.592,231.304,18.561c62.49,12.103,96.905,28.515,96.905,46.214s-34.415,34.111-96.905,46.214
							C3544.171,3328.319,3462.026,3334.911,3374.666,3334.911z M3374.666,3208.362c-87.174,0-169.117,6.572-230.733,18.505
							c-60.04,11.629-94.476,27.399-94.476,43.27s34.436,31.641,94.476,43.27c61.616,11.933,143.56,18.505,230.733,18.505
							s169.117-6.572,230.733-18.505c60.04-11.629,94.476-27.399,94.476-43.27s-34.436-31.641-94.476-43.27
							C3543.783,3214.935,3461.84,3208.362,3374.666,3208.362z" class="color381f31 svgShape"></path><ellipse cx="3374.666" cy="3270.136" fill="#f8da62" rx="282.082" ry="44.678" class="colorefae75 svgShape"></ellipse><path fill="#252617" d="M3374.666,3316.314c-139.396,0-283.582-17.272-283.582-46.178s144.186-46.178,283.582-46.178
							s283.582,17.272,283.582,46.178S3514.062,3316.314,3374.666,3316.314z M3374.666,3226.959
							c-167.837,0-280.582,22.326-280.582,43.178s112.745,43.178,280.582,43.178s280.582-22.326,280.582-43.178
							S3542.503,3226.959,3374.666,3226.959z" class="color381f31 svgShape"></path><g><path fill="#252617" d="M3484.025,3277.827c-0.028,0-0.057-0.001-0.085-0.002l-109.359-6.19
							c-0.054-0.004-0.107-0.01-0.161-0.019l-47.231-7.861l-113.408,7.878c-0.809,0.066-1.542-0.565-1.6-1.393
							c-0.058-0.826,0.565-1.543,1.393-1.6l113.584-7.891c0.114-0.011,0.233-0.003,0.35,0.017l47.325,7.877l109.123,6.177
							l92.778-14.058c0.167-0.025,0.339-0.023,0.508,0.011l36.609,7.041c0.813,0.156,1.347,0.942,1.189,1.756
							c-0.157,0.814-0.953,1.343-1.756,1.189l-36.356-6.992l-92.678,14.043C3484.176,3277.821,3484.101,3277.827,3484.025,3277.827z
							" class="color381f31 svgShape"></path><path fill="#252617" d="M3402.642,3299.659c-0.219,0-0.44-0.048-0.649-0.148l-19.998-9.629
							c-0.477-0.229-0.797-0.691-0.844-1.218c-0.047-0.525,0.186-1.038,0.613-1.348l24.727-17.942v-14.067l-14.641-16.471
							c-0.551-0.619-0.495-1.566,0.125-2.117c0.619-0.552,1.568-0.494,2.117,0.125l15.02,16.896
							c0.244,0.274,0.379,0.629,0.379,0.996v15.402c0,0.48-0.23,0.932-0.619,1.214l-23.312,16.916l17.734,8.539
							c0.747,0.359,1.061,1.256,0.701,2.002C3403.735,3299.347,3403.2,3299.659,3402.642,3299.659z" class="color381f31 svgShape"></path></g></g></g><g><path fill="#929ca6" d="M3374.877,3678.052l6.607-43.307c0.938-6.171-6.699-9.809-10.9-5.192l-34.459,37.872
				l-15.579-38.331c-2.163-5.321-9.733-5.217-11.749,0.162l-14.299,38.169l-30.249-36.069c-4.096-4.884-12.025-1.302-11.067,5
				l5.789,38.088L3374.877,3678.052z" class="color77d4cc svgShape"></path><path fill="#252617" d="M3374.879,3679.553c-0.075,0-0.151-0.006-0.229-0.018c-0.818-0.125-1.381-0.89-1.256-1.709
				l6.607-43.307c0.395-2.6-1.129-4.318-2.686-5.061s-3.853-0.842-5.623,1.104l-34.459,37.872c-0.348,0.381-0.861,0.557-1.372,0.467
				c-0.508-0.09-0.933-0.435-1.127-0.912l-15.579-38.33c-0.899-2.212-2.877-2.996-4.454-2.996c-0.021,0-0.044,0-0.065,0
				c-1.587,0.021-3.586,0.853-4.436,3.12l-14.299,38.168c-0.187,0.499-0.625,0.862-1.151,0.952
				c-0.523,0.094-1.059-0.106-1.402-0.515l-30.248-36.069c-1.726-2.058-4.055-2.018-5.662-1.291
				c-1.605,0.725-3.177,2.446-2.772,5.103l5.789,38.087c0.124,0.819-0.439,1.584-1.258,1.709c-0.813,0.117-1.584-0.438-1.709-1.258
				l-5.789-38.087c-0.54-3.555,1.229-6.808,4.504-8.288c3.281-1.479,6.887-0.657,9.196,2.098l28.596,34.1l13.397-35.761
				c1.154-3.08,3.914-5.021,7.203-5.067c0.039,0,0.078-0.001,0.117-0.001c3.238,0,5.999,1.856,7.223,4.868l14.683,36.124
				l32.856-36.111c2.37-2.602,5.956-3.308,9.132-1.793c3.178,1.514,4.89,4.74,4.361,8.221l-6.608,43.308
				C3376.246,3679.021,3375.607,3679.553,3374.879,3679.553z" class="color381f31 svgShape"></path></g></g></svg></g></svg>