<svg id="SvgjsSvg1169" width="360" height="360" xmlns="http://www.w3.org/2000/svg" version="1.1" xmlns:xlink="http://www.w3.org/1999/xlink" xmlns:svgjs="http://svgjs.com/svgjs"><defs id="SvgjsDefs1170"></defs><g id="SvgjsG1171"><svg xmlns="http://www.w3.org/2000/svg" enable-background="new 0 0 1678.5 1500" viewBox="0 0 1678.5 1500" width="360" height="360"><ellipse cx="829.409" cy="1414.731" fill="#6e87ae" rx="651.328" ry="28.705" class="color84ae6e svgShape"></ellipse><path fill="#43a47a" d="M745.304,352.827c12.318-39.558,38.638-77.882,81.876-116.655    c12.094-10.837,25.826-20.194,40.859-28.115c14.338-34.779,34.801-66.932,70.298-82.908    c54.277-24.413,113.558-0.18,162.496,25.422c17.928,9.379,35.228,20.464,49.296,34.846    c72.901,14.966,144.029,42.924,200.618,80.866c59.146,39.648,73.596,121.434,69.131,206.676    c-4.959,95.249-33.5,194.784-49.655,244.462c3.702,6.956,6.776,14.293,9.065,22.057c7.18,24.502,5.654,55.422-10.636,75.167    c13.418,21.136,24.525,44.382,29.932,68.862c5.744,26.14,4.263,52.684-6.171,77.433c-10.389,24.704-27.464,45.863-45.01,65.855    c-1.638,1.84-3.702,2.603-5.789,2.536c-5.677,5.385-11.959,10.546-18.691,15.549c-30.291,46.784-83.469,78.309-137.59,87.98    c-7.404,1.324-14.899,2.266-22.438,2.917c-10.254,32.064-6.17,128.637-1.279,200.461c1.638,24.435,3.411,45.998,4.712,61.188    l-53.11-2.625v-135.66c-7.943-5.34-16.694-9.424-24.817-14.517c-10.658-6.709-19.005-14.943-25.355-25.871    c-15.056-25.826-27.15-53.918-39.895-80.956c-7.001-14.899-13.889-29.865-20.643-44.876c-3.68-2.693-7.292-5.498-10.793-8.414    c-15.863-13.306-30.179-30.022-40.703-48.646c-0.179-0.112-0.381-0.224-0.583-0.337c-2.446-1.077-4.869-2.154-7.315-3.231    c-31.794-14.069-64.352-28.339-90.043-52.438c-22.281-20.912-38.526-49.364-38.997-80.485    c-0.449-30.965,14.293-60.112,34.532-82.752c13.171-14.742,30.515-29.551,49.722-39.019    c2.782-50.059-61.682-112.953-114.635-213.565C742.229,485.233,725.177,417.358,745.304,352.827z M847.778,850.838    c1.638-2.019,3.343-4.016,5.071-6.013c0.673-1.638,1.391-3.276,2.131-4.891C852.4,843.456,849.977,847.091,847.778,850.838z     M1113.219,1218.125v-83.11c-24.996-2.85-49.588-9.446-72.407-19.813C1059.682,1153.459,1081.537,1189.539,1113.219,1218.125z" class="color43a46e svgShape"></path><path fill="#4f70a3" d="M1023.153,1137.797c12.744,27.038,24.838,55.13,39.895,80.956    c6.349,10.927,14.697,19.162,25.354,25.871c8.122,5.093,16.873,9.177,24.816,14.517l0.001,151.998l53.111-13.713    c-1.301-15.191-3.074-36.754-4.712-61.188c-4.891-71.824-8.976-168.397,1.279-200.461c0,0-9.021,2.794-25.534,2.214    c-16.514-0.579-24.145-2.977-24.145-2.977v83.11c-31.682-28.586-53.537-64.666-72.406-102.923c0,0-19.462-6.448-38.114-21.873    C1009.392,1108.202,1016.215,1123.033,1023.153,1137.797z" class="colora3644f svgShape"></path><path fill="#317256" d="M1038.352 399.705c-5.588-8.819-18.765-6.135-26.97-3.396-10.101 3.372-18.905 9.667-21.928 20.3-.905 3.183 3.065 4.615 4.935 2.631 1.016.466 2.265.433 3.335-.517 2.251-2 4.605-3.818 7.052-5.464 6.844-.817 13.605-2.562 20.282-4.216 4.507-1.116 10.875-1.395 13.296-5.9C1038.918 402.089 1039.015 400.751 1038.352 399.705zM1077.133 243.379c-3.234-4.006-7.976-2.875-12.006-.797-.485-.07-1.022-.023-1.617.214-9.684 3.855-17.377 10.353-22.508 19.469-.976 1.734-.245 3.55 1.07 4.522-.456 2.346 1.911 5.016 4.525 3.397 10.684-6.615 20.814-14.031 30.536-21.986C1078.661 246.948 1078.192 244.691 1077.133 243.379zM1239.845 261.027c-3.234-4.006-7.976-2.875-12.007-.797-.485-.07-1.022-.023-1.617.214-9.685 3.855-17.377 10.353-22.508 19.469-.976 1.734-.245 3.55 1.07 4.522-.456 2.346 1.911 5.016 4.525 3.398 10.683-6.615 20.814-14.032 30.536-21.987C1241.373 264.596 1240.904 262.34 1239.845 261.027z" class="color369660 svgShape"></path><path fill="#317256" d="M1005.992 232.12c-.06-.643-.079-1.375.374-1.836.389-.396.998-.454 1.552-.477 11.415-.465 22.935 4.446 30.503 13.003 4.782 5.407 10.785 15.67 9.316 23.285-1.609 8.342-9.53 8.495-15.825 5.361C1017.619 264.341 1007.458 247.722 1005.992 232.12zM1168.252 243.098c-.06-.643-.078-1.375.374-1.836.389-.396.998-.454 1.552-.477 11.415-.465 22.935 4.446 30.503 13.004 4.782 5.407 10.784 15.67 9.316 23.285-1.609 8.342-9.53 8.494-15.825 5.36C1179.88 275.319 1169.718 258.7 1168.252 243.098zM841.434 222.114c-.224-.606-.431-1.309-.112-1.87.274-.483.847-.696 1.377-.861 10.908-3.394 23.305-1.62 32.825 4.696 6.014 3.991 14.461 12.358 15.006 20.094.597 8.475-7.017 10.665-13.907 9.261C860.979 250.246 846.875 236.81 841.434 222.114zM1140.716 475.391c-.224-.606-.431-1.309-.112-1.87.274-.483.847-.696 1.377-.861 10.908-3.394 23.305-1.62 32.825 4.696 6.015 3.991 14.461 12.358 15.007 20.094.597 8.474-7.017 10.665-13.907 9.261C1160.261 503.523 1146.157 490.087 1140.716 475.391zM778.76 270.672c-.224-.606-.431-1.309-.112-1.87.274-.483.847-.696 1.377-.861 10.908-3.394 23.305-1.621 32.825 4.695 6.015 3.991 14.461 12.358 15.007 20.094.597 8.474-7.017 10.665-13.907 9.261C798.305 298.803 784.201 285.367 778.76 270.672zM916.959 411.153c-2.211-1.725-4.658-3.291-7.418-3.781-2.761-.49-5.898.307-7.559 2.566-.878 1.193-1.277 2.679-1.419 4.153-.504 5.235 2.084 10.398 5.782 14.137 3.698 3.738 8.42 6.271 13.125 8.619 2.443 1.218 9.52 6.659 12.137 5.265 2.668-1.421 1.762-6.651 1.181-8.886C930.572 424.692 923.767 416.465 916.959 411.153zM1351.411 597.637c-2.211-1.725-4.657-3.291-7.418-3.781-2.761-.49-5.897.307-7.559 2.566-.878 1.193-1.277 2.679-1.419 4.153-.504 5.234 2.084 10.398 5.782 14.137 3.698 3.738 8.42 6.271 13.125 8.619 2.443 1.219 9.52 6.659 12.137 5.265 2.668-1.421 1.762-6.651 1.181-8.886C1365.024 611.175 1358.219 602.948 1351.411 597.637zM895.298 345.651c.027-.512-.067-1.054-.353-1.611-5.033-9.763-13.455-16.71-23.833-20.181-1.91-.638-4.18 1.079-4.064 3.096.882 15.365 17.02 18.024 24.746 28.677 1.805 2.488 6.691 2.008 6.419-1.739C897.97 350.547 896.865 347.919 895.298 345.651zM1087.36 1052.294c-2.211-1.725-4.658-3.291-7.418-3.781s-5.897.307-7.559 2.566c-.878 1.193-1.277 2.679-1.419 4.153-.504 5.234 2.084 10.398 5.782 14.136 3.698 3.739 8.42 6.271 13.125 8.619 2.443 1.219 9.52 6.659 12.136 5.265 2.668-1.421 1.762-6.651 1.181-8.886C1100.972 1065.832 1094.168 1057.605 1087.36 1052.294zM1247.948 775.544c-2.211-1.725-4.658-3.291-7.418-3.781-2.761-.49-5.897.307-7.559 2.566-.878 1.193-1.277 2.679-1.419 4.153-.504 5.234 2.084 10.398 5.782 14.136 3.698 3.739 8.42 6.271 13.125 8.619 2.443 1.219 9.52 6.659 12.136 5.265 2.668-1.421 1.762-6.651 1.181-8.886C1261.561 789.082 1254.756 780.855 1247.948 775.544zM1226.148 878.873c-.981-2.511-3.55-3.151-5.642-1.49-12.371 9.825-8.233 29.797-4.27 42.727 1.173 3.829 7.158 2.215 6.021-1.66-.053-.179-.107-.374-.16-.558 1.457-.13 2.842-1.134 2.908-3.029.011-.32.008-.64.017-.96.336-.452.554-1.03.569-1.744.003-.144-.004-.288-.003-.432 2.206-3.527 2.948-8.785 3.38-12.394C1229.814 892.273 1228.724 885.468 1226.148 878.873z" class="color369660 svgShape"></path><path fill="#45af81" d="M957.632 303.1c-.224-.606-.431-1.309-.112-1.87.274-.483.847-.696 1.377-.861 10.908-3.394 23.305-1.62 32.825 4.696 6.015 3.991 14.461 12.358 15.007 20.094.597 8.474-7.017 10.665-13.907 9.261C977.177 331.232 963.072 317.796 957.632 303.1zM724.486 364.212c-.224-.606-.431-1.309-.112-1.87.274-.483.847-.696 1.377-.861 10.908-3.394 23.305-1.62 32.825 4.696 6.015 3.991 14.461 12.358 15.006 20.094.597 8.475-7.016 10.665-13.907 9.261C744.031 392.343 729.927 378.907 724.486 364.212zM792.139 370.001c-.224-.606-.431-1.309-.112-1.87.274-.483.847-.696 1.377-.861 10.908-3.394 23.305-1.62 32.824 4.696 6.015 3.991 14.461 12.358 15.007 20.094.597 8.475-7.017 10.665-13.907 9.261C811.683 398.133 797.579 384.697 792.139 370.001zM1052.887 179.887c.484-.427 1.065-.873 1.704-.778.549.082.954.539 1.299.974 7.096 8.953 9.907 21.157 7.444 32.312-1.556 7.048-6.318 17.942-13.339 21.238-7.69 3.61-12.477-2.703-13.649-9.637C1033.686 208.254 1041.139 190.256 1052.887 179.887z" class="color45af79 svgShape"></path><path fill="#45af81" d="M874.51 361.544c.642-.069 1.374-.097 1.841.35.401.384.467.992.497 1.546.618 11.407-4.139 22.992-12.595 30.674-5.343 4.854-15.524 10.993-23.158 9.626-8.363-1.497-8.621-9.416-5.572-15.752C842.447 373.601 858.929 363.219 874.51 361.544zM1010.237 353.728c1.931 2.558 5.343 3.573 8.548 3.623 4.565.071 8.996-1.48 13.18-3.307 10.098-4.41 19.431-10.565 27.462-18.11 1.408-1.323 2.873-2.904 2.883-4.836.015-2.964-3.336-4.776-6.279-5.128-6.225-.744-12.296 1.917-18.002 4.515C1031.795 333.325 1003.02 344.167 1010.237 353.728zM743.586 432.268c1.931 2.558 5.343 3.573 8.548 3.623 4.565.071 8.996-1.48 13.179-3.307 10.098-4.41 19.431-10.565 27.463-18.11 1.408-1.323 2.873-2.904 2.883-4.836.015-2.964-3.336-4.776-6.279-5.128-6.225-.744-12.296 1.916-18.002 4.515C765.143 411.865 736.368 422.706 743.586 432.268zM934.552 171.04c-6.225-.744-12.297 1.917-18.002 4.515-2.982 1.358-11.114 4.548-18.003 8.55.271-6.633.175-13.364-.741-19.828-.705-4.977-2.502-9.515-7.798-10.653-1.552-.334-3.564.45-3.883 2.205-2.599 14.304-2.625 29.057 1.475 43.091-3.189-5.812-8.036-11.09-12.894-14.88-2.211-1.725-4.658-3.291-7.418-3.781-2.761-.49-5.897.307-7.559 2.566-.878 1.193-1.277 2.679-1.419 4.153-.504 5.234 2.084 10.398 5.782 14.136 3.698 3.739 8.42 6.271 13.125 8.619 2.443 1.219 9.52 6.659 12.137 5.265 2.668-1.421 1.762-6.651 1.181-8.887-.503-1.933-1.25-3.849-2.17-5.72.764.775 1.893.891 2.847.507 1.805 1.028 3.99 1.489 6.094 1.522 4.565.071 8.996-1.48 13.18-3.307 10.098-4.41 19.431-10.565 27.462-18.11 1.408-1.323 2.873-2.904 2.883-4.836C940.847 173.205 937.495 171.392 934.552 171.04zM1038.492 293.745c.772-2.817 1.213-6.132-.629-8.398-1.426-1.755-3.877-2.359-6.135-2.249-4.797.234-9.053 3.13-12.585 6.384-6.926 6.378-25.785 30.613-9.41 36.741C1022.878 331.143 1035.899 303.206 1038.492 293.745zM961.027 344.801c.772-2.816 1.213-6.131-.629-8.398-1.426-1.755-3.877-2.359-6.135-2.249-4.797.234-9.052 3.13-12.585 6.384-6.927 6.378-25.785 30.613-9.41 36.741C945.414 382.199 958.434 354.263 961.027 344.801z" class="color45af79 svgShape"></path><path fill="#45af81" d="M835.28 407.89c.814 6.995 4.826 13.461 10.447 17.704 5.621 4.243 12.741 6.318 19.784 6.271 1.181-6.376.12-13.145-2.955-18.853-3.075-5.709-8.143-10.319-14.116-12.841C840.728 396.914 834.234 398.901 835.28 407.89zM981.168 108.366c.484-.428 1.065-.874 1.704-.78.549.081.955.538 1.3.973 7.104 8.947 9.928 21.147 7.476 32.305-1.549 7.05-6.301 17.948-13.318 21.251-7.687 3.617-12.479-2.691-13.658-9.624C961.994 136.751 969.43 118.747 981.168 108.366z" class="color45af79 svgShape"></path><path fill="#45af81" d="M975.988 168.864c4.712 5.234 11.725 8.187 18.765 8.395 7.04.208 14.048-2.219 19.764-6.333-2.726-5.883-7.508-10.79-13.319-13.667-5.811-2.877-12.611-3.705-18.943-2.306C974.08 156.76 969.933 162.138 975.988 168.864zM908.977 255.07c-15.193 1.563-24.541 25.197-21.027 38.084 1.006 3.689 6.395 2.468 6.239-.954.633-.105 1.246-.436 1.755-1.088 3.792-4.863 7.583-9.727 11.375-14.59 2.833-3.634 6.916-7.541 8.668-11.904C918.157 259.215 914.933 254.457 908.977 255.07z" class="color45af79 svgShape"></path><path fill="#317256" d="M1074.403 565.015c-5.588-8.819-18.765-6.135-26.97-3.396-10.101 3.372-18.905 9.667-21.928 20.3-.905 3.183 3.065 4.615 4.935 2.631 1.016.466 2.265.433 3.335-.517 2.251-2 4.605-3.818 7.052-5.464 6.844-.817 13.605-2.562 20.282-4.216 4.507-1.117 10.875-1.395 13.296-5.9C1074.969 567.399 1075.066 566.062 1074.403 565.015zM953.011 576.464c-2.211-1.725-4.658-3.291-7.418-3.781-2.761-.49-5.897.307-7.559 2.566-.878 1.193-1.277 2.679-1.419 4.153-.504 5.234 2.084 10.398 5.782 14.136 3.698 3.739 8.42 6.271 13.125 8.619 2.443 1.219 9.52 6.659 12.137 5.265 2.668-1.421 1.762-6.651 1.181-8.886C966.623 590.002 959.819 581.776 953.011 576.464zM931.35 510.961c.027-.512-.067-1.054-.354-1.611-5.033-9.762-13.455-16.71-23.833-20.181-1.91-.639-4.18 1.079-4.064 3.096.882 15.365 17.02 18.024 24.746 28.677 1.805 2.489 6.691 2.007 6.419-1.738C934.021 515.857 932.916 513.23 931.35 510.961z" class="color369660 svgShape"></path><path fill="#45af81" d="M993.683 468.411c-.224-.606-.431-1.309-.112-1.87.274-.483.847-.696 1.377-.861 10.908-3.394 23.305-1.62 32.825 4.696 6.015 3.991 14.461 12.358 15.006 20.094.597 8.475-7.017 10.665-13.907 9.261C1013.228 496.542 999.124 483.106 993.683 468.411zM778.76 477.511c-.224-.606-.431-1.309-.112-1.87.274-.483.847-.696 1.377-.861 10.908-3.394 23.305-1.62 32.825 4.696 6.015 3.991 14.461 12.358 15.007 20.094.597 8.475-7.017 10.665-13.907 9.261C798.305 505.642 784.201 492.206 778.76 477.511zM828.19 535.312c-.224-.606-.431-1.308-.112-1.87.274-.483.847-.696 1.377-.861 10.908-3.394 23.305-1.62 32.825 4.696 6.015 3.991 14.461 12.358 15.007 20.094.597 8.474-7.017 10.665-13.907 9.261C847.735 563.444 833.631 550.008 828.19 535.312z" class="color45af79 svgShape"></path><path fill="#45af81" d="M910.561 526.855c.642-.069 1.374-.097 1.841.35.401.384.467.992.497 1.546.618 11.407-4.139 22.992-12.595 30.674-5.343 4.854-15.524 10.993-23.158 9.626-8.363-1.497-8.621-9.416-5.572-15.752C878.498 538.912 894.98 528.53 910.561 526.855zM1046.289 519.039c1.931 2.558 5.343 3.573 8.548 3.623 4.564.071 8.996-1.48 13.18-3.307 10.098-4.411 19.431-10.565 27.462-18.11 1.408-1.323 2.873-2.904 2.883-4.836.015-2.964-3.336-4.776-6.279-5.128-6.225-.744-12.296 1.916-18.001 4.515C1067.846 498.636 1039.071 509.477 1046.289 519.039zM791.106 607.644c1.931 2.558 5.343 3.573 8.548 3.623 4.565.071 8.996-1.48 13.18-3.307 10.098-4.41 19.431-10.565 27.462-18.11 1.408-1.323 2.873-2.904 2.883-4.836.015-2.964-3.336-4.776-6.279-5.128-6.225-.744-12.296 1.916-18.002 4.515C812.663 587.241 783.888 598.083 791.106 607.644zM1074.543 459.055c.772-2.817 1.213-6.131-.629-8.398-1.426-1.755-3.877-2.359-6.135-2.249-4.797.234-9.052 3.13-12.585 6.384-6.927 6.378-25.786 30.613-9.411 36.741C1058.93 496.453 1071.95 468.517 1074.543 459.055zM997.078 510.112c.772-2.817 1.213-6.132-.629-8.398-1.426-1.755-3.877-2.359-6.135-2.249-4.797.234-9.053 3.13-12.585 6.384-6.927 6.378-25.785 30.613-9.411 36.741C981.465 547.51 994.486 519.573 997.078 510.112z" class="color45af79 svgShape"></path><path fill="#45af81" d="M871.331 573.201c.815 6.995 4.827 13.461 10.447 17.704 5.621 4.243 12.741 6.318 19.784 6.271 1.181-6.376.12-13.145-2.955-18.854-3.075-5.709-8.142-10.318-14.116-12.841C876.779 562.224 870.285 564.211 871.331 573.201zM945.028 420.381c-15.193 1.563-24.541 25.197-21.027 38.084 1.006 3.689 6.395 2.468 6.239-.954.633-.105 1.246-.436 1.755-1.088 3.792-4.863 7.583-9.727 11.375-14.59 2.833-3.633 6.916-7.541 8.668-11.904C954.208 424.526 950.985 419.768 945.028 420.381zM782.878 460.072c-13.582-7.13-28.809-7.07-42.273.32-1.146.629-1.578 1.615-1.531 2.594-.701 1.425-.304 3.382 1.196 4.19-.836.063-1.669.129-2.512.187-4.173.289-4.179 6.2 0 6.492 14.869 1.039 30.437-2.445 44.306-7.553C784.625 465.36 785.671 461.538 782.878 460.072z" class="color45af79 svgShape"></path><path fill="#317256" d="M1295.241 400.064c-3.45 6.48-5.863 13.403-7.53 20.54-.591 2.528 2.56 5.467 4.929 3.634 10.825-8.377 18.338-19.55 21.076-33.055.244-1.206-.167-2.161-.866-2.797-.256-.803-.934-1.446-1.751-1.824-.052-.077-.105-.155-.157-.232-1.052-1.554-2.99-2.135-4.674-1.188C1301.517 387.814 1297.719 395.409 1295.241 400.064zM1248.038 495.591c.817 5.813 7.38 8.88 12.598 9.389 6.61.645 13.089-1.927 18.399-5.704 1.784-1.27 1.644-3.449.608-4.781.26-.159.518-.324.77-.52 1.773-1.385 2.648-4.905-.094-6.001-6.698-2.678-13.904-4.157-21.137-3.301C1253.594 485.334 1247.109 488.984 1248.038 495.591zM1289.475 466.565l-.524 1.602c-.016.048-.017.091-.031.138-3.63 12.271 1.729 25.606 12.465 32.507 1.97 1.266 4.336-.211 4.947-2.176 3.875-12.475 4.464-27.199-6.467-36.337-2.237-1.87-5.159-.033-5.377 2.128C1292.741 463.752 1290.318 464.284 1289.475 466.565zM1334.193 318.111c.011.186.021.372.031.558.041.731.34 1.426.798 1.982.658 8.456 2.97 16.664 6.932 24.218 2.689 5.127 8.661 15.766 16.11 11.816 8.445-4.478.581-14.491-2.67-19.334l-10.792-16.079c-1.195-1.781-2.211-3.94-3.766-5.282-1.02-2.196-4.321-2.306-5.537-.394C1334.598 316.233 1334.139 317.143 1334.193 318.111z" class="color369660 svgShape"></path><path fill="#45af81" d="M1162.558 633.454c-.097.639-.257 1.354-.807 1.691-.474.29-1.078.199-1.622.087-11.188-2.311-21.177-9.864-26.449-19.999-3.331-6.404-6.671-17.814-3.403-24.847 3.58-7.704 11.302-5.935 16.652-1.371C1159.074 599.377 1164.911 617.962 1162.558 633.454zM1303.861 665.354c-.097.638-.257 1.353-.807 1.691-.474.29-1.078.199-1.622.087-11.188-2.311-21.177-9.864-26.449-19.999-3.331-6.404-6.671-17.814-3.403-24.847 3.58-7.704 11.303-5.935 16.652-1.371C1300.378 631.277 1306.214 649.861 1303.861 665.354z" class="color45af79 svgShape"></path><path fill="#45af81" d="M1223.629 639.705c-2.039 2.091-4.03 4.778-3.515 7.653.398 2.226 2.251 3.941 4.28 4.938 4.31 2.118 9.437 1.643 14.103.507 9.149-2.228 37.382-14.304 26.021-27.593C1255.395 614.54 1230.478 632.681 1223.629 639.705zM1218.548 596.886c-.63.14-1.355.249-1.868-.142-.441-.337-.575-.933-.667-1.481-1.885-11.268 1.551-23.31 9.098-31.886 4.768-5.419 14.202-12.655 21.941-12.147 8.477.556 9.617 8.396 7.292 15.033C1249.067 581.33 1233.845 593.485 1218.548 596.886z" class="color45af79 svgShape"></path><path fill="#45af81" d="M1252.368 546.457c-1.589-6.861-6.297-12.84-12.355-16.43-6.059-3.59-13.366-4.858-20.359-4.027-.463 6.468 1.346 13.076 5.038 18.407 3.692 5.33 9.242 9.347 15.459 11.188C1248.178 557.972 1254.41 555.273 1252.368 546.457zM1109.128 567.3c-.63.14-1.355.25-1.868-.142-.441-.337-.575-.933-.667-1.481-1.885-11.268 1.55-23.31 9.097-31.886 4.768-5.419 14.203-12.655 21.941-12.147 8.477.556 9.617 8.396 7.292 15.033C1139.648 551.745 1124.425 563.899 1109.128 567.3z" class="color45af79 svgShape"></path><path fill="#45af81" d="M1142.948 516.872c-1.589-6.861-6.297-12.84-12.355-16.43-6.059-3.59-13.366-4.858-20.359-4.027-.463 6.468 1.346 13.076 5.038 18.407 3.692 5.33 9.242 9.347 15.459 11.188C1138.758 528.386 1144.99 525.688 1142.948 516.872zM1359.195 409.456c.635-.12 1.362-.206 1.863.203.43.351.544.952.618 1.502 1.52 11.322-2.303 23.248-10.123 31.576-4.941 5.262-14.604 12.189-22.322 11.432-8.455-.829-9.34-8.702-6.803-15.261C1328.19 424.017 1343.797 412.361 1359.195 409.456z" class="color45af79 svgShape"></path><path fill="#45af81" d="M1323.764 458.766c1.367 6.909 5.879 13.036 11.818 16.82s13.202 5.288 20.219 4.682c.672-6.45-.923-13.113-4.441-18.56-3.518-5.447-8.935-9.641-15.089-11.681C1328.324 447.393 1322.008 449.888 1323.764 458.766zM1092.541 738.91c1.294 7.15 10.33 6.696 15.578 4.798 7.07-2.557 12.631-8.125 17.458-13.698.461-.253.922-.503 1.383-.756.049-.027.09-.063.136-.092 3.063 7.76 7.884 14.474 14.841 19.267 5.174 3.564 13.433 7.768 19.677 4.327 5.257-2.898 4.078-8.307.122-11.733-3.481-3.013-8.147-4.948-12.116-7.25-5.879-3.411-11.757-6.823-17.635-10.234-1.298-.753-2.995-.388-4.061.598-.426-.604-1.059-1.047-1.911-1.15-7.52-.905-15.386-1.233-22.535 1.699C1098.006 726.93 1091.322 732.169 1092.541 738.91zM1264.59 559.692c-.829 4.846-.729 13.88 4.976 15.986 9.069 3.349 13.859-14.651 15.879-27.109 1.553 1.598 3.157 3.15 4.88 4.597 2.915 2.448 7.171 6.712 11.354 6.468 9.627-.561 4.424-12.93.337-16.582-3.695-3.301-8.155-5.941-12.257-8.687-2.995-2.005-6.784-4.114-9.806-.937-.653.686-1.073 1.393-1.336 2.11-.547.142-1.083.397-1.553.896C1270.993 542.892 1266.106 550.833 1264.59 559.692zM1272.223 557.239c.093-.303.207-.594.307-.893-.324 1.625-.648 3.249-.972 4.874-.1.505-.095.967-.017 1.391-.159.856-.285 1.722-.43 2.583-.03-.214-.061-.427-.092-.641C1270.931 562.11 1271.514 559.564 1272.223 557.239zM1186.451 573.122c5.654 4.029 12.121-.365 14.491-5.825 4.886-11.259 1.995-23.614 7.563-34.682.537-.953 1.076-1.905 1.627-2.851.481-.826.578-1.611.433-2.31.35-.388.686-.786 1.04-1.172 2.64-2.88-1.607-7.06-4.347-4.252C1199.302 530.18 1170.101 561.471 1186.451 573.122z" class="color45af79 svgShape"></path><path fill="#317256" d="M1267.561 984.818c1.996-7.064 5.048-13.731 8.786-20.035 1.324-2.233 5.632-2.172 6.073.79 2.013 13.539-.301 26.802-7.674 38.444-.659 1.04-1.617 1.444-2.561 1.419-.74.402-1.675.396-2.526.105-.091.02-.182.039-.274.059-1.835.393-3.636-.529-4.195-2.378C1263.609 998.002 1266.127 989.893 1267.561 984.818zM1299.631 883.206c4.614-3.629 11.473-1.299 15.591 1.946 5.217 4.11 8.112 10.452 9.328 16.854.409 2.152-1.201 3.628-2.871 3.872.077.294.15.592.196.908.321 2.227-1.485 5.373-4.222 4.266-6.687-2.705-12.912-6.626-17.538-12.251C1296.539 894.453 1294.386 887.33 1299.631 883.206zM1309.438 932.838l.731-1.518c.022-.045.051-.077.073-.121 5.875-11.368 18.974-17.281 31.499-14.829 2.298.45 2.983 3.154 2.063 4.995-5.84 11.686-15.608 22.718-29.822 21.745-2.909-.199-3.745-3.548-2.407-5.258C1309.847 937.128 1308.467 935.068 1309.438 932.838zM1238.935 1070.923c.136-.127.273-.254.409-.381.536-.499 1.232-.794 1.948-.877 6.329-5.646 13.679-9.969 21.769-12.677 5.49-1.838 17.165-5.381 19.806 2.626 2.993 9.078-9.613 10.86-15.312 12.104l-18.919 4.132c-2.096.458-4.323 1.312-6.374 1.205-2.256.878-4.715-1.327-4.268-3.548C1237.927 1072.558 1238.226 1071.584 1238.935 1070.923zM1187.583 1072.343c-.002-.228.02-.449.06-.664-1.717-2.148 1.002-5.899 4.08-4.452 11.797 5.547 24.415 11.835 31.435 23.38 3.91 6.43 9.069 21.701 1.642 27.708-2.077 1.679-4.44 2.013-6.696.346-1.811-1.339-2.573-4.632-3.792-6.448-1.983-2.955-4.568-5.44-7.188-7.814-9.143-8.282-19.432-15.111-22.481-27.794C1184.08 1074.268 1185.752 1072.666 1187.583 1072.343z" class="color369660 svgShape"></path><path fill="#45af81" d="M1333.386 724.543c.372-.528.752-1.154.588-1.779-.141-.537-.64-.89-1.11-1.185-9.674-6.077-22.111-7.542-32.931-3.878-6.837 2.315-17.147 8.236-19.657 15.574-2.75 8.038 4.047 12.108 11.068 12.518C1307.282 746.722 1324.36 737.352 1333.386 724.543zM1229.872 824.016c.372-.528.752-1.154.588-1.779-.141-.537-.64-.89-1.11-1.185-9.673-6.077-22.11-7.542-32.931-3.878-6.837 2.315-17.147 8.237-19.657 15.574-2.75 8.038 4.047 12.108 11.067 12.517C1203.767 846.195 1220.845 836.825 1229.872 824.016z" class="color45af79 svgShape"></path><path fill="#45af81" d="M1154.218 786.981c-.024-2.92.4-6.237 2.761-7.956 1.828-1.33 4.352-1.286 6.507-.6 4.577 1.456 7.947 5.347 10.528 9.397 5.059 7.941 17.074 36.201-.325 37.926C1159.72 827.132 1154.298 796.791 1154.218 786.981zM1348.474 789.693c-.358-.538-.805-1.118-1.447-1.191-.552-.062-1.061.276-1.506.607-9.161 6.826-15.018 17.895-15.51 29.308-.31 7.212 1.488 18.964 7.424 23.955 6.502 5.468 12.752.599 15.67-5.8C1359.729 822.046 1357.159 802.737 1348.474 789.693zM1320.214 1022.315c.375.526.841 1.091 1.485 1.143.553.045 1.052-.31 1.486-.656 8.936-7.118 14.432-18.37 14.555-29.794.077-7.218-2.1-18.906-8.194-23.703-6.675-5.255-12.765-.186-15.474 6.303C1307.921 990.342 1311.113 1009.558 1320.214 1022.315z" class="color45af79 svgShape"></path><path fill="#45af81" d="M1328.783 962.203c5.769-4.039 13.267-5.338 20.173-3.956 6.906 1.381 13.188 5.324 17.832 10.618-3.98 5.119-9.744 8.824-16.053 10.319-6.309 1.495-13.122.771-18.976-2.017C1324.2 973.567 1321.37 967.394 1328.783 962.203zM1338.77 516.988c5.883-4.264 12.09 2.319 14.563 7.322 3.332 6.74 3.49 14.607 3.115 21.971.158.501.318 1.002.475 1.503.017.053.021.107.035.161 7.583-3.479 15.71-4.987 24.048-3.629 6.201 1.01 15.072 3.694 17.195 10.499 1.788 5.731-2.808 8.818-8.034 8.551-4.598-.235-9.305-2.07-13.762-3.155-6.604-1.608-13.208-3.216-19.811-4.823-1.458-.355-2.43-1.794-2.517-3.243-.725.141-1.489.023-2.175-.494-6.053-4.553-11.957-9.762-15.085-16.827C1334.42 529.417 1333.224 521.008 1338.77 516.988zM1355.951 848.407c2.757-4.071 9.083-10.521 14.658-8.092 8.863 3.862-.141 20.167-7.309 30.555 2.227-.078 4.459-.087 6.704.061 3.799.251 9.821.121 12.671 3.193 6.559 7.069-5.759 12.393-11.236 12.199-4.951-.176-9.998-1.359-14.859-2.216-3.549-.626-7.744-1.728-7.725-6.112.004-.947.19-1.748.497-2.448-.296-.481-.507-1.036-.5-1.722C1348.941 864.963 1350.911 855.849 1355.951 848.407zM1359.761 855.462c-.143.283-.262.572-.397.857.891-1.397 1.781-2.793 2.673-4.19.277-.433.601-.763.95-1.016.478-.728.986-1.44 1.478-2.161-.17.133-.34.266-.51.399C1362.201 851.052 1360.859 853.293 1359.761 855.462zM1308.861 784.622c6.869 1.007 8.495 8.654 6.424 14.235-4.268 11.507-14.908 18.421-18.552 30.264-.272 1.06-.542 2.12-.8 3.184-.225.929-.699 1.562-1.286 1.967-.016.522-.049 1.042-.061 1.565-.089 3.906-6.047 3.982-6.081.059C1288.407 824.506 1288.996 781.71 1308.861 784.622zM1240.69 316.013c-.224-.606-.431-1.309-.112-1.87.274-.483.847-.696 1.377-.861 10.908-3.394 23.305-1.62 32.824 4.696 6.015 3.991 14.461 12.358 15.007 20.094.597 8.475-7.017 10.665-13.907 9.261C1260.234 344.145 1246.13 330.709 1240.69 316.013zM1101.605 356.506c-.224-.606-.431-1.309-.112-1.87.274-.483.847-.696 1.377-.861 10.908-3.394 23.305-1.62 32.825 4.695 6.015 3.991 14.461 12.358 15.006 20.094.597 8.474-7.016 10.665-13.907 9.261C1121.15 384.638 1107.046 371.202 1101.605 356.506z" class="color45af79 svgShape"></path><path fill="#45af81" d="M1184.226 340.109c.772-2.817 1.213-6.132-.629-8.398-1.426-1.755-3.877-2.359-6.135-2.249-4.797.234-9.053 3.13-12.585 6.384-6.927 6.378-25.785 30.613-9.411 36.741C1168.613 377.507 1181.633 349.57 1184.226 340.109zM1209.401 375.116c.484-.428 1.065-.874 1.704-.78.549.081.955.539 1.3.973 7.104 8.946 9.928 21.147 7.476 32.305-1.549 7.05-6.301 17.948-13.318 21.25-7.687 3.618-12.479-2.691-13.658-9.624C1190.227 403.502 1197.662 385.497 1209.401 375.116z" class="color45af79 svgShape"></path><path fill="#45af81" d="M1204.22 435.615c4.712 5.234 11.725 8.187 18.765 8.395 7.04.208 14.048-2.219 19.764-6.332-2.726-5.883-7.508-10.79-13.319-13.667-5.811-2.877-12.611-3.705-18.943-2.306C1202.313 423.51 1198.166 428.888 1204.22 435.615zM1250.904 189.844c-4.593-5.63-12.28-.858-15.953 3.343-4.949 5.66-7.119 13.224-8.645 20.438-.281.444-.564.887-.845 1.331-.03.047-.048.098-.075.147-6.438-5.308-13.906-8.849-22.313-9.674-6.253-.614-15.515-.294-19.312 5.739-3.198 5.081.453 9.243 5.573 10.325 4.504.952 9.524.385 14.111.479 6.795.139 13.59.278 20.386.418 1.5.031 2.809-1.11 3.264-2.49.665.323 1.433.404 2.229.081 7.018-2.849 14.06-6.37 18.896-12.396C1251.921 202.972 1255.234 195.151 1250.904 189.844zM1187.119 429.951c-1.621-4.642-6.081-12.498-12.093-11.579-9.557 1.46-5.035 19.529-.771 31.408-2.133-.647-4.287-1.228-6.496-1.66-3.736-.731-9.524-2.401-13.066-.163-8.152 5.151 2.389 13.456 7.733 14.672 4.831 1.1 10.012 1.25 14.931 1.668 3.591.305 7.928.316 9.035-3.927.239-.916.264-1.738.148-2.493.41-.389.756-.872.925-1.536C1189.649 447.75 1190.081 438.436 1187.119 429.951zM1181.627 435.792c.066.31.107.62.164.93-.503-1.579-1.006-3.157-1.509-4.736-.157-.49-.386-.892-.658-1.226-.276-.826-.584-1.645-.874-2.467.13.172.26.344.39.516C1180.4 430.904 1181.122 433.414 1181.627 435.792zM1248.99 380.372c-6.898-.788-10.43 6.187-9.86 12.112 1.175 12.217 9.686 21.628 10.172 34.009-.009 1.094-.019 2.188-.043 3.282-.021.955.275 1.689.739 2.231-.118.509-.22 1.02-.342 1.529-.916 3.799 4.823 5.399 5.862 1.616C1258.534 424.168 1268.937 382.651 1248.99 380.372z" class="color45af79 svgShape"></path><path fill="#317256" d="M1046.147 679.568c-2.211-1.725-4.657-3.291-7.418-3.781-2.761-.49-5.898.307-7.559 2.566-.877 1.193-1.277 2.679-1.419 4.153-.504 5.234 2.084 10.398 5.782 14.137 3.698 3.739 8.42 6.271 13.125 8.619 2.443 1.219 9.52 6.659 12.137 5.265 2.668-1.421 1.762-6.651 1.181-8.886C1059.76 693.107 1052.955 684.88 1046.147 679.568zM1206.552 700.67c-2.211-1.725-4.657-3.291-7.418-3.781-2.761-.49-5.897.307-7.559 2.566-.878 1.193-1.277 2.679-1.419 4.153-.504 5.234 2.084 10.398 5.782 14.137 3.698 3.738 8.42 6.271 13.125 8.619 2.443 1.219 9.52 6.659 12.137 5.265 2.668-1.421 1.762-6.651 1.181-8.886C1220.165 714.208 1213.361 705.981 1206.552 700.67zM1014.135 723.333c-.981-2.511-3.55-3.151-5.642-1.49-12.371 9.825-8.233 29.797-4.27 42.727 1.173 3.829 7.158 2.214 6.021-1.66-.053-.179-.107-.374-.16-.558 1.457-.13 2.842-1.134 2.908-3.029.011-.32.008-.64.017-.96.336-.452.555-1.03.57-1.744.003-.144-.004-.288-.003-.432 2.206-3.527 2.948-8.785 3.38-12.394C1017.8 736.734 1016.711 729.929 1014.135 723.333zM1134.339 832.129c-.981-2.511-3.55-3.151-5.642-1.49-12.371 9.825-8.233 29.797-4.27 42.727 1.173 3.829 7.158 2.214 6.021-1.66-.053-.179-.107-.374-.16-.558 1.457-.13 2.842-1.134 2.908-3.029.011-.32.008-.64.017-.96.336-.452.554-1.03.569-1.744.003-.144-.004-.288-.003-.432 2.206-3.527 2.948-8.785 3.38-12.394C1138.005 845.53 1136.915 838.725 1134.339 832.129zM937.578 891.023c-.118-7.34-1.359-14.566-3.355-21.618-.707-2.498-4.887-3.544-6.072-.794-5.417 12.57-6.582 25.983-2.44 39.126.37 1.174 1.193 1.81 2.112 2.028.612.579 1.518.813 2.415.749.083.042.166.085.25.127 1.673.85 3.65.421 4.665-1.223C938.017 904.78 937.663 896.296 937.578 891.023zM932.636 784.585c-3.529-4.69-10.756-4.197-15.569-2.117-6.096 2.635-10.521 8.022-13.338 13.898-.947 1.975.231 3.815 1.782 4.478-.151.265-.297.534-.422.827-.881 2.07.057 5.574 2.987 5.206 7.157-.9 14.179-3.094 20.093-7.344C932.741 796.249 936.648 789.916 932.636 784.585zM910.43 830.043l-.317-1.655c-.01-.049-.029-.088-.04-.136-2.764-12.495-13.909-21.569-26.644-22.41-2.337-.154-3.692 2.284-3.275 4.299 2.648 12.792 9.261 25.961 23.249 28.665 2.863.553 4.53-2.469 3.675-4.465C908.934 834.085 910.797 832.447 910.43 830.043zM1046.324 966.149c-8.698-18.685-29.724-21.741-48.224-21.033-3.117.119-3.823 3.886-2.101 5.521-.415 1.467.138 3.113 2.088 3.493.395.077.779.172 1.172.254.129.874.609 1.666 1.596 2.099 7.99 3.506 16.139 6.661 24.225 9.937 6.436 2.607 12.202 5.668 19.232 4.672C1046.66 970.759 1047.124 967.867 1046.324 966.149zM943.168 981.59c-.099-.158-.198-.315-.298-.473-.39-.62-.987-1.083-1.658-1.348-4.67-7.08-10.666-13.144-17.79-17.835-4.835-3.184-15.211-9.602-19.817-2.54-5.221 8.007 6.507 12.961 11.696 15.625l17.227 8.845c1.908.98 3.842 2.377 5.852 2.799 1.956 1.427 4.897-.074 5.035-2.336C943.723 983.428 943.684 982.41 943.168 981.59zM941.951 998.882c.061-.22.096-.439.113-.658 2.211-1.636.544-5.959-2.802-5.35-12.825 2.336-26.633 5.179-36.379 14.538-5.428 5.212-14.331 18.65-8.692 26.36 1.576 2.156 3.776 3.084 6.383 2.051 2.094-.829 3.674-3.818 5.318-5.26 2.674-2.347 5.81-4.087 8.952-5.709 10.961-5.661 22.657-9.623 28.856-21.1C944.843 1001.641 943.638 999.664 941.951 998.882z" class="color369660 svgShape"></path><path fill="#45af81" d="M940.693 622.571c-.224-.606-.431-1.309-.112-1.87.274-.483.847-.696 1.377-.861 10.908-3.394 23.305-1.62 32.824 4.695 6.015 3.991 14.461 12.358 15.007 20.094.597 8.475-7.016 10.665-13.907 9.261C960.238 650.703 946.133 637.267 940.693 622.571zM1058.439 726.016c1.931 2.558 5.343 3.573 8.548 3.623 4.565.071 8.996-1.48 13.18-3.307 10.098-4.41 19.431-10.565 27.462-18.11 1.408-1.323 2.873-2.904 2.883-4.836.015-2.964-3.336-4.776-6.279-5.128-6.225-.744-12.296 1.917-18.002 4.515C1079.997 705.613 1051.222 716.455 1058.439 726.016zM1040.865 809.85c-2.211-1.725-4.657-3.291-7.418-3.781s-5.897.307-7.559 2.566c-.877 1.193-1.277 2.679-1.419 4.153-.504 5.235 2.084 10.398 5.782 14.137 3.698 3.738 8.42 6.271 13.125 8.619 2.443 1.219 9.52 6.659 12.137 5.265 2.668-1.421 1.762-6.651 1.181-8.886C1054.478 823.388 1047.674 815.161 1040.865 809.85z" class="color45af79 svgShape"></path><path fill="#45af81" d="M1023.313 606.174c.772-2.817 1.213-6.131-.629-8.398-1.426-1.755-3.877-2.359-6.135-2.249-4.797.234-9.052 3.13-12.585 6.383-6.927 6.379-25.785 30.613-9.411 36.741C1007.7 643.572 1020.721 615.635 1023.313 606.174zM1005.262 1000.889c-.224-.606-.431-1.309-.112-1.87.274-.483.847-.696 1.377-.861 10.908-3.394 23.305-1.62 32.825 4.696 6.015 3.991 14.461 12.358 15.006 20.094.597 8.475-7.017 10.665-13.907 9.261C1024.807 1029.02 1010.703 1015.584 1005.262 1000.889zM995.27 860.247c-.224-.606-.431-1.308-.112-1.87.274-.483.847-.696 1.377-.861 10.908-3.394 23.305-1.62 32.824 4.696 6.015 3.991 14.461 12.358 15.007 20.094.597 8.475-7.017 10.665-13.907 9.261C1014.815 888.379 1000.711 874.943 995.27 860.247zM884.229 646.667c.772-2.817 1.213-6.131-.629-8.398-1.426-1.755-3.877-2.359-6.135-2.249-4.797.234-9.052 3.13-12.585 6.384-6.927 6.378-25.786 30.613-9.411 36.741C868.616 684.065 881.636 656.128 884.229 646.667zM1086.694 799.836c.772-2.816 1.213-6.131-.629-8.398-1.426-1.755-3.877-2.359-6.135-2.249-4.797.234-9.053 3.13-12.585 6.384-6.927 6.378-25.786 30.613-9.411 36.741C1071.08 837.234 1084.101 809.297 1086.694 799.836zM909.404 681.674c.484-.428 1.065-.874 1.704-.78.549.081.955.539 1.3.973 7.104 8.946 9.928 21.147 7.476 32.305-1.549 7.05-6.301 17.948-13.318 21.25-7.687 3.618-12.479-2.691-13.659-9.624C890.23 710.06 897.665 692.055 909.404 681.674z" class="color45af79 svgShape"></path><path fill="#45af81" d="M904.224 742.172c4.712 5.234 11.725 8.187 18.765 8.395 7.04.208 14.048-2.219 19.764-6.333-2.726-5.883-7.508-10.79-13.319-13.667-5.811-2.877-12.611-3.705-18.943-2.306C902.316 730.068 898.169 735.446 904.224 742.172zM877.07 913.765c-.497.412-1.092.839-1.728.724-.546-.099-.937-.569-1.268-1.015-6.812-9.171-9.24-21.457-6.428-32.529 1.776-6.996 6.878-17.736 13.997-20.809 7.8-3.367 12.386 3.093 13.341 10.06C897.152 886.014 889.138 903.769 877.07 913.765z" class="color45af79 svgShape"></path><path fill="#45af81" d="M884.202 853.466c-4.54-5.384-11.455-8.561-18.484-8.997-7.029-.436-14.112 1.764-19.958 5.691 2.535 5.969 7.155 11.027 12.871 14.09 5.715 3.063 12.485 4.11 18.858 2.916C885.718 865.625 890.037 860.384 884.202 853.466zM1157.521 1017.418c-1.621-4.642-6.081-12.498-12.093-11.58-9.557 1.46-5.034 19.529-.771 31.408-2.133-.646-4.287-1.228-6.496-1.66-3.736-.731-9.524-2.401-13.066-.163-8.152 5.151 2.389 13.456 7.733 14.672 4.831 1.1 10.012 1.25 14.931 1.668 3.591.305 7.928.316 9.035-3.927.239-.916.264-1.738.148-2.493.41-.389.756-.872.925-1.536C1160.051 1035.217 1160.484 1025.903 1157.521 1017.418zM1152.029 1023.26c.066.31.107.62.164.93-.503-1.578-1.006-3.157-1.509-4.735-.157-.49-.386-.892-.658-1.226-.276-.826-.584-1.645-.874-2.467.13.172.26.344.39.516C1150.802 1018.371 1151.524 1020.881 1152.029 1023.26zM1130.477 909.856c-1.621-4.642-6.081-12.498-12.093-11.579-9.557 1.46-5.035 19.529-.771 31.408-2.133-.646-4.287-1.227-6.495-1.66-3.736-.731-9.524-2.401-13.066-.163-8.152 5.151 2.388 13.456 7.733 14.672 4.831 1.1 10.012 1.25 14.931 1.668 3.591.305 7.928.316 9.034-3.927.239-.916.265-1.738.148-2.493.41-.389.756-.872.925-1.536C1133.008 927.655 1133.44 918.341 1130.477 909.856zM1124.986 915.698c.066.31.107.62.164.93-.503-1.579-1.006-3.157-1.509-4.736-.156-.49-.385-.892-.658-1.225-.276-.826-.584-1.645-.874-2.468.13.172.26.344.39.516C1123.758 910.809 1124.481 913.319 1124.986 915.698zM1126.229 657.917c-3.101-5.666-13.725-1.67-18.035-.096-7.522 2.747-14.992 7.078-19.916 13.495-.415.54-.547 1.141-.493 1.732-2.097 1.649-1.647 5.624 1.698 5.507 8.525-.297 16.907-2.531 24.53-6.353C1118.164 670.121 1129.86 664.554 1126.229 657.917zM948.993 686.93c-6.898-.788-10.43 6.187-9.86 12.112 1.175 12.217 9.686 21.628 10.172 34.009-.009 1.094-.019 2.188-.043 3.282-.021.955.275 1.689.739 2.231-.118.509-.22 1.02-.342 1.529-.916 3.799 4.824 5.399 5.862 1.616C958.537 730.726 968.94 689.209 948.993 686.93z" class="color45af79 svgShape"></path><path fill="#4f70a3" d="M1113.219,1411.14h53.111c-1.301-15.191-3.074-50.466-4.712-74.901L1113.219,1411.14z" class="colora3644f svgShape"></path><path fill="#ebc462" d="M807.949,455.225c-3.601-2.472-7.428-4.615-11.415-6.398c-3.43-1.534-6.979-2.8-10.606-3.779    c-4.005-1.081-7.981-0.977-12.116-1.078c-6.438-0.157-12.906-0.121-19.326,0.44c-4.461,0.39-9.906,0.693-13.796,3.168    c-12.456,7.926-72.47,80.396-75.867,87.19c-3.397,6.794,49.823,19.25,49.823,19.25s37.933-69.639,41.33-70.771    c2.927-0.976,6.608,7.34,7.814,9.084c1.234,1.784,2.755,3.831,5.197,3.289c3.03-0.672,3.567-3.338,3.247-5.997    c-0.154-1.276-2.579-12.038-0.405-12.038c0.877,0,2.623,7.237,3.025,8.09c0.665,1.41,1.688,3.543,3.376,3.895    c2.105,0.439,3.656-1.35,4.24-3.124c0.327-0.995,0.78-11.126,0.683-11.126c0.801,0,1.796,2.563,2.102,3.104    c1.008,1.783,2.024,3.651,3.449,5.143c1.276,1.336,3.317,2.789,5.032,1.371c1.815-1.501,2.449-4.921,2.179-7.066    c-0.38-3.011-2.105-6.833,1.524-8.646c1.581-0.79,3.451-0.565,5.218-0.524c2.766,0.064,5.582,0.504,8.357,0.294    c2.001-0.152,4.16-1.044,4.926-2.901c0.787-1.91,1.065-3.542-0.585-5.032C813.02,458.956,810.543,457.005,807.949,455.225z" class="coloreb9062 svgShape"></path><ellipse cx="558.856" cy="1417.884" fill="#4e9275" rx="223.227" ry="7.596" class="color5d924e svgShape"></ellipse><path fill="#abb8cc" d="M810.791,262.309l46.35,159.14c0,0-35.044-17.82-51.491-72.346     C789.203,294.576,810.791,262.309,810.791,262.309z" class="colorabbbcc svgShape"></path><path fill="#abb8cc" d="M887.722,524.48c-0.547-0.691-0.844-1.579-0.769-2.525c0.013-0.169,1.339-17.227,3.963-45.338     c0.623-6.687,1.234-11.803,1.724-15.909c1.538-12.899,1.529-12.895-2.484-16.307c-2.364-2.008-7.687-5.182-13.324-8.543     c-11.343-6.761-24.118-14.405-29.602-21.598c-1.201-1.597-0.881-3.866,0.714-5.068c1.597-1.201,3.853-0.772,5.068,0.715     c0.074,0.101,0.153,0.201,0.233,0.302c4.736,5.985,17.224,13.433,27.292,19.434c6.159,3.672,11.478,6.844,14.301,9.242     c6.976,5.919,6.599,9.14,4.988,22.68c-0.487,4.068-1.089,9.131-1.704,15.726c-2.621,28.055-3.942,45.057-3.957,45.225     c-0.153,1.993-1.893,3.484-3.885,3.327C889.235,525.761,888.326,525.242,887.722,524.48z" class="colorabbbcc svgShape"></path><path fill="#50545b" d="M885.831,525.976c-0.947-1.197-1.404-2.692-1.282-4.212c0.012-0.16,1.34-17.23,3.967-45.372     c0.623-6.699,1.234-11.821,1.726-15.938c1.051-8.819,1.285-11.164,0.328-12.374c-0.393-0.497-1.052-1.057-1.966-1.836     c-1.822-1.547-5.82-4.01-9.871-6.442l-1.716-1.03l0.696-1.876c0.759-2.043,1.626-4.345,2.612-6.906l1.031-2.672l2.458,1.47     c5.301,3.168,9.905,5.977,12.588,8.258c1.609,1.365,2.792,2.549,3.72,3.722c4.007,5.063,3.409,10.081,2.101,21.08     c-0.45,3.763-1.069,8.914-1.699,15.664c-2.301,24.644-3.596,40.692-3.94,45.026c-0.135,1.768-0.878,3.23-2.103,4.278     c-1.226,1.048-2.782,1.556-4.387,1.429C888.427,528.118,886.871,527.292,885.831,525.976z" class="color50525b svgShape"></path><path fill="#abb8cc" d="M943.058,289.143l-103.76,129.259c0,0,39.197-3.041,75.271-47.113     C950.644,327.217,943.058,289.143,943.058,289.143z" class="colorabbbcc svgShape"></path><path fill="#abb8cc" d="M771.593,501.867c0.77-0.429,1.384-1.135,1.677-2.037c0.053-0.162,5.36-16.427,13.701-43.4     c1.985-6.416,3.38-11.375,4.5-15.357c3.519-12.505,3.526-12.498,8.54-14.113c2.952-0.949,9.085-1.843,15.58-2.789     c13.068-1.902,27.796-4.071,35.616-8.615c1.721-1.016,2.294-3.234,1.281-4.956c-1.016-1.721-3.264-2.189-4.956-1.281     c-0.107,0.065-0.218,0.127-0.331,0.19c-6.667,3.715-21.055,5.813-32.654,7.5c-7.096,1.034-13.224,1.927-16.75,3.061     c-8.711,2.796-9.596,5.916-13.293,19.04c-1.108,3.945-2.491,8.852-4.448,15.18c-8.323,26.92-13.613,43.132-13.664,43.293     c-0.622,1.9,0.415,3.943,2.315,4.562C769.705,502.472,770.743,502.341,771.593,501.867z" class="colorabbbcc svgShape"></path><path fill="#50545b" d="M772.767,503.974c1.333-0.743,2.328-1.95,2.797-3.4c0.05-0.152,5.361-16.43,13.711-43.432     c1.99-6.427,3.387-11.393,4.509-15.384c2.407-8.549,3.088-10.806,4.436-11.557c0.553-0.308,1.377-0.573,2.519-0.943     c2.275-0.731,6.912-1.475,11.586-2.171l1.98-0.294l0.075-2c0.081-2.178,0.162-4.637,0.232-7.38l0.071-2.863l-2.834,0.417     c-6.11,0.897-11.439,1.728-14.79,2.808c-2.008,0.645-3.555,1.285-4.862,2.013c-5.64,3.143-7.009,8.007-10.013,18.669     c-1.025,3.648-2.427,8.644-4.429,15.121c-7.312,23.647-12.261,38.968-13.603,43.102c-0.552,1.686-0.426,3.32,0.305,4.757     c0.731,1.437,1.974,2.503,3.505,3C769.548,504.959,771.302,504.791,772.767,503.974z" class="color50525b svgShape"></path><path fill="#8b98ad" d="M833.895,414.054c-0.496,0-0.96-0.308-1.136-0.802c-0.224-0.627,0.105-1.317,0.732-1.54    c1.748-0.621,3.338-1.076,4.741-1.477c5.467-1.562,9.079-2.595,15.181-11.339c0.38-0.546,1.13-0.68,1.679-0.299    c0.547,0.382,0.68,1.134,0.299,1.68c-6.594,9.447-10.747,10.634-16.496,12.277c-1.435,0.41-2.92,0.834-4.596,1.431    C834.165,414.032,834.03,414.054,833.895,414.054z" class="color8b9dad svgShape"></path><path fill="#ebc462" d="M616.965,380.652c0,0-4.329,82.755-16.681,88.144c-10.808,4.715-23.339-3.786-23.339-3.786    l2.676,23.827c0,0-61.553,15.568-63.961,12.576c-2.408-2.993,11.215-28.159,11.144-52.756    C526.734,424.061,616.965,380.652,616.965,380.652z" class="coloreb9062 svgShape"></path><path fill="#565656" d="M616.578,382.291c0,0-13.33,18.313-17.097,24c-3.768,5.687-18.349,21.973-22.987,29.878    c-4.638,7.905-8.31,14.653-19.792,17.824c-11.482,3.171-29.997-0.513-31.345-3.601c-1.347-3.088-1.037-23.44-3.052-33.956    c-2.015-10.516-7.475-47.464,3.149-60.185c14.078-16.858,22.391-12.709,22.391-12.709s3.195-12.054,12.936-10.79    c9.741,1.264,15.428,5.032,22.76,3.303c7.332-1.729,16.107,0.692,15.237,2.909c-0.87,2.218-4.054,2.504-4.054,2.504    s29.903,2.685,32.584,17.396C629.418,370.44,616.578,382.291,616.578,382.291z" class="color84282c svgShape"></path><path fill="#daa520" d="M574.568,457.55c-0.196-2.445,3.554-2.786,3.797-0.341c0.176,1.767,0.605,5.659,0.618,7.435    c0.017,2.393-3.287,2.694-3.697,0.332C574.981,463.226,574.71,459.319,574.568,457.55z" class="colordb7e4b svgShape"></path><path fill="#ebc462" d="M602.181,406.583c0,0-3.171-11.482-13.496-7.345c-10.325,4.137-9.479,25.455-0.513,29.997    C597.137,433.779,602.181,406.583,602.181,406.583z" class="coloreb9062 svgShape"></path><path fill="#daa520" d="M583.993,426.787c0.412-0.68,0.843-0.98,1.622-1.135c0.702-0.139,1.382,0.322,1.799,0.828    c0.173,0.21,0.367,0.404,0.536,0.618c0.008,0.011,0.01,0.014,0.016,0.022c0.001,0.001,0.001,0.001,0.001,0.001    c0.112,0.104,0.216,0.213,0.329,0.314c0.18,0.161,0.367,0.314,0.562,0.458c0.023,0.017,0.187,0.126,0.254,0.172    c0.087,0.048,0.252,0.141,0.245,0.137c0.889,0.485,1.437,1.614,0.93,2.58c-0.486,0.927-1.6,1.397-2.581,0.931    c-1.383-0.658-2.684-1.636-3.533-2.925C583.81,428.236,583.626,427.393,583.993,426.787z" class="colordb7e4b svgShape"></path><path fill="#607ead" d="M415.961,736.363c-0.431,7.952,2.451,18.168,4.944,26.003c0,0,177.777,15.853,177.777,15.852   c6.137-13.502,7.759-28.335,7.231-43.05c-0.515-14.35-1.869-28.764-2.405-43.036c-0.313-8.323,1.044-16.634,3.09-24.707   c4.526-17.862,12.277-34.653,18.172-52.063c5.09-15.033,11.336-33.841,5.233-49.093c-8.112-20.272-17.31-40.146-26.791-59.812   c0,0-14.72-19.25-53.22-26.044c-38.499-6.794-37.367-5.662-38.499-3.397c-1.132,2.265,0,11.323,0,11.323   s-38.499,9.059-63.411,29.441c-24.911,20.382-21.514,91.719-16.985,105.307c4.245,12.737-1.332,30.877-3.272,43.77   c-2.382,15.831-5.241,31.59-8.571,47.249C417.689,721.461,416.365,728.912,415.961,736.363z" class="color607cad svgShape"></path><path fill="#607ead" d="M566.875,617.551c3.588,5.583,9.386,6.851,14.822,11.199c5.662,4.529,16.53,5.424,24.911,4.529   c9.08-0.974,18.083,1.404,27.176,2.287c2.751,0.261,5.513,0.532,8.277,0.453c6.376-0.192,12.466-2.174,18.682-3.329   c5.696-1.064,11.132-0.543,16.849-0.657c11.88-0.215,23.86,1.246,35.669,2.355c11.922,1.132,24.357-0.815,36.143-2.491   c5.12-0.725,10.826-2.435,16.035-2.061c0.238,0.012,0.463,0.034,0.69,0.057c1.517,0.17,3.091,0.555,4.676,1.041   c5.413,1.597,11.085,4.179,16.305,2.095c6.138-2.446,18.198-13.113,20.915-29.883c2.717-16.793-3.465-46.777-21.956-52.676   c-3.352-1.076-6.964-0.962-10.463-0.622c-5.719,0.566-10.949,2.717-16.339,3.985c-0.873,0.204-1.755,0.385-2.639,0.532   c-3.182,0.532-6.873-0.872-9.966-1.664c-8.175-2.084-16.271-4.495-24.344-6.93c-18.627-5.628-37.152-11.629-55.644-17.687   c-5.934-1.948-11.854-3.929-17.788-5.854c-0.737-0.249-1.472-0.487-2.207-0.724c-0.159-0.046-0.319-0.102-0.476-0.159   c-3.465-1.132-7.824-2.729-12.422-4.484c-0.792-0.305-1.587-0.611-2.379-0.917c-13.87-5.367-39.517-15.151-39.517-15.151   L566.875,617.551z" class="color607cad svgShape"></path><path fill="#50545b" d="M601.387,504.424c-4.956-5.114-20.509-18.56-51.395-24.01c-38.499-6.794-37.367-5.662-38.499-3.397   c-1.132,2.265,0,11.323,0,11.323s-11.374,2.696-25.734,8.398c-12.269,17.943-21.191,34.569-28.742,54.39   c-8.887,23.328-5.544,30.328-5.544,32.18c0,1.851,27.103,6.407,48.724,8.961c21.621,2.554,71.269,3.857,71.269,3.857   s-5.281-17.292,5.305-45.738c10.588-28.446,25.84-41.364,31.174-43.455C605.617,506.042,603.386,505.189,601.387,504.424z" class="color50525b svgShape"></path><path fill="#1a1a1a" d="M523.777,487.079c20.979,0.868,42.076,4.924,62.346,10.25c2.415,0.634,1.395,4.319-1.03,3.736   c-20.277-4.872-40.652-7.733-61.316-10.342C521.523,490.439,521.37,486.979,523.777,487.079z" class="color1a1a1a svgShape"></path><path fill="#ebc462" d="M826.349,518.013c13.999-11.508,26.036-20.169,36.584-35.492   c4.922-7.149,12.286-9.468,20.159-12.445c3.966-1.5,7.675-3.672,10.933-6.385c1.549-1.29,3.021-2.731,3.899-4.575   c0.93-1.954,1.289-4.126,2.153-6.107c0.094-0.216,0.202-0.44,0.397-0.572c2.76-1.874,5.093,4.756,5.865,6.267   c0.406,0.794,0.806,1.604,1.002,2.474c0.339,1.505-0.34,3.229-0.777,4.672c-0.543,1.791-1.558,3.923-1.232,5.849   c0.384,2.263,3.132,1.738,4.268,3.292c2.258,3.088-2.178,7.368-0.431,10.955c0.641,1.315,1.534,2.6,1.538,4.064   c0.007,2.925-3.409,4.742-4.132,7.576c-0.537,2.106,0.522,4.262,0.711,6.428c0.231,2.65-0.877,5.278-2.5,7.385   c-2.84,3.685-6.576,5.608-10.579,7.771c-14.702,7.944-13.389,6.885-25.334,18.796c-21.839,21.776-57.863,62.514-80.431,83.544   c-0.796,0.742,0.029-5.747-0.768-5.005l-2.304,1.077c-3.977-9.228-4.561-19.508-5.09-29.543   c-0.575-10.919-1.15-21.837-1.725-32.756C795.051,543.529,810.717,530.863,826.349,518.013z" class="coloreb9062 svgShape"></path><path fill="#50545b" d="M786.072,550.472c-3.352-1.076-6.964-0.962-10.463-0.622c-5.719,0.566-10.949,2.717-16.339,3.985   c-0.873,0.204-1.755,0.385-2.639,0.532c-3.182,0.532-6.873-0.872-9.966-1.664c-8.175-2.084-16.271-4.495-24.344-6.93   c-18.627-5.628-37.152-11.629-55.644-17.687c-5.934-1.948-11.854-3.929-17.788-5.854c-0.737-0.249-1.472-0.487-2.207-0.724   c-0.159-0.046-0.319-0.102-0.476-0.159c-3.465-1.132-7.824-2.729-12.422-4.484c-0.792-0.305-1.587-0.611-2.379-0.917   c-3.295-1.275-7.259-2.801-11.381-4.383c-2.851,1.771-5.609,3.809-8.228,6.238c-21,19.483-21.281,50.071-21.476,71.466   c-0.072,8.002-0.198,25.206,4.355,43.956c4.024,0.467,8.217,0.453,11.933,0.056c9.08-0.974,18.083,1.404,27.176,2.287   c2.751,0.261,5.513,0.532,8.277,0.453c6.376-0.192,12.466-2.174,18.682-3.329c5.696-1.064,11.132-0.543,16.849-0.657   c11.88-0.215,23.86,1.246,35.669,2.355c11.922,1.132,24.357-0.815,36.143-2.491c5.12-0.725,10.826-2.435,16.035-2.061   c0.238,0.012,0.463,0.034,0.69,0.057c1.517,0.17,3.091,0.555,4.676,1.041c5.413,1.597,11.085,4.179,16.305,2.095   c6.138-2.446,18.198-13.113,20.915-29.883C810.745,586.355,804.563,556.371,786.072,550.472z" class="color50525b svgShape"></path><path fill="#1a1a1a" d="M765.441,629.837c0.238,0.011,0.464,0.034,0.691,0.057c1.517,0.17,3.091,0.555,4.677,1.042   c9.24-8.572,14.652-21.254,19.035-32.759c6.149-16.113-4.076-28.954-17.732-36.597c-2.197-1.223-4.144,2.118-1.97,3.386   c6.069,3.499,11.89,7.813,15.14,14.211c4.031,7.938,1.732,14.834-1.597,22.5C779.142,612.15,774.069,622.364,765.441,629.837z" class="color1a1a1a svgShape"></path><path fill="#50545b" d="M431.709,625.742c0.212-12.233,1.162-36.475,5.22-57.327c4.737-24.34,11.466-41.459,35.351-65.721   c-8.36,4.095-16.866,9.087-24.2,15.087c-24.909,20.382-21.512,91.719-16.983,105.307   C431.378,623.932,431.511,624.854,431.709,625.742z" class="color50525b svgShape"></path><path fill="#e7c265" d="M474.671,1394.918c0,0-8.211-19.699-11.449-60.716c-3.238-41.017-55.195-37.127-55.195-37.127    s3.383,82.462,1.224,87.859c-2.159,5.397-6.476,15.112-6.476,15.112L474.671,1394.918z" class="colore78265 svgShape"></path><path fill="#ae8f40" d="M493.48,1415.286c-7.446,1.974-16.978,1.316-24.604,1.769c-9.549,0.567-19.134,0.994-28.701,0.766    c-8.179-0.195-16.363-0.177-24.537-0.557c-5.097-0.238-10.401-0.12-12.341-5.671c-4.812-13.775,3.761-30.137,8.302-42.833    c0.312-0.872,0.675-1.81,1.462-2.3c0.538-0.335,1.196-0.405,1.83-0.434c6.11-0.277,11.96,2.537,16.976,6.038    c5.016,3.501,9.502,7.746,14.709,10.956c3.12,1.924,6.73,3.5,10.354,2.949c4.061-0.618,7.043-3.781,8.868-7.273    c1.448-2.77,2.83-7.931,1.742-11.033c2.343,6.665,4.318,15.112,12.953,22.667c1.974,1.727,3.432,2.831,5.862,3.818    c6.809,2.766,11.34,10.311,10.582,17.621c-0.084,0.813-0.248,1.666-0.791,2.277c-0.493,0.555-1.224,0.826-1.936,1.036    C493.968,1415.154,493.725,1415.222,493.48,1415.286z" class="colorae5a40 svgShape"></path><path fill="#eec55f" d="M607.802,1300.961c0.008,0.034,0.017,0.067,0.025,0.101l-0.027-0.076     C607.801,1300.986,607.801,1300.977,607.802,1300.961z" class="coloree8f5f svgShape"></path><path fill="#e7c265" d="M618.659,1242.506c1.208,33.287,6.828,99.833,8.633,104.648     c3.149,8.398,7.013,21.016,66.506,45.081c12.193,4.932,22.564,13.034,21.514,20.382c-1.05,7.348-148.641,7.512-151.79,1.214     c-3.149-6.298,7.61-37.017,6.561-56.962c-0.441-8.282-2.908-33.629-10.329-56.397c-1.039-3.181-2.089-6.424-3.16-9.72     c-3.438-10.666-6.939-21.819-10.05-32.76C570.314,1251.601,594.269,1245.24,618.659,1242.506z" class="colore78265 svgShape"></path><path fill="#ae8f40" d="M597.638,1387.063c17.719,1.042,35.401-30.804,35.605-31.21     c13.478,13.968,55.937,32.422,64.336,35.874c14.986,6.159,20.965,14.755,19.915,22.104c-1.05,7.348-150.823,6.298-153.972,0     c-2.215-4.43,1.728-23.74,5.481-41.85C582.583,1367.458,579.859,1386.018,597.638,1387.063z" class="colorae5a40 svgShape"></path><path fill="#607ead" d="M469.697,841.564c4.318,43.176,17.27,53.97,24.828,79.876    c7.556,25.906,12.952,76.638,12.952,76.638s1.684,8.171,3.874,19.927c3.091,16.728,5.985,33.526,7.991,50.422    c2.216,18.64,0.469,37.063,4.921,55.556c7.489,31.096,19.252,59.001,17.214,91.595c-1.078,17.27,12.952,117.655,18.351,120.893    c5.397,3.238,87.431-16.191,89.59-26.985c0.972-4.868-7.394-111.373-16.87-226.805c-0.109-1.404-0.226-2.817-0.346-4.231    c-1.707-20.757-3.443-41.762-5.16-62.487c-0.184-2.18-0.367-4.361-0.551-6.531c-1.024-12.284-2.04-24.449-3.032-36.387    c-0.109-1.285-0.216-2.569-0.325-3.843c-7.522-89.882-18.701-173.082-19.802-185.981c-0.054-0.626-1.047-1.835-1.081-2.159    c-0.031-0.335,1.081,6.477,1.081,6.477l-28.533-7.794l-102.944-27.773c0,0-1.533,10.945-2.601,27.147    c-0.345,5.149-0.647,10.837-0.831,16.871C467.993,810.056,468.144,826.021,469.697,841.564z" class="color607cad svgShape"></path><path fill="#607ead" d="M409.759,833.339c0.119-1.263,0.237-2.515,0.356-3.757c1.544-15.824,7.899-53.53,8.493-59.045    c1.042-9.715-0.24-21.092,0.698-29.685c1.379,0.411,2.753,0.841,4.134,1.245c57.602,16.819,117.919,29.224,177.675,15.501    l1.462,15.631l1.295,13.773l-0.496,1.047l-0.766,1.608l-87.577,194.389c0,0-1.533,13.881-3.681,33.958    c-4.847,45.195-12.845,121.8-13.59,141.985c-1.079,29.144-3.778,171.086-9.175,178.642c-5.397,7.556-83.654-1.619-87.972-7.016    c-4.318-5.397-9.175-306.012,8.096-487.352C409.068,840.56,409.413,836.922,409.759,833.339z" class="color607cad svgShape"></path><path fill="#4a586e" d="M595.697 1005.31c1.5 8.15 3.152 16.267 4.458 24.459 1.382 8.668 2.558 17.368 3.508 26.1.734 6.725.108 14.82 2.332 21.243 1.641 4.782 5.483 5.559 10.039 5.904 5.526.41 11.031.248 16.515-.335-.108-1.403-.227-2.817-.346-4.231-4.695.496-9.434.648-14.173.41-3.908-.194-7.793-1.079-8.409-5.375-.443-3.098-.55-6.26-.842-9.38-1.047-11.182-2.439-22.333-4.167-33.44-1.921-12.327-5.44-24.751-6.228-37.218-.27-4.285.13-7.901 1.749-10.816 7.502 12.122 16.418 23.65 26.91 33.332-.183-2.181-.367-4.361-.55-6.531-8.786-9.315-16.817-19.127-23.715-30.04 1.317-1.123 2.968-2.083 5.03-2.86 5.008-1.878 10.33-2.893 15.651-3.486-.108-1.285-.216-2.569-.324-3.843-10.87.594-26.143 3.346-28.701 15.403C593.02 991.31 594.488 998.682 595.697 1005.31zM410.976 885.619c6.944-3.325 16.622-6.708 21.589-12.885 4.337-5.38 2.99-14.006 3.157-20.438.118-4.564.806-9.511.374-14.045-.177-1.869-.472-3.236-2.331-4.082-2.675-1.22-6.58-.63-9.462-.993-4.79-.61-9.462-1.721-14.104-3.039-.108 1.131-.216 2.272-.325 3.423 5.547 1.78 11.271 2.921 17.074 3.531.915.098 3.718-.236 4.465.344 1.515 1.18.895 2.773.846 4.524-.098 3.442-.197 6.875-.305 10.307-.216 7.239 1.308 16.169-5.498 20.743-5.4 3.629-11.576 6.413-17.419 9.216C406.766 883.318 408.723 886.691 410.976 885.619zM522.02 847.319c.636 8.202.99 16.435 1.726 24.628.453 5.046 1.361 8.472 5.853 11.362 2.788 1.793 5.89 3.136 8.845 4.625 3.225 1.625 6.446 3.257 9.675 4.874 4.891 2.45 8.185 2.874 12.734-.87 3.22-2.65 6.25-5.575 9.35-8.363 2.667-2.399 6.075-4.748 8.357-7.517 2.758-3.346 1.921-6.653 1.557-10.727l-1.009-11.303c-.13-1.456-.221-10.641-1.031-11.143-.301-.187-3.93.723-4.729.827-2.2.287-4.404.542-6.612.759-15.319 1.506-30.749 1.209-46.015-.71-2.203-.277-1.386-3.572.774-3.344 16.568 1.743 33.264 1.735 49.807-.292 3.483-.427 9.109-2.77 10.519 1.733 1.035 3.306.738 7.615 1.05 11.069.369 4.081.738 8.163 1.107 12.245.548 6.058 1.448 9.842-3.26 14.141-5.727 5.23-11.397 10.635-17.351 15.604-3.881 3.24-7.952 5.176-12.936 3.322-6.817-2.537-13.583-6.552-20.01-9.967-5.506-2.926-9.388-6.503-10.299-12.929-1.297-9.141-1.44-18.646-2.01-27.861C517.957 844.963 521.826 844.814 522.02 847.319zM477.291 860.338c.965 15.072 7.668 28.233 12.684 42.028 5.41 14.879 6.088 30.738 8.862 46.307 5.512 30.929 15.035 61.512 15.116 93.301.011 4.145-5.778 4.125-5.911 0-1.056-32.686-10.422-63.615-15.762-95.569-2.561-15.324-3.633-30.324-9.093-44.894-4.999-13.339-11.34-26.412-11.331-41.173C471.859 856.501 477.051 856.58 477.291 860.338z" class="color464e7a svgShape"></path><path fill="#7492c2" d="M416.969,776.633c17.534,5.363,33.148,7.275,51.209,10.27c45.84,7.598,88.36,6.426,134.282-1.418    c0.294-0.054,0.598-0.098,0.891-0.152c7.611-5.984-0.342-16.267-0.342-16.267c-10.77,1.865-17.08,4.406-27.948,5.371    c-35.182,3.149-70.696,1.653-105.456-4.364c-17.745-3.07-33.022-5.045-50.23-10.451    C416.493,762.651,411.949,768.97,416.969,776.633z" class="color7498c2 svgShape"></path><path fill="#4a586e" d="M428.721 756.751c.959-5.322 10.256-3.789 9.473 1.626-1.249 8.643-1.081 17.502-2.55 26.074-.8 4.666-8.909 4.338-9.427-.334C425.22 775.116 427.125 765.602 428.721 756.751zM548.794 770.34c.441-8.953 14.117-8.483 13.922.493-.211 9.72-.076 19.529-.829 29.223-.714 9.206-14.274 8.741-14.335-.508C547.488 789.825 548.316 780.05 548.794 770.34z" class="color464e7a svgShape"></path><path fill="#474747" d="M493.48 1415.287c.245-.065.489-.133.73-.204.711-.209 1.443-.481 1.936-1.035.543-.611.707-1.465.791-2.277.048-.468.016-.936.022-1.405-13.828.524-49.431 1.671-54.022-.22-5.464-2.25-24.138-10.918-41.047-6.683.064 2.776.489 5.5 1.408 8.13 1.94 5.551 7.244 5.433 12.341 5.671 8.173.381 16.358.363 24.537.557 9.567.228 19.152-.199 28.7-.766C476.501 1416.602 486.034 1417.26 493.48 1415.287zM717.494 1413.831c.083-.579.105-1.168.1-1.761-21.491 2.45-91.103 2.308-93.119-.917-2.023-3.236-41.827-5.195-61.268-6.864-.47 4.549-.465 7.981.316 9.541C566.672 1420.13 716.444 1421.179 717.494 1413.831z" class="color493333 svgShape"></path><path fill="#50545b" d="M624.769,615.363c5.09-15.033,11.336-33.841,5.233-49.093   c-6.257-15.636-13.165-31.032-20.346-46.281c-18.821,19.528-19.146,48.658-19.335,69.28c-0.115,12.442-0.427,47.098,17.072,75.281   C611.99,647.757,619.192,631.831,624.769,615.363z" class="color50525b svgShape"></path><path fill="#1a1a1a" d="M615.35 620.892c.17 1.245 2.095 1.042 1.948-.215-2.367-20.575-1.053-41.41 4.926-61.305 4.427-14.754 12.727-30.097 26.667-37.141-.736-.249-1.472-.487-2.208-.725-.159-.045-.317-.102-.476-.159-12.648 7.19-20.744 20.937-25.263 34.842C614.229 576.855 612.224 599.378 615.35 620.892zM605.795 631.066c9.348 1.17 20.947 4.089 30.253 5.61 2.46.402.153 4.881-2.265 4.529-9.088-1.323-19.602-2.654-28.308-5.662C603.758 634.951 603.737 630.808 605.795 631.066zM429.559 617.791c2.778-27.95 2.191-58.018 18.522-83.025 2.119-3.245 6.386-3.26 4.27.032-21.174 32.945-12.691 73.539-21.218 110.039C432.083 635.775 431.905 626.747 429.559 617.791z" class="color1a1a1a svgShape"></path><path fill="#e8dfc7" d="M621.974,387.303c2.165,53.537-11.17,80.965-12.291,80.965   c-1.12,0-8.105-17.73-10.758-31.153c-3.698-18.714-0.588-48.719-0.588-48.719L621.974,387.303z" opacity=".32" class="colorc7d8e8 svgShape"></path><path fill="#7492c2" d="M398.455 1304.726c18.034 14.985 92.648 9.831 94.45 9.831s6.285 21.603-3.128 26.938c-9.413 5.335-86.454 2.284-91.342-5.647C393.547 1327.918 398.455 1304.726 398.455 1304.726zM553.649 1309.456c20.938 10.554 92.489-11.223 94.246-11.628s10.975 19.64 3 26.953-83.733 21.637-90.278 15.007C554.073 1333.158 553.649 1309.456 553.649 1309.456z" class="color7498c2 svgShape"></path><path fill="#e7ba48" d="M582.902,395.286c-21.079,0-45.242-1.747-63.69-5.84c-1.783-0.396-0.831-11.01,0.018-10.805   c34.07,8.243,86.187,6.599,100.755,3.649c1.503-0.304,4.966,9.64,0.727,10.436C612.039,394.355,598.294,395.286,582.902,395.286z" class="colore74854 svgShape"></path><ellipse cx="1123.627" cy="1417.884" fill="#4e9275" rx="223.227" ry="7.596" class="color5d924e svgShape"></ellipse><g><path fill="#ebc462" d="M770.132,452.107c1.132,0,14.72,0,21.514,2.265c3.873,1.291,22.647,4.529,19.25,9.059    c-2.45,3.266-14.72,10.191-30.573,3.397c0,0-7.926,6.794-26.044,6.794L770.132,452.107z" class="coloreb9062 svgShape"></path><path fill="#daa520" d="M754.279,475.32c15.404,0,23.721-4.773,26.286-6.553c16.468,6.59,29.131-0.906,31.689-4.317     c0.744-0.991,0.941-2.129,0.556-3.205c-1.223-3.418-8.376-5.422-16.897-7.507c-1.617-0.396-3.014-0.738-3.73-0.976     c-6.715-2.239-19.547-2.352-22.051-2.352c-0.938,0-1.699,0.76-1.699,1.698s0.76,1.699,1.699,1.699     c6.664,0,16.156,0.57,20.978,2.177c0.847,0.283,2.237,0.623,3.996,1.053c9.081,2.223,13.953,4.005,14.487,5.3     c-0.012,0.012-0.029,0.04-0.056,0.075c-1.889,2.518-13.349,9.367-28.545,2.855c-0.597-0.254-1.284-0.15-1.774,0.272     c-0.07,0.059-7.783,6.385-24.939,6.385c-0.938,0-1.698,0.76-1.698,1.698C752.581,474.56,753.341,475.32,754.279,475.32z" class="colordb7e4b svgShape"></path></g></svg></g></svg>